<svg width="24" height="24" xmlns="http://www.w3.org/2000/svg" version="1.1">

 <g>
  <title>Layer 1</title>
  <path id="svg_52" fill="#9A76BB"/>
  <path id="svg_53" fill="#916FB0"/>
  <path id="svg_56" fill="#9E79BB"/>
  <path id="svg_68" fill="#8F6DAE"/>
  <path id="svg_69" fill="#825FA3"/>
  <path id="svg_71" fill="#68378A"/>
  <path id="svg_72" fill="#9573B6"/>
  <path id="svg_74" fill="#9774BA"/>
  <path id="svg_75" fill="#8E68AC"/>
  <path id="svg_76" fill="#9C79BA"/>
  <path id="svg_77" fill="#7E50A1"/>
  <path id="svg_78" fill="#9974BD"/>
  <path id="svg_80" fill="#9B78BA"/>
  <path id="svg_84" fill="#7F4EA4"/>
  <path id="svg_86" fill="#9B75B8"/>
  <path id="svg_87" fill="#8756AC"/>
  <path id="svg_88" fill="#8658A5"/>
  <path id="svg_91" fill="#885CAB"/>
  <path id="svg_94" fill="#916AB2"/>
  <path id="svg_96" fill="#8C6BAC"/>
  <path id="svg_97" fill="#8E6BB2"/>
  <path id="svg_99" fill="#8F6AB4"/>
  <path id="svg_100" fill="#8768A8"/>
  <path id="svg_101" fill="#9470B1"/>
  <path id="svg_102" fill="#946FB5"/>
  <path id="svg_103" fill="#956EB5"/>
  <path id="svg_105" fill="#946DB5"/>
  <path id="svg_106" fill="#9973B9"/>
  <path id="svg_107" fill="#906DAE"/>
  <path id="svg_108" fill="#9570B5"/>
  <path id="svg_109" fill="#A787C3"/>
  <path id="svg_110" fill="#A78BC2"/>
  <path id="svg_111" fill="#9473B5"/>
  <path id="svg_113" fill="#9970B5"/>
  <path id="svg_114" fill="#9674B6"/>
  <path id="svg_116" fill="#9873B7"/>
  <path id="svg_117" fill="#A786C5"/>
  <path id="svg_118" fill="#A37FBB"/>
  <path id="svg_120" fill="#9677B3"/>
  <path id="svg_126" fill="#9D7ABC"/>
  <path id="svg_129" fill="#9978B9"/>
  <path id="svg_137" fill="#5A5B5B"/>
  <path id="svg_138" fill="#5A5A5B"/>
  <path id="svg_139" fill="#8859AB"/>
  <path id="svg_140" fill="#895BAB"/>
  <path id="svg_141" fill="#7C4F9F"/>
  <path id="svg_142" fill="#8052A3"/>
  <path id="svg_143" fill="#8F63B1"/>
  <path id="svg_144" fill="#8E60AF"/>
  <path id="svg_145" fill="#734B90"/>
  <path id="svg_146" fill="#9570B3"/>
  <path id="svg_147" fill="#653A8B"/>
  <path id="svg_148" fill="#663B8E"/>
  <path id="svg_149" fill="#7D619B"/>
  <path id="svg_150" fill="#8463A0"/>
  <path id="svg_151" fill="#8764A4"/>
  <path id="svg_152" fill="#8D69AC"/>
  <path id="svg_153" fill="#946EB0"/>
  <path id="svg_154" fill="#9473B1"/>
  <path id="svg_155" fill="#9772B4"/>
  <path id="svg_156" fill="#9976B7"/>
  <path id="svg_157" fill="#9774B5"/>
  <path id="svg_158" fill="#795096"/>
  <path id="svg_159" fill="#7B549A"/>
  <path id="svg_160" fill="#7A539C"/>
  <path id="svg_161" fill="#633889"/>
  <path id="svg_162" fill="#663987"/>
  <path id="svg_163" fill="#6E4291"/>
  <path id="svg_164" fill="#653888"/>
  <path id="svg_165" fill="#8B6BAB"/>
  <path id="svg_166" fill="#805FA2"/>
  <path id="svg_167" fill="#623989"/>
  <path id="svg_168" fill="#613687"/>
  <path id="svg_169" fill="#8F6AB1"/>
  <path id="svg_170" fill="#633587"/>
  <path id="svg_171" fill="#8F6DB3"/>
  <path id="svg_172" fill="#936EB1"/>
  <path id="svg_173" fill="#7A5299"/>
  <path id="svg_174" fill="#926DB1"/>
  <path id="svg_175" fill="#65368B"/>
  <path id="svg_176" fill="#683C88"/>
  <path id="svg_177" fill="#916CB2"/>
  <path id="svg_178" fill="#67398E"/>
  <path id="svg_179" fill="#7A509D"/>
  <path id="svg_180" fill="#683B8B"/>
  <path id="svg_181" fill="#946FB1"/>
  <path id="svg_182" fill="#683A8B"/>
  <path id="svg_183" fill="#8962A9"/>
  <path id="svg_184" fill="#916FB2"/>
  <path id="svg_185" fill="#9574B3"/>
  <path id="svg_186" fill="#6B3C8F"/>
  <path id="svg_187" fill="#6D3F93"/>
  <path id="svg_188" fill="#6E3D91"/>
  <path id="svg_189" fill="#9574B6"/>
  <path id="svg_190" fill="#8B68A9"/>
  <path id="svg_191" fill="#8F6BAB"/>
  <path id="svg_192" fill="#794E9D"/>
  <path id="svg_193" fill="#714294"/>
  <path id="svg_194" fill="#8B65AB"/>
  <path id="svg_195" fill="#8D69AA"/>
  <path id="svg_196" fill="#704794"/>
  <path id="svg_197" fill="#8B64AB"/>
  <path id="svg_198" fill="#744799"/>
  <path id="svg_199" fill="#906DB6"/>
  <path id="svg_200" fill="#946FB6"/>
  <path id="svg_201" fill="#9B78BA"/>
  <path id="svg_202" fill="#9977BA"/>
  <path id="svg_203" fill="#784A9D"/>
  <path id="svg_204" fill="#926BAE"/>
  <path id="svg_205" fill="#76499B"/>
  <path id="svg_206" fill="#9169B1"/>
  <path id="svg_207" fill="#7B4DA0"/>
  <path id="svg_208" fill="#8D68AB"/>
  <path id="svg_209" fill="#7B4CA0"/>
  <path id="svg_210" fill="#9D7ABF"/>
  <path id="svg_211" fill="#713D9B"/>
  <path id="svg_212" fill="#743E99"/>
  <path id="svg_213" fill="#9A78BB"/>
  <path id="svg_214" fill="#9875B6"/>
  <path id="svg_215" fill="#916BB3"/>
  <path id="svg_216" fill="#9D80BC"/>
  <path id="svg_217" fill="#8B66AB"/>
  <path id="svg_218" fill="#6D3B97"/>
  <path id="svg_219" fill="#9B7CBE"/>
  <path id="svg_220" fill="#704292"/>
  <path id="svg_221" fill="#9065AB"/>
  <path id="svg_222" fill="#8966AD"/>
  <path id="svg_223" fill="#704197"/>
  <path id="svg_224" fill="#6F4394"/>
  <path id="svg_225" fill="#9C7BBC"/>
  <path id="svg_226" fill="#8254A4"/>
  <path id="svg_227" fill="#9C79BC"/>
  <path id="svg_228" fill="#8255A6"/>
  <path id="svg_229" fill="#9369B6"/>
  <path id="svg_230" fill="#8155A5"/>
  <path id="svg_231" fill="#8559A8"/>
  <path id="svg_232" fill="#713E9C"/>
  <path id="svg_233" fill="#724795"/>
  <path id="svg_234" fill="#8356A9"/>
  <path id="svg_235" fill="#7F51A4"/>
  <path id="svg_236" fill="#8357A9"/>
  <path id="svg_237" fill="#8256A7"/>
  <path id="svg_238" fill="#8152A3"/>
  <path id="svg_239" fill="#7D51A1"/>
  <path id="svg_240" fill="#8254A7"/>
  <path id="svg_241" fill="#865BAE"/>
  <path id="svg_242" fill="#8F6AB0"/>
  <path id="svg_243" fill="#895DAE"/>
  <path id="svg_244" fill="#8F6AAD"/>
  <path id="svg_245" fill="#8554AA"/>
  <path id="svg_246" fill="#815AA4"/>
  <path id="svg_247" fill="#8056A3"/>
  <path id="svg_248" fill="#7B49A8"/>
  <path id="svg_249" fill="#8158A4"/>
  <path id="svg_250" fill="#8254A6"/>
  <path id="svg_251" fill="#885BAB"/>
  <path id="svg_252" fill="#835AA7"/>
  <path id="svg_253" fill="#956FB8"/>
  <path id="svg_254" fill="#885AAD"/>
  <path id="svg_255" fill="#8653AA"/>
  <path id="svg_256" fill="#7F56A0"/>
  <path id="svg_257" fill="#8454A8"/>
  <path id="svg_258" fill="#895CAD"/>
  <path id="svg_259" fill="#9D7AB5"/>
  <path id="svg_260" fill="#9770BA"/>
  <path id="svg_261" fill="#834AA8"/>
  <path id="svg_262" fill="#7F4CAA"/>
  <path id="svg_263" fill="#906DB2"/>
  <path id="svg_264" fill="#824CAE"/>
  <path id="svg_265" fill="#8C61AE"/>
  <path id="svg_266" fill="#8757A6"/>
  <path id="svg_267" fill="#8457A9"/>
  <path id="svg_268" fill="#8159A3"/>
  <path id="svg_269" fill="#895BAE"/>
  <path id="svg_270" fill="#936EB3"/>
  <path id="svg_271" fill="#885BA7"/>
  <path id="svg_272" fill="#8258A4"/>
  <path id="svg_273" fill="#8355A6"/>
  <path id="svg_274" fill="#8257A4"/>
  <path id="svg_275" fill="#9971BC"/>
  <path id="svg_276" fill="#875BAD"/>
  <path id="svg_277" fill="#926EB3"/>
  <path id="svg_278" fill="#895EAE"/>
  <path id="svg_279" fill="#895CAE"/>
  <path id="svg_280" fill="#8C5DAE"/>
  <path id="svg_281" fill="#855BAD"/>
  <path id="svg_282" fill="#946FAF"/>
  <path id="svg_283" fill="#845BA6"/>
  <path id="svg_284" fill="#835AA7"/>
  <path id="svg_285" fill="#9773B8"/>
  <path id="svg_286" fill="#926FB2"/>
  <path id="svg_287" fill="#8257A4"/>
  <path id="svg_288" fill="#8E65AF"/>
  <path id="svg_289" fill="#936EAF"/>
  <path id="svg_290" fill="#9767B8"/>
  <path id="svg_291" fill="#8E66B0"/>
  <path id="svg_292" fill="#9375B5"/>
  <path id="svg_293" fill="#8C64B2"/>
  <path id="svg_294" fill="#8E64B0"/>
  <path id="svg_295" fill="#875DA8"/>
  <path id="svg_296" fill="#865EA9"/>
  <path id="svg_297" fill="#835AA5"/>
  <path id="svg_298" fill="#A17ABC"/>
  <path id="svg_299" fill="#906BB4"/>
  <path id="svg_300" fill="#8E66B4"/>
  <path id="svg_301" fill="#8C63AF"/>
  <path id="svg_302" fill="#8E65B2"/>
  <path id="svg_303" fill="#916CB2"/>
  <path id="svg_304" fill="#936EB4"/>
  <path id="svg_305" fill="#A27DC2"/>
  <path id="svg_306" fill="#855DAB"/>
  <path id="svg_307" fill="#8B61B0"/>
  <path id="svg_308" fill="#9A72B8"/>
  <path id="svg_309" fill="#9770B7"/>
  <path id="svg_310" fill="#956DB5"/>
  <path id="svg_311" fill="#A280BF"/>
  <path id="svg_312" fill="#A37EC1"/>
  <path id="svg_313" fill="#926CB5"/>
  <path id="svg_314" fill="#8F67B2"/>
  <path id="svg_315" fill="#A27EC1"/>
  <path id="svg_316" fill="#7E559F"/>
  <path id="svg_317" fill="#9069B2"/>
  <path id="svg_318" fill="#A986C4"/>
  <path id="svg_319" fill="#A37FC0"/>
  <path id="svg_320" fill="#8F68B4"/>
  <path id="svg_321" fill="#8F69AF"/>
  <path id="svg_322" fill="#9071B5"/>
  <path id="svg_323" fill="#926EB2"/>
  <path id="svg_324" fill="#916DB3"/>
  <path id="svg_325" fill="#9571B3"/>
  <path id="svg_326" fill="#936EB1"/>
  <path id="svg_327" fill="#9370B4"/>
  <path id="svg_328" fill="#946FB5"/>
  <path id="svg_329" fill="#9572B5"/>
  <path id="svg_330" fill="#916DB2"/>
  <path id="svg_331" fill="#9770B9"/>
  <path id="svg_332" fill="#9870BA"/>
  <path id="svg_333" fill="#9775BA"/>
  <path id="svg_334" fill="#9972BA"/>
  <path id="svg_335" fill="#9773B5"/>
  <path id="svg_336" fill="#A88BC8"/>
  <path id="svg_337" fill="#9874BA"/>
  <path id="svg_338" fill="#9571B6"/>
  <path id="svg_339" fill="#A88AC6"/>
  <path id="svg_340" fill="#9570B7"/>
  <path id="svg_341" fill="#936BAF"/>
  <path id="svg_342" fill="#946FB3"/>
  <path id="svg_343" fill="#9871B5"/>
  <path id="svg_344" fill="#AE91C8"/>
  <path id="svg_345" fill="#926EB1"/>
  <path id="svg_346" fill="#916CB2"/>
  <path id="svg_347" fill="#9671B6"/>
  <path id="svg_348" fill="#9C79BB"/>
  <path id="svg_349" fill="#9675B6"/>
  <path id="svg_350" fill="#966EBA"/>
  <path id="svg_351" fill="#9A72B8"/>
  <path id="svg_352" fill="#936FB2"/>
  <path id="svg_353" fill="#9876B6"/>
  <path id="svg_354" fill="#9172B1"/>
  <path id="svg_355" fill="#916FB2"/>
  <path id="svg_356" fill="#9573B4"/>
  <path id="svg_357" fill="#9770B7"/>
  <path id="svg_358" fill="#926EB1"/>
  <path id="svg_359" fill="#9770B8"/>
  <path id="svg_360" fill="#926FB1"/>
  <path id="svg_361" fill="#9873BB"/>
  <path id="svg_362" fill="#AC8EC5"/>
  <path id="svg_363" fill="#9D7BBB"/>
  <path id="svg_364" fill="#A183BD"/>
  <path id="svg_365" fill="#9575B8"/>
  <path id="svg_366" fill="#9977B5"/>
  <path id="svg_367" fill="#A583C4"/>
  <path id="svg_368" fill="#A886C5"/>
  <path id="svg_369" fill="#A17EBF"/>
  <path id="svg_370" fill="#A88AC2"/>
  <path id="svg_371" fill="#A683C6"/>
  <path id="svg_372" fill="#9E7DC1"/>
  <path id="svg_373" fill="#A688C4"/>
  <path id="svg_374" fill="#926FB3"/>
  <path id="svg_375" fill="#9B7AB9"/>
  <path id="svg_376" fill="#9270AE"/>
  <path id="svg_377" fill="#A17ABB"/>
  <path id="svg_378" fill="#AB8BC7"/>
  <path id="svg_379" fill="#9C76B9"/>
  <path id="svg_380" fill="#A17DBE"/>
  <path id="svg_381" fill="#A07BBD"/>
  <path id="svg_382" fill="#9F7BBC"/>
  <path id="svg_383" fill="#9E7BBB"/>
  <path id="svg_384" fill="#9B76B7"/>
  <path id="svg_385" fill="#A685C5"/>
  <path id="svg_386" fill="#9D7EBA"/>
  <path id="svg_387" fill="#9A74B8"/>
  <path id="svg_388" fill="#9C75B9"/>
  <path id="svg_389" fill="#9F7BBA"/>
  <path id="svg_390" fill="#A484C1"/>
  <path id="svg_391" fill="#A37EC0"/>
  <path id="svg_392" fill="#A583C2"/>
  <path id="svg_393" fill="#A482C2"/>
  <path id="svg_394" fill="#A986C0"/>
  <path id="svg_395" fill="#9675B9"/>
  <path id="svg_396" fill="#AC88CB"/>
  <path id="svg_397" fill="#9873B6"/>
  <path id="svg_398" fill="#9A79B5"/>
  <path id="svg_399" fill="#9B78B8"/>
  <path id="svg_400" fill="#9673B4"/>
  <path id="svg_401" fill="#A882C2"/>
  <path id="svg_402" fill="#A086C0"/>
  <path id="svg_403" fill="#9A77B7"/>
  <path id="svg_404" fill="#A985C4"/>
  <path id="svg_405" fill="#A281C5"/>
  <path id="svg_406" fill="#9A76B6"/>
  <path id="svg_407" fill="#A37EC0"/>
  <path id="svg_408" fill="#9673B8"/>
  <path id="svg_409" fill="#A484C0"/>
  <path id="svg_410" fill="#AA8AC3"/>
  <path id="svg_411" fill="#A685C3"/>
  <path id="svg_412" fill="#A784C3"/>
  <path id="svg_413" fill="#A481C0"/>
  <path id="svg_414" fill="#9E7DBB"/>
  <path id="svg_415" fill="#9C7ABB"/>
  <path id="svg_416" fill="#A17EBB"/>
  <path id="svg_417" fill="#9D7BBA"/>
  <path id="svg_418" fill="#9A77B7"/>
  <path id="svg_419" fill="#9876B6"/>
  <path id="svg_420" fill="#9874B5"/>
  <path id="svg_421" fill="#9B79B7"/>
  <path id="svg_422" fill="#A080BC"/>
  <path id="svg_423" fill="#9C7AB7"/>
  <path id="svg_424" fill="#997AB7"/>
  <path id="svg_425" fill="#9F78BC"/>
  <path id="svg_426" fill="#9A79B7"/>
  <path id="svg_427" fill="#9678B4"/>
  <path id="svg_428" fill="#9B71B7"/>
  <path id="svg_429" fill="#9A79B9"/>
  <path id="svg_430" fill="#9874B8"/>
  <path id="svg_431" fill="#9576B4"/>
  <path id="svg_432" fill="#9D79B9"/>
  <path id="svg_433" fill="#9A77B7"/>
  <path id="svg_434" fill="#A080BA"/>
  <path id="svg_435" fill="#9B76B4"/>
  <path id="svg_436" fill="#926FB1"/>
  <path id="svg_437" fill="#9A7AB8"/>
  <path id="svg_438" fill="#9B77BB"/>
  <path id="svg_439" fill="#9A76BA"/>
  <path id="svg_440" fill="#997EB8"/>
  <path id="svg_441" fill="#9A75B7"/>
  <path id="svg_442" fill="#997BB9"/>
  <path id="svg_443" fill="#9271B2"/>
  <path id="svg_444" fill="#9773B8"/>
  <path id="svg_445" fill="#9F7EBE"/>
  <path id="svg_446" fill="#9972B7"/>
  <path id="svg_447" fill="#9876B6"/>
  <path id="svg_448" fill="#9B7AB7"/>
  <path id="svg_449" fill="#9A7BB9"/>
  <path id="svg_450" fill="#9876BA"/>
  <path id="svg_451" fill="#9574B8"/>
  <path id="svg_452" fill="#9A79B8"/>
  <path id="svg_453" fill="#9C79BB"/>
  <path id="svg_454" fill="#9B7CBB"/>
  <path id="svg_455" fill="#9778B8"/>
  <path id="svg_456" fill="#9A78B9"/>
  <path id="svg_457" fill="#9B7BBA"/>
  <path id="svg_458" fill="#9A79B6"/>
  <path id="svg_459" fill="#9677B3"/>
  <path id="svg_460" fill="#9776B5"/>
  <path id="svg_461" fill="#9B7CBC"/>
  <path id="svg_462" fill="#9F7FBB"/>
  <path id="svg_463" fill="#A183C1"/>
  <path id="svg_464" fill="#A486BC"/>
  <path id="svg_465" fill="#A686BC"/>
  <path id="svg_466" fill="#A889BF"/>
  <path id="svg_467" fill="#A687BC"/>
  <path id="svg_468" fill="#A587BD"/>
  <path id="svg_469" fill="#A483BC"/>
  <path id="svg_470" fill="#9B7CBC"/>
  <path id="svg_471" fill="#9E7FBD"/>
  <path id="svg_472" fill="#A07EBB"/>
  <path id="svg_473" fill="#A485BD"/>
  <path id="svg_474" fill="#A786BD"/>
  <path id="svg_475" fill="#A383BE"/>
  <path id="svg_476" fill="#9C7BBD"/>
  <path id="svg_477" fill="#A07EBC"/>
  <path id="svg_478" fill="#9B78B4"/>
  <path id="svg_479" fill="#A07DBE"/>
  <path id="svg_480" fill="#9E7DBA"/>
  <path id="svg_481" fill="#9C79B7"/>
  <path id="svg_482" fill="#A587C0"/>
  <path id="svg_483" fill="#A684BE"/>
  <g stroke="null" id="svg_484">
   <path stroke="null" id="svg_485" fill="#4B1280" d="m6.1138,6.64674c0.15163,-0.00067 0.15163,-0.00067 0.30632,-0.00136c0.22131,0.00585 0.41018,0.02359 0.62477,0.0707c0.063,0.01091 0.12601,0.02182 0.19092,0.03306c3.20294,0.57716 5.88351,4.40497 3.32739,7.32053c-0.04837,0.05557 -0.09675,0.11113 -0.14659,0.16839c-0.13867,0.14858 -0.13867,0.14858 -0.32885,0.30706c0.58802,-0.00295 1.21564,-0.2422 1.775,-0.41205c0.11191,-0.03291 0.11191,-0.03291 0.22609,-0.06649c0.07706,-0.02382 0.15412,-0.04764 0.23351,-0.07218c0.07159,-0.02182 0.14317,-0.04364 0.21692,-0.06612c0.44438,-0.19948 0.85131,-1.20906 1.0034,-1.6653c0.03138,-0.03138 0.06276,-0.06276 0.09509,-0.09509c0.06453,-0.11856 0.12691,-0.2383 0.1882,-0.35857c0.16299,-0.31699 0.33031,-0.63091 0.50182,-0.94334c0.12011,-0.22033 0.23809,-0.44174 0.35597,-0.66327c0.14591,-0.27415 0.2925,-0.54782 0.44177,-0.82015c0.20364,-0.37181 0.40159,-0.74659 0.60013,-1.12114c0.14115,-0.26507 0.28444,-0.52888 0.42889,-0.79216c0.07753,-0.14211 0.15329,-0.28516 0.22893,-0.42828c0.1391,-0.25759 0.1391,-0.25759 0.42394,-0.29319c0.02092,-0.01046 0.04184,-0.02092 0.06339,-0.0317c0,0.02092 0,0.04184 0,0.06339c0.15192,0.00028 0.30385,-0.00383 0.45564,-0.00991c0.12687,-0.00472 0.12687,-0.00472 0.2563,-0.00953c0.18811,0.00252 0.18811,0.00252 0.27066,-0.04396c0,0.02092 0,0.04184 0,0.06339c0.20075,0.0317 0.20075,0.0317 0.19018,-0.06339c0.03138,0.01046 0.06276,0.02092 0.09509,0.0317c0.32457,0.0275 0.32457,0.0275 0.63393,-0.0317c0,0.02092 0,0.04184 0,0.06339c0.0608,0 0.1216,0 0.18424,0c0.32607,0 0.33605,0.14536 0.47161,0.42394c0.07316,0.14658 0.15125,0.28914 0.23165,0.43187c0.14591,0.2602 0.2794,0.52515 0.41206,0.79241c0.22411,0.43586 0.45088,0.87032 0.67962,1.30377c0.0963,0.18319 0.19173,0.36682 0.28713,0.55048c0.14695,0.2829 0.29475,0.56531 0.4435,0.84726c0.08711,0.16568 0.17344,0.33176 0.25976,0.49786c0.17978,0.3449 0.36334,0.68768 0.54726,1.03038c0.3774,0.70452 0.74899,1.41183 1.11409,2.1228c0.10656,0.20725 0.21379,0.41412 0.32167,0.62068c0.04413,0.08452 0.04413,0.08452 0.08915,0.17074c0.0692,0.13223 0.13856,0.26436 0.20801,0.39645c0.03792,0.07236 0.07583,0.14472 0.1149,0.21928c0.03481,0.06623 0.06962,0.13247 0.10549,0.20071c0.07676,0.1539 0.07676,0.1539 0.07676,0.21729c0.02092,0 0.04184,0 0.06339,0c-0.0317,0.09509 -0.0317,0.09509 -0.12679,0.06339c-0.01046,0.03138 -0.02092,0.06276 -0.0317,0.09509c-0.02092,-0.02092 -0.04184,-0.04184 -0.06339,-0.06339c-0.06276,0.02092 -0.12552,0.04184 -0.19018,0.06339c-0.04184,-0.01046 -0.08368,-0.02092 -0.12678,-0.0317c-0.30515,-0.04725 -0.30515,-0.04725 -0.34866,0.06339c-0.0523,-0.02092 -0.1046,-0.04184 -0.15848,-0.06339c-0.09882,-0.05038 -0.09882,-0.05038 -0.12679,0.0317c0,-0.02092 0,-0.04184 0,-0.06339c-0.17309,0.01927 -0.17309,0.01927 -0.25357,0.06339c-0.06276,-0.01046 -0.12552,-0.02092 -0.19018,-0.0317c-0.24648,-0.0378 -0.24648,-0.0378 -0.28527,0.06339c-0.12679,0 -0.12679,0 -0.15848,-0.06339c-0.04184,0.01046 -0.08368,0.02092 -0.12678,0.0317c-0.02092,-0.01046 -0.04184,-0.02092 -0.06339,-0.0317c-0.06603,0 -0.13206,0 -0.20009,0c-0.56985,0 -0.67386,-0.00458 -0.94099,-0.53884c-0.0523,-0.02092 -0.1046,-0.04184 -0.15848,-0.06339c0.01046,-0.02092 0.02092,-0.04184 0.0317,-0.06339c0.04217,-0.12651 0.03757,-0.25064 -0.09509,-0.31697c-0.04707,-0.09414 -0.04707,-0.09414 -0.09509,-0.19018c-0.03138,-0.01046 -0.06276,-0.02092 -0.09509,-0.0317c0.01046,-0.0523 0.02092,-0.1046 0.0317,-0.15848c-0.03698,-0.19546 -0.03698,-0.19546 -0.15848,-0.22188c0,-0.03138 0,-0.06276 0,-0.09509c-0.02697,-0.07757 -0.02697,-0.07757 -0.12678,-0.06339c-0.01046,-0.09414 -0.02092,-0.18828 -0.0317,-0.28527c-0.05173,-0.12149 -0.10822,-0.24103 -0.16839,-0.35856c-0.0306,-0.06068 -0.06121,-0.12135 -0.09274,-0.18386c-0.08127,-0.15994 -0.08127,-0.15994 -0.21432,-0.28168c-0.01046,-0.07322 -0.02092,-0.14644 -0.0317,-0.22188c-0.06894,-0.19391 -0.06894,-0.19391 -0.19018,-0.22187c-0.0317,-0.12679 -0.0317,-0.12679 -0.0317,-0.22188c-0.03138,-0.06276 -0.06276,-0.12552 -0.09509,-0.19018c0,-0.02092 0,-0.04184 0,-0.06339c-0.04184,0.01046 -0.08368,0.02092 -0.12678,0.0317c-0.0317,-0.22187 -0.0317,-0.22187 0,-0.28527c-0.66849,0.25607 -1.30233,0.61488 -1.93349,0.9509c-0.42916,0.22847 -0.86206,0.4476 -1.29757,0.66365c-0.1265,0.06374 -0.1265,0.06374 -0.25555,0.12877c-0.07232,0.03487 -0.07232,0.03487 -0.1461,0.07045c-0.42595,0.21189 -0.55567,0.46879 -0.76121,0.88243c-0.03886,0.07816 -0.07771,0.15633 -0.11775,0.23686c-0.13423,0.27376 -0.26539,0.54887 -0.39472,0.82498c-0.13056,0.26251 -0.13056,0.26251 -0.38692,0.29913c-0.06276,0.01046 -0.12552,0.02092 -0.19018,0.0317c-0.0523,-0.01046 -0.1046,-0.02092 -0.15848,-0.0317c-0.07322,0 -0.14644,0 -0.22187,0c-0.22188,0 -0.22188,0 -0.22188,-0.06339c-0.29367,-0.03683 -0.29367,-0.03683 -0.34866,0.15848c-0.19018,0.0317 -0.19018,0.0317 -0.44375,0.0317c0,0.02092 0,0.04184 0,0.06339c-0.22187,0 -0.22187,0 -0.31696,-0.0317c-0.69538,-0.04014 -1.39269,-0.03667 -2.08898,-0.03583c-0.17223,0.00017 -0.34446,0 -0.51669,-0.0002c-0.10958,0.00002 -0.21915,0.00006 -0.32873,0.00012c-0.14778,0.00005 -0.14778,0.00005 -0.29855,0.00011c-0.20068,-0.01223 -0.20068,-0.01223 -0.28536,0.0358c-0.22188,-0.0317 -0.22188,-0.0317 -0.25357,-0.12679c-0.10433,-0.06554 -0.21006,-0.1289 -0.31697,-0.19018c-0.03138,-0.02092 -0.06276,-0.04184 -0.09509,-0.06339c-0.22135,0.0246 -0.42189,0.05997 -0.63789,0.10896c-0.72155,0.15307 -1.41395,0.16191 -2.14558,0.09199c-0.15941,-0.01885 -0.15941,-0.01885 -0.29109,0.02092c0,-0.03138 0,-0.06276 0,-0.09509c-0.09414,-0.01046 -0.18828,-0.02092 -0.28527,-0.0317c-0.11738,-0.02907 -0.23427,-0.06022 -0.35064,-0.09311c-0.19974,-0.0561 -0.39893,-0.11013 -0.60026,-0.16046c-0.14791,-0.07396 -0.29583,-0.14792 -0.44375,-0.22188c-0.01046,0.02092 -0.02092,0.04184 -0.0317,0.06339c0,-0.03138 0,-0.06276 0,-0.09509c-0.11577,-0.03331 -0.23213,-0.06455 -0.34866,-0.09509c-0.08499,-0.03465 -0.16997,-0.0693 -0.25754,-0.105c-0.21147,-0.12436 -0.21147,-0.12436 -0.24961,-0.02179c0,-0.03138 0,-0.06276 0,-0.09509c-0.06276,-0.02092 -0.12552,-0.04184 -0.19018,-0.06339c-1.31382,-0.73213 -2.20364,-1.9402 -1.8701,-3.48662c-0.02092,-0.01046 -0.04184,-0.02092 -0.06339,-0.0317c0.06339,-0.09509 0.06339,-0.09509 0.12679,-0.09509c0,-0.0523 0,-0.1046 0,-0.15848c0.01046,-0.01046 0.02092,-0.02092 0.0317,-0.0317c-0.01046,-0.08368 -0.02092,-0.16736 -0.0317,-0.25357c-0.0414,-1.10962 0.177,-1.91835 0.72902,-2.88438c0.01569,-0.04707 0.01569,-0.04707 0.0317,-0.09509c0.04184,-0.02092 0.08368,-0.04184 0.12678,-0.06339c0.0523,-0.07322 0.1046,-0.14644 0.15848,-0.22187c0.12678,-0.12679 0.12678,-0.12679 0.19018,-0.12679c0.01046,-0.03138 0.02092,-0.06276 0.0317,-0.09509c0.08444,-0.07405 0.16896,-0.14801 0.25357,-0.22187c0,-0.02092 0,-0.04184 0,-0.06339c0.06276,-0.01569 0.06276,-0.01569 0.12679,-0.0317c0.05491,-0.04184 0.10983,-0.08368 0.16641,-0.12678c1.13925,-0.84389 2.58446,-1.11251 3.97395,-1.11532zm-1.9533,6.56712c0.0523,0.0523 0.1046,0.1046 0.15848,0.15848c0.55772,0.42839 1.06102,0.68807 1.7235,0.39621c0.07886,-0.03469 0.15771,-0.06938 0.23896,-0.10512c0.52043,-0.23319 0.52043,-0.23319 1.01701,-0.51296c0.15848,0.0317 0.15848,0.0317 0.31697,0.12679c1.28957,-0.25792 1.31005,-2.57456 0.69732,-3.39153c-0.03334,-0.04446 -0.06668,-0.08891 -0.10103,-0.13471c-0.21041,-0.33317 -0.21041,-0.33317 -0.5012,-0.30904c0.01046,-0.0523 0.02092,-0.1046 0.0317,-0.15848c-0.27084,-0.23077 -0.27084,-0.23077 -0.60223,-0.25357c0,-0.03138 0,-0.06276 0,-0.09509c-0.24088,-0.13004 -0.24088,-0.13004 -0.47545,-0.06339c0,-0.03138 0,-0.06276 0,-0.09509c-2.46896,-0.33748 -4.63136,2.46213 -2.50403,4.43751zm13.14811,-2.86061c-0.04724,0.10331 -0.0945,0.20661 -0.14177,0.30991c-0.02317,0.05066 -0.04634,0.10132 -0.07022,0.15352c-0.09688,0.21109 -0.19502,0.42159 -0.29318,0.63209c-0.51036,0.90524 -0.51036,0.90524 0.29913,0.77657c0.55851,-0.17481 1.11921,-0.3324 1.69775,-0.42394c0.35548,-0.08343 0.05183,-0.40404 -0.06934,-0.65176c-0.24993,-0.51424 -0.49134,-1.03218 -0.72964,-1.55189c-0.30399,-0.65998 -0.52347,0.38475 -0.69274,0.75552zm-16.92,1.75123c0.0317,0.06339 0.0317,0.06339 0.0317,0.06339l-0.0317,-0.06339zm0.44375,1.55313c0.01046,0.03138 0.02092,0.06276 0.0317,0.09509c0.11498,0.09024 0.96424,0.55932 0.64582,0.27932c-0.55759,-0.49924 -0.85762,-1.13662 -1.08957,-1.83245c-0.21299,0 0.00624,1.45804 0.41206,1.45804zm18.54246,-0.82411c0.0317,0.06339 0.0317,0.06339 0.0317,0.06339l-0.0317,-0.06339zm0.25357,0.50714c0.0317,0.06339 0.0317,0.06339 0.0317,0.06339l-0.0317,-0.06339zm0.22188,0.44375c0.0317,0.06339 0.0317,0.06339 0.0317,0.06339l-0.0317,-0.06339zm1.07768,2.25045c0.0317,0.06339 0.0317,0.06339 0.0317,0.06339l-0.0317,-0.06339zm-7.38529,0.69732c0.16376,0.02641 0.16376,0.02641 0.15848,-0.0317c-0.16376,-0.02641 -0.16376,-0.02641 -0.15848,0.0317z"/>
   <path stroke="null" id="svg_486" fill="#F7F5F8" d="m9.6757,14.48172c-0.19461,-0.07785 -0.35854,-0.19118 -0.53327,-0.3057c-0.24962,-0.16182 -0.50278,-0.31789 -0.75564,-0.47458c-0.44447,-0.28178 -0.44447,-0.28178 -0.21469,-0.49946c2.67632,-2.7894 -1.68563,-6.208 -4.36025,-3.82339c-1.34463,1.50518 -0.73504,3.80722 1.0341,4.62769c0.2339,0.11007 -1.82855,0.61119 -2.45846,0.36451c-1.86432,-1.18789 -2.42691,-6.16497 -0.35064,-6.16497c0,-0.02092 0,-0.04184 0,-0.06339c5.09454,-3.96786 12.86559,2.41926 7.63886,6.33931z"/>
   <path stroke="null" id="svg_487" fill="#FAF8FA" d="m17.70741,6.89352c0.16163,0.00282 0.3223,-0.00061 0.48388,-0.00466c0.65957,0.0041 0.96394,0.02878 1.15185,0.68302c0.04772,0.0925 0.09545,0.18501 0.14462,0.28032c0.04641,0.09054 0.09283,0.18109 0.14065,0.27437c0.22006,0.42884 0.22006,0.42884 0.44375,0.85581c0.1723,0.32563 0.34014,0.65356 0.50846,0.98126c0.32472,0.6322 0.65113,1.26351 0.98041,1.89334c0.10652,0.20437 0.21213,0.4092 0.31783,0.614c0.13184,0.25461 0.26569,0.50766 0.40413,0.75874c0.19318,0.35123 0.37537,0.70794 0.55782,1.06481c0.16367,0.31943 0.33281,0.6352 0.50625,0.9494c0.11606,0.21452 0.22419,0.43267 0.33207,0.65139c0.05898,0.11785 0.12148,0.23392 0.18473,0.34953c0.21523,0.39648 -0.70113,0.23529 -0.99069,0.23993c-0.12085,0.00248 -0.24169,0.00616 -0.36247,0.01105c-1.25225,0.05002 -1.25225,0.05002 -1.42425,-0.65115c-0.04094,-0.08507 -0.08188,-0.17014 -0.12406,-0.25778c-0.03882,-0.08359 -0.07763,-0.16719 -0.11762,-0.25332c-0.17216,-0.3686 -0.34675,-0.73575 -0.52497,-1.10145c-0.84468,-1.73596 -0.84468,-1.73596 -0.00869,-2.07124c0.59708,-0.24172 0.31532,-0.17335 -0.12602,-0.06431c-0.06279,0.01531 -0.12557,0.03061 -0.19026,0.04638c-1.60321,0.39911 -3.08612,1.03262 -4.56209,1.76565c-0.15487,0.07647 -0.8623,0.32881 -0.36899,0.08196c0.06615,-0.03077 0.1323,-0.06153 0.20046,-0.09323c0.34823,-0.12097 0.34823,-0.12097 0.49724,-0.39819c0.02092,-0.01046 0.04184,-0.02092 0.06339,-0.0317c-0.01046,-0.02092 -0.02092,-0.04184 -0.0317,-0.06339c0.04184,-0.02092 0.08368,-0.04184 0.12678,-0.06339c-0.18124,0.06125 -0.36205,0.12355 -0.5428,0.18622c-0.72403,0.24944 -1.45285,0.48303 -2.18305,0.7137c-0.12956,0.04167 -0.25828,0.08595 -0.38672,0.13097c-0.15278,0.04699 -0.56927,0.11188 0.00631,-0.07999c-0.20076,-0.04015 -0.30181,0.01006 -0.49328,0.07924c-0.10813,0.03902 -0.76297,0.19073 -0.25109,0.00384c0.10278,-0.03383 0.20564,-0.06745 0.30854,-0.10091c0.61178,-0.20391 1.20843,-0.43709 1.80526,-0.68082c4.2582,-1.73866 4.2582,-1.73866 6.45737,-1.91841c0.08876,-0.00946 -0.17793,-0.01779 -0.26719,-0.01771c-0.08687,-0.0007 -0.17373,-0.00139 -0.26323,-0.0021c-0.21867,0.0051 -0.4137,0.03141 -0.62824,0.06748c-0.47054,-0.04705 -0.49569,-0.3484 -0.64581,-0.75874c-0.05864,-0.12549 -0.11876,-0.25031 -0.18028,-0.37441c-0.20269,-0.42187 -0.40159,-0.8455 -0.60037,-1.26922c-0.06586,-0.13958 -0.13292,-0.2786 -0.20194,-0.41664c0,-0.03138 0,-0.06276 0,-0.09509c-0.09346,-0.01002 -0.09346,-0.01002 -0.12678,0.19018c-0.05705,0.1152 -0.11431,0.2303 -0.1724,0.34497c-0.09492,0.18964 -0.18665,0.38068 -0.2784,0.57187c-0.25935,0.53788 -0.52464,1.07271 -0.7913,1.60699c-0.04757,0.09579 -0.09513,0.19158 -0.1427,0.28738c-0.04488,0.08993 -0.08977,0.17986 -0.13601,0.27251c-0.0405,0.08129 -0.081,0.16259 -0.12272,0.24634c-0.14972,0.2825 -0.2733,0.31462 -0.57249,0.41682c-0.29514,0.10379 -0.58425,0.22305 -0.87438,0.33998c-0.09163,0.03674 -0.09163,0.03674 -0.1851,0.07423c-0.27947,0.11222 -0.55834,0.22554 -0.83612,0.34191c-0.5709,0.23002 -0.20022,-0.22503 -0.04457,-0.52312c0.04302,-0.08257 0.08605,-0.16515 0.13037,-0.25023c0.04197,-0.0802 0.08393,-0.16041 0.12716,-0.24305c0.06406,-0.12282 0.12811,-0.24565 0.19216,-0.36848c0.03056,-0.05851 0.06112,-0.11702 0.09261,-0.1773c0.34001,-0.65184 0.67711,-1.3052 1.01478,-1.95825c0.11865,-0.22939 0.2373,-0.45878 0.35597,-0.68816c0.08135,-0.1573 0.16265,-0.31463 0.24391,-0.47198c0.44341,-0.85831 0.44341,-0.85831 0.66798,-1.28049c0.04725,-0.14758 0.04725,-0.14758 0.09546,-0.29814c0.24749,-0.44283 0.76647,-0.35815 1.21659,-0.34852z"/>
   <path stroke="null" id="svg_488" fill="#3D0E6F" d="m6.1138,6.64674c0.15163,-0.00067 0.15163,-0.00067 0.30632,-0.00136c0.22131,0.00585 0.41018,0.02359 0.62477,0.0707c0.063,0.01091 0.12601,0.02182 0.19092,0.03306c3.20294,0.57716 5.88351,4.40497 3.32739,7.32053c-0.04837,0.05557 -0.09675,0.11113 -0.14659,0.16839c-0.13867,0.14858 -0.13867,0.14858 -0.32885,0.30706c0.7646,-0.00384 1.60527,-0.35178 2.32461,-0.59208c0.29591,-0.08384 0.29591,-0.08384 0.43298,0.05324c0.0523,0.01046 0.1046,0.02092 0.15848,0.0317c-0.21419,0.42839 -2.16346,0.69973 -2.60369,0.78548c-0.31655,0.07945 0.76185,-0.03911 0.94359,-0.08023c0.09912,-0.02206 0.19825,-0.04413 0.30037,-0.06686c0.17855,-0.04295 0.35625,-0.08972 0.5324,-0.14165c0.13857,-0.03797 0.61053,-0.13017 0.06661,0.07379c0.0523,0.02092 0.1046,0.04184 0.15848,0.06339c0,0.06339 0,0.06339 -0.22187,0.0317c0.14121,0.04707 0.14121,0.04707 0.28527,0.09509c0,0.02092 0,0.04184 0,0.06339c0.04184,0.01046 0.08368,0.02092 0.12679,0.0317c0,0.09509 0,0.09509 -0.06339,0.12679c0.01046,0.0523 0.02092,0.1046 0.0317,0.15848c-0.14858,0.06934 -0.14858,0.06934 -0.31696,0.12678c-0.04184,0.02092 -0.08368,0.04184 -0.12679,0.06339c-0.155,0.0775 -0.31227,0.12572 -0.47743,0.17829c-0.06247,0.02002 -0.12495,0.04004 -0.18931,0.06067c-0.15737,0.0463 -0.15737,0.0463 -0.25246,0.0463c-0.01046,0.02092 -0.02092,0.04184 -0.0317,0.06339c-0.41206,-0.09157 -0.41206,-0.09157 -0.41206,-0.41206c-0.20406,-0.06433 -0.20406,-0.06433 -0.31696,0.0317c-0.33323,-0.04166 -0.52949,-0.21897 -0.79241,-0.41206c-0.15809,-0.10625 -0.31655,-0.21193 -0.47545,-0.31697c-0.11375,-0.07649 -0.11375,-0.07649 -0.2298,-0.15452c-0.22725,-0.15028 -0.45595,-0.29732 -0.68692,-0.44177c-0.11442,-0.07182 -0.22828,-0.14456 -0.34173,-0.21791c-0.05933,-0.03792 -0.11866,-0.07583 -0.17978,-0.1149c-0.05451,-0.03518 -0.10901,-0.07036 -0.16517,-0.1066c-0.25644,-0.13503 -0.45339,0.02881 -0.69658,0.14622c-1.5956,0.74712 -4.98182,1.9547 -6.25016,0.00991c-0.17688,-0.25549 0.20265,0.4948 0.25753,0.59034c1.08077,1.52798 3.76992,2.01173 5.43992,1.17673c-0.33484,-0.23503 -0.67961,-0.45074 -1.04598,-0.63393c0,-0.48703 1.29942,0.38322 1.48974,0.50714c0.0937,0.05889 0.18747,0.11766 0.28131,0.17631c1.15184,0.72723 1.15184,0.72723 1.38934,0.93989c0.35771,0.18565 0.70646,0.15592 1.10367,0.15389c0.12617,0.00074 0.12617,0.00074 0.25488,0.0015c0.17719,0.00083 0.35439,0.00106 0.53158,0.00073c0.27318,-0.00049 0.54631,0.00071 0.81947,0.00223c0.17192,0.00059 0.34384,0.00109 0.51575,0.00148c0.0825,0.00023 0.16499,0.00045 0.24999,0.00068c0.07493,-0.00018 0.14986,-0.00036 0.22706,-0.00054c0.06664,-0.00006 0.13327,-0.00012 0.20192,-0.00019c0.16753,0.00277 0.16753,0.00277 0.03532,-0.07152c0.14699,-0.09799 0.28651,-0.07217 0.46158,-0.07317c0.11044,-0.00119 0.11044,-0.00119 0.22311,-0.00241c0.15634,-0.00111 0.31267,-0.0021 0.46901,-0.00297c0.11044,-0.00126 0.11044,-0.00126 0.22311,-0.00254c0.06795,-0.00042 0.1359,-0.00085 0.2059,-0.00129c0.35147,-0.02779 0.45588,-0.50369 0.59295,-0.78939c0.04192,-0.08623 0.04192,-0.08623 0.08469,-0.17421c0.02602,-0.05426 0.05205,-0.10852 0.07887,-0.16443c0.07325,-0.12699 0.13869,-0.19916 0.19649,-0.02575c-0.02092,0.02092 -0.04184,0.04184 -0.06339,0.06339c-0.01046,0.0523 -0.02092,0.1046 -0.0317,0.15848c-0.02746,0.05361 -0.05491,0.10722 -0.0832,0.16244c-0.09165,0.14236 -0.09165,0.14236 -0.04358,0.24961c-0.08174,0.17041 -0.16653,0.33937 -0.25357,0.50714c-0.04184,0.08368 -0.08368,0.16736 -0.12679,0.25357c-0.2195,0.0538 -0.37914,0.06888 -0.60223,0.0317c-0.07322,0 -0.14644,0 -0.22187,0c-0.22188,0 -0.22188,0 -0.22188,-0.06339c-0.29367,-0.03683 -0.29367,-0.03683 -0.34866,0.15848c-0.19018,0.0317 -0.19018,0.0317 -0.44375,0.0317c0,0.02092 0,0.04184 0,0.06339c-0.22187,0 -0.22187,0 -0.31696,-0.0317c-0.69538,-0.04014 -1.39269,-0.03667 -2.08898,-0.03583c-0.17223,0.00017 -0.34446,0 -0.51669,-0.0002c-0.10958,0.00002 -0.21915,0.00006 -0.32873,0.00012c-0.14778,0.00005 -0.14778,0.00005 -0.29855,0.00011c-0.20068,-0.01223 -0.20068,-0.01223 -0.28536,0.0358c-0.22188,-0.0317 -0.22188,-0.0317 -0.25357,-0.12679c-0.10433,-0.06554 -0.21006,-0.1289 -0.31697,-0.19018c-0.03138,-0.02092 -0.06276,-0.04184 -0.09509,-0.06339c-0.22135,0.0246 -0.42189,0.05997 -0.63789,0.10896c-0.72155,0.15307 -1.41395,0.16191 -2.14558,0.09199c-0.15941,-0.01885 -0.15941,-0.01885 -0.29109,0.02092c0,-0.03138 0,-0.06276 0,-0.09509c-0.09414,-0.01046 -0.18828,-0.02092 -0.28527,-0.0317c-0.11738,-0.02907 -0.23427,-0.06022 -0.35064,-0.09311c-0.19974,-0.0561 -0.39893,-0.11013 -0.60026,-0.16046c-0.14791,-0.07396 -0.29583,-0.14792 -0.44375,-0.22188c-0.01046,0.02092 -0.02092,0.04184 -0.0317,0.06339c0,-0.03138 0,-0.06276 0,-0.09509c-0.11577,-0.03331 -0.23213,-0.06455 -0.34866,-0.09509c-0.08499,-0.03465 -0.16997,-0.0693 -0.25754,-0.105c-0.21147,-0.12436 -0.21147,-0.12436 -0.24961,-0.02179c0,-0.03138 0,-0.06276 0,-0.09509c-0.06276,-0.02092 -0.12552,-0.04184 -0.19018,-0.06339c-1.31382,-0.73213 -2.20364,-1.9402 -1.8701,-3.48662c-0.02092,-0.01046 -0.04184,-0.02092 -0.06339,-0.0317c0.06339,-0.09509 0.06339,-0.09509 0.12679,-0.09509c0,-0.0523 0,-0.1046 0,-0.15848c0.01046,-0.01046 0.02092,-0.02092 0.0317,-0.0317c-0.01046,-0.08368 -0.02092,-0.16736 -0.0317,-0.25357c-0.0414,-1.10962 0.177,-1.91835 0.72902,-2.88438c0.01569,-0.04707 0.01569,-0.04707 0.0317,-0.09509c0.04184,-0.02092 0.08368,-0.04184 0.12678,-0.06339c0.0523,-0.07322 0.1046,-0.14644 0.15848,-0.22187c0.12678,-0.12679 0.12678,-0.12679 0.19018,-0.12679c0.01046,-0.03138 0.02092,-0.06276 0.0317,-0.09509c0.08444,-0.07405 0.16896,-0.14801 0.25357,-0.22187c0,-0.02092 0,-0.04184 0,-0.06339c0.06276,-0.01569 0.06276,-0.01569 0.12679,-0.0317c0.05491,-0.04184 0.10983,-0.08368 0.16641,-0.12678c1.13925,-0.84389 2.58446,-1.11251 3.97395,-1.11532zm-3.85509,1.3372c-0.07322,0.0523 -0.14644,0.1046 -0.22187,0.15848c0,0.02092 0,0.04184 0,0.06339c-0.04184,0.02092 -0.08368,0.04184 -0.12679,0.06339c-2.78161,2.56035 -0.97892,7.23615 3.13795,5.86386c-0.08034,-0.08724 -0.08034,-0.08724 -0.29517,-0.17631c-1.64055,-0.83798 -2.24996,-2.96774 -1.03608,-4.45138c0.04184,-0.0523 0.08368,-0.1046 0.12679,-0.15848c2.78834,-2.37009 6.93085,1.1144 4.21563,3.96207c-0.12484,0.24968 0.36451,0.41954 0.56657,0.5428c0.29219,0.17864 0.57659,0.36668 0.8589,0.56051c0.65618,0.35705 3.81197,-4.25574 -0.4409,-6.80076c-2.03222,-1.07125 -4.91537,-1.07902 -6.78504,0.37244zm1.90179,5.22992c0.0523,0.0523 0.1046,0.1046 0.15848,0.15848c0.55772,0.42839 1.06102,0.68807 1.7235,0.39621c0.07886,-0.03469 0.15771,-0.06938 0.23896,-0.10512c0.52043,-0.23319 0.52043,-0.23319 1.01701,-0.51296c0.15848,0.0317 0.15848,0.0317 0.31697,0.12679c1.28957,-0.25792 1.31005,-2.57456 0.69732,-3.39153c-0.03334,-0.04446 -0.06668,-0.08891 -0.10103,-0.13471c-0.21041,-0.33317 -0.21041,-0.33317 -0.5012,-0.30904c0.01046,-0.0523 0.02092,-0.1046 0.0317,-0.15848c-0.27084,-0.23077 -0.27084,-0.23077 -0.60223,-0.25357c0,-0.03138 0,-0.06276 0,-0.09509c-0.24088,-0.13004 -0.24088,-0.13004 -0.47545,-0.06339c0,-0.03138 0,-0.06276 0,-0.09509c-2.46896,-0.33748 -4.63136,2.46213 -2.50403,4.43751zm-3.77188,-1.10938c0.0317,0.06339 0.0317,0.06339 0.0317,0.06339l-0.0317,-0.06339zm0.44375,1.55313c0.01046,0.03138 0.02092,0.06276 0.0317,0.09509c0.11498,0.09024 0.96424,0.55932 0.64582,0.27932c-0.55759,-0.49924 -0.85762,-1.13662 -1.08957,-1.83245c-0.21299,0 0.00624,1.45804 0.41206,1.45804zm12.7103,3.07456c0.16376,0.02641 0.16376,0.02641 0.15848,-0.0317c-0.16376,-0.02641 -0.16376,-0.02641 -0.15848,0.0317z"/>
   <path stroke="null" id="svg_489" fill="#8D25D0" d="m7.84523,13.71704c0.06811,0.04319 0.13622,0.08638 0.2064,0.13087c0.06525,0.0418 0.1305,0.08359 0.19773,0.12666c0.07581,0.04848 0.07581,0.04848 0.15316,0.09794c0.28915,0.18609 0.57542,0.37638 0.86113,0.56769c0.06145,0.04053 0.1229,0.08106 0.18622,0.12283c0.39785,0.26794 0.78668,0.54895 1.17673,0.82807c0.07322,0.0523 0.14644,0.1046 0.22188,0.15848c0.14598,0.10427 0.29191,0.20861 0.43781,0.31301c0.12494,0.08909 0.25017,0.1778 0.37664,0.26472c0.87756,0.60576 -0.58689,0.35235 -1.05343,0.35013c-0.15949,-0.00048 -0.31899,-0.00029 -0.47848,0.00059c-0.2298,0.00126 -0.45952,0.00044 -0.68932,-0.00082c-0.10641,0.00112 -0.10641,0.00112 -0.21497,0.00225c-0.44152,-0.00536 -0.68716,-0.07081 -1.04076,-0.35933c-0.47256,-0.31095 -0.94803,-0.61719 -1.42635,-0.9192c-0.05773,-0.03681 -0.11547,-0.07363 -0.17495,-0.11155c-0.74746,-0.47795 -0.74746,-0.47795 -1.31479,-0.42729c0.09414,0.03138 0.09414,0.03138 0.19018,0.06339c2.36969,1.3165 -2.50781,0.87582 -3.42322,0.44375c-0.38615,-0.22115 -1.78824,-1.20971 -1.48974,-1.8067c0.04609,0.07649 0.04609,0.07649 0.09311,0.15452c1.31915,1.98888 4.79893,0.66636 6.45222,-0.14263c0.34758,-0.15641 0.44659,-0.05197 0.75279,0.14263z"/>
   <path stroke="null" id="svg_490" fill="#EAD0F4" d="m7.84523,13.71704c0.06811,0.04319 0.13622,0.08638 0.2064,0.13087c0.06525,0.0418 0.1305,0.08359 0.19773,0.12666c0.07581,0.04848 0.07581,0.04848 0.15316,0.09794c0.28915,0.18609 0.57542,0.37638 0.86113,0.56769c0.06145,0.04053 0.1229,0.08106 0.18622,0.12283c0.39785,0.26794 0.78668,0.54895 1.17673,0.82807c0.07322,0.0523 0.14644,0.1046 0.22188,0.15848c0.14598,0.10427 0.29191,0.20861 0.43781,0.31301c0.12494,0.08909 0.25017,0.1778 0.37664,0.26472c0.87756,0.60576 -0.58689,0.35235 -1.05343,0.35013c-0.15949,-0.00048 -0.31899,-0.00029 -0.47848,0.00059c-0.2298,0.00126 -0.45952,0.00044 -0.68932,-0.00082c-0.10641,0.00112 -0.10641,0.00112 -0.21497,0.00225c-0.44152,-0.00536 -0.68716,-0.07081 -1.04076,-0.35933c-0.36144,-0.23783 -0.72441,-0.47317 -1.08957,-0.70525c-0.05647,-0.03592 -0.11293,-0.07183 -0.17111,-0.10883c-0.1103,-0.06998 -0.22074,-0.13973 -0.33133,-0.20925c-0.34194,-0.21686 -0.46886,-0.38575 -0.02253,-0.10388c0.06002,0.03779 0.12004,0.07559 0.18188,0.11453c0.06484,0.04131 0.12968,0.08261 0.19649,0.12518c0.06648,0.04229 0.13296,0.08458 0.20145,0.12815c0.19726,0.12592 0.39419,0.25232 0.59097,0.37899c0.05168,0.03326 0.10337,0.06652 0.15662,0.10079c0.37442,0.24158 0.37442,0.24158 0.54858,0.38219c0.27895,0.15547 0.52736,0.15804 0.83864,0.1574c0.05843,0.00054 0.11686,0.00109 0.17706,0.00165c0.12235,0.00072 0.2447,0.00079 0.36705,0.00024c0.19089,-0.00041 0.38153,0.0026 0.57239,0.00579c0.65624,0.0044 1.11543,-0.00417 0.31913,-0.42617c-0.09525,-0.06846 -0.19037,-0.13708 -0.28527,-0.20603c-0.18331,-0.13278 -0.36743,-0.2642 -0.55271,-0.39422c-0.1908,-0.13419 -0.37919,-0.27116 -0.56658,-0.41007c-0.26138,-0.19348 -0.52655,-0.38086 -0.7934,-0.5667c-0.40286,-0.28086 -0.80069,-0.56894 -1.19357,-0.8636c-0.278,0.0562 -0.52162,0.1905 -0.77458,0.31498c-1.11634,0.52863 -2.28702,0.90043 -3.52822,0.90137c-0.05369,0.00078 -0.10738,0.00155 -0.16269,0.00235c-0.50132,0.00115 -2.77232,-0.46767 -2.31756,-1.37719c0.04609,0.07649 0.04609,0.07649 0.09311,0.15452c1.31915,1.98888 4.79893,0.66636 6.45222,-0.14263c0.34758,-0.15641 0.44659,-0.05197 0.75279,0.14263z"/>
   <path stroke="null" id="svg_491" fill="#C068ED" d="m9.75494,15.42667c0.07428,0.05583 0.07428,0.05583 0.15006,0.11279c0.04985,0.03796 0.0997,0.07591 0.15105,0.11502c0.09221,0.06768 0.18466,0.13504 0.27735,0.20207c0.04617,0.03342 0.09234,0.06685 0.13991,0.10128c0.23666,0.16784 0.47733,0.32969 0.71812,0.49154c0.33555,0.23457 -0.76959,0.1424 -0.97895,0.14411c-0.1259,0.00132 -0.25179,0.00326 -0.37766,0.00585c-0.18154,0.00368 -0.36299,0.00525 -0.54456,0.00641c-0.08368,0.00231 -0.08368,0.00231 -0.16904,0.00466c-0.54888,-0.00081 -0.84521,-0.28165 -1.25222,-0.60726c-0.07322,-0.0523 -0.14644,-0.1046 -0.22187,-0.15848c0,-0.06339 0,-0.06339 0.25357,-0.09509c0.02092,-0.02092 0.04184,-0.04184 0.06339,-0.06339c0.09509,-0.06339 0.09509,-0.06339 0.22188,-0.06339c0.04184,-0.04184 0.08368,-0.08368 0.12678,-0.12679c0.08368,-0.03138 0.16736,-0.06276 0.25357,-0.09509c0.0523,-0.02092 0.1046,-0.04184 0.15848,-0.06339c0.02092,0 0.04184,0 0.06339,0c0.0523,-0.01046 0.1046,-0.02092 0.15848,-0.0317c0.06276,0.01046 0.12552,0.02092 0.19018,0.0317c0.06838,-0.34192 0.43636,-0.05001 0.61808,0.08915z"/>
   <path stroke="null" id="svg_492" fill="#E1D7E7" d="m14.75346,15.27809c-0.04943,0.09831 -0.04943,0.09831 -0.09986,0.1986c-0.05274,0.1037 -0.05274,0.1037 -0.10654,0.20949c-0.03479,0.06913 -0.06958,0.13826 -0.10543,0.20949c-0.33513,0.66406 -0.4707,0.55928 -1.21988,0.56311c-0.0872,0.00118 -0.17439,0.00237 -0.26422,0.00359c-0.12527,0.00055 -0.12527,0.00055 -0.25308,0.00111c-0.11547,0.00094 -0.11547,0.00094 -0.23328,0.00191c-0.49865,-0.04697 -0.44971,-0.21327 -0.04381,-0.34338c0.79309,-0.27173 1.56148,-0.67416 2.27385,-1.11532c0.33498,-0.19293 0.13569,0.10623 0.05225,0.2714z"/>
   <path stroke="null" id="svg_493" fill="#B295CD" d="m7.42525,16.32012c-0.91054,0.19768 -2.30767,0.39504 -3.13795,-0.15848c0.19116,-0.00228 0.38141,-0.00098 0.57252,0.00198c0.57734,0.00419 1.09306,-0.04588 1.65614,-0.18424c0.18696,-0.04342 1.23977,0.12042 0.90929,0.34074z"/>
   <path stroke="null" id="svg_494" fill="#8B25CF" d="m18.8776,12.67105c-0.31827,0.13555 -0.63347,0.27561 -0.94694,0.42196c-0.07522,0.0351 -0.15044,0.07019 -0.22794,0.10635c-0.34272,0.16351 -0.68135,0.3349 -1.01986,0.5069c-0.09451,0.04784 -0.18902,0.09567 -0.28353,0.1435c-0.04858,0.02482 -0.09716,0.04965 -0.14721,0.07522c-0.1059,0.05342 -0.64509,0.25574 -0.29617,0.07782c0.11737,-0.05583 0.23491,-0.1113 0.35262,-0.1664c0.20385,-0.144 0.04462,-0.21398 -0.13508,-0.27388c0.11583,-0.05368 0.23211,-0.1064 0.34866,-0.15848c0.03138,-0.03138 0.06276,-0.06276 0.09509,-0.09509c0.73798,-0.37493 1.61285,-0.79553 2.44063,-0.8875c0.41191,-0.1373 -0.02697,0.1858 -0.18027,0.24961z"/>
   <path stroke="null" id="svg_495" fill="#983FCE" d="m12.56008,14.41833c-0.03138,0.02092 -0.06276,0.04184 -0.09509,0.06339c-1.91755,0.61286 -1.91755,0.61286 -2.31385,0.34866c0.11128,-0.02746 0.22396,-0.04916 0.33678,-0.06934c0.38013,-0.07162 0.75113,-0.16329 1.12424,-0.26496c0.18721,-0.04606 0.18721,-0.04606 0.47248,-0.07776c0.14317,-0.04903 0.14317,-0.04903 0.28923,-0.09905c0.27627,-0.08949 0.78235,-0.1245 0.18621,0.09905z"/>
   <path stroke="null" id="svg_496" fill="#D495F0" d="m14.1766,13.7844c0.01569,0.03138 0.01569,0.03138 0.0317,0.06339c-0.12596,0.05477 -0.25283,0.10747 -0.38036,0.15848c-0.03138,0.02092 -0.06276,0.04184 -0.09509,0.06339c-0.17832,0.06195 -0.3574,0.1217 -0.53686,0.18028c-0.14654,0.04823 -0.14654,0.04823 -0.29604,0.09744c-0.12284,0.03561 -0.73852,0.16157 -0.0863,-0.05584c-0.20076,-0.04015 -0.30181,0.01006 -0.49328,0.07924c-0.11741,0.04237 -0.77755,0.19689 -0.23438,-0.00285c0.10709,-0.03564 0.21428,-0.07099 0.32155,-0.10611c0.43991,-0.14661 0.87189,-0.30267 1.29943,-0.48288c0.15266,-0.05795 0.15266,-0.05795 0.37454,-0.08964c0.1167,-0.05835 0.18596,-0.04122 0.09509,0.09509z"/>
   <path stroke="null" id="svg_497" fill="#9D7CBB" d="m15.85652,7.95224c-0.02092,0.04184 -0.04184,0.08368 -0.06339,0.12679c-0.0317,-0.15848 -0.0317,-0.15848 0.06339,-0.12679z"/>
   <path stroke="null" id="svg_498" fill="#8557A9" d="m1.14933,13.6893c-0.0317,0.12679 -0.0317,0.12679 -0.09509,0.12679c0.0317,-0.15848 0.0317,-0.15848 0.09509,-0.12679z"/>
   <path stroke="null" id="svg_499" fill="#8E6AAE" d="m23.78065,16.73217c-0.0317,0.06339 -0.0317,0.06339 -0.15848,0.06339c0,-0.06339 0,-0.06339 0.15848,-0.06339z"/>
   <path stroke="null" id="svg_500" fill="#8454AA" d="m5.80872,13.81609c-0.12678,0.0317 -0.12678,0.0317 -0.12678,-0.0317c0.09509,-0.0317 0.09509,-0.0317 0.12678,0.0317z"/>
   <path stroke="null" id="svg_501" fill="#A585C3" d="m8.50293,10.32948c-0.03138,0 -0.06276,0 -0.09509,0c0,-0.09509 0,-0.09509 0.09509,0z"/>
   <path stroke="null" id="svg_502" fill="#9C7BB8" d="m16.17348,7.44509c-0.03138,0.03138 -0.06276,0.06276 -0.09509,0.09509c0.0317,-0.12678 0.0317,-0.12678 0.09509,-0.09509z"/>
   <path stroke="null" id="svg_503" fill="#906BB0" d="m21.02305,16.28842c-0.09509,-0.0317 -0.09509,-0.0317 -0.09509,-0.09509c0.06339,0 0.06339,0 0.09509,0.09509z"/>
   <path stroke="null" id="svg_504" fill="#A07DBE" d="m8.47123,12.23127c-0.02092,0.04184 -0.04184,0.08368 -0.06339,0.12678c0,-0.12678 0,-0.12678 0.06339,-0.12678z"/>
   <path stroke="null" id="svg_505" fill="#A383C0" d="m8.24935,9.82233c-0.03138,0.02092 -0.06276,0.04184 -0.09509,0.06339c0,-0.09509 0,-0.09509 0.09509,-0.06339z"/>
   <path stroke="null" id="svg_506" fill="#9E7EBD" d="m15.60295,8.49108c-0.06339,0.06339 -0.06339,0.06339 -0.06339,-0.0317c0.0317,-0.0317 0.0317,-0.0317 0.06339,0.0317z"/>
   <path stroke="null" id="svg_507" fill="#9A76B9" d="m14.62036,10.32948c-0.02092,0 -0.04184,0 -0.06339,0c0.0317,-0.09509 0.0317,-0.09509 0.06339,0z"/>
   <path stroke="null" id="svg_508" fill="#8F6DAC" d="m0.35692,9.98081c0,0.06339 0,0.06339 -0.06339,0.06339c0,-0.09509 0,-0.09509 0.06339,-0.06339z"/>
   <path stroke="null" id="svg_509" fill="#9973B8" d="m11.35561,9.94912c-0.01046,0.04184 -0.02092,0.08368 -0.0317,0.12679c-0.0317,-0.12679 -0.0317,-0.12679 0.0317,-0.12679z"/>
   <path stroke="null" id="svg_510" fill="#9C78BA" d="m14.84223,9.75894c-0.03138,0.01046 -0.06276,0.02092 -0.09509,0.0317c0.0317,-0.09509 0.0317,-0.09509 0.09509,-0.0317z"/>
   <path stroke="null" id="svg_511" fill="#A381C2" d="m4.73104,9.12501c-0.04184,0.01046 -0.08368,0.02092 -0.12679,0.0317c0.0317,-0.06339 0.0317,-0.06339 0.12679,-0.0317z"/>
   <path stroke="null" id="svg_512" fill="#A784C1" d="m6.41096,8.77635c-0.0317,0.09509 -0.0317,0.09509 -0.0317,0.0317c-0.06339,-0.0317 -0.06339,-0.0317 0.0317,-0.0317z"/>
   <path stroke="null" id="svg_513" fill="#9A75B7" d="m22.54449,16.73217c0.12678,0.0317 0.12678,0.0317 0.12678,0.0317l-0.12678,-0.0317z"/>
   <path stroke="null" id="svg_514" fill="#7F51A4" d="m0.48371,14.19645c-0.03138,0 -0.06276,0 -0.09509,0c0,-0.0317 0,-0.0317 0.09509,0z"/>
   <path stroke="null" id="svg_515" fill="#8151A7" d="m12.81365,13.59421c-0.03138,0 -0.06276,0 -0.09509,0c0,-0.06339 0,-0.06339 0.09509,0z"/>
   <path stroke="null" id="svg_516" fill="#8458AB" d="m0.92746,13.37234c-0.01046,0.02092 -0.02092,0.04184 -0.0317,0.06339c-0.06339,-0.06339 -0.06339,-0.06339 0.0317,-0.06339z"/>
   <path stroke="null" id="svg_517" fill="#865CA8" d="m0.64219,12.89689c-0.03138,0.01569 -0.03138,0.01569 -0.06339,0.0317c0,-0.09509 0,-0.09509 0.06339,-0.0317z"/>
   <path stroke="null" id="svg_518" fill="#9E78BC" d="m8.21766,12.48484c0,0.06339 0,0.06339 -0.06339,0.06339c0,-0.06339 0,-0.06339 0.06339,-0.06339z"/>
   <path stroke="null" id="svg_519" fill="#A688C3" d="m8.12257,9.69554c-0.03138,-0.01046 -0.06276,-0.02092 -0.09509,-0.0317c0.0317,-0.0317 0.0317,-0.0317 0.09509,0.0317z"/>
   <path stroke="null" id="svg_520" fill="#AA8AC6" d="m7.99579,9.53706c-0.03138,0 -0.06276,0 -0.09509,0c0,-0.0317 0,-0.0317 0.09509,0z"/>
   <path stroke="null" id="svg_521" fill="#9D7ABA" d="m15.03241,9.1884c0,0.09509 0,0.09509 0,0.09509l0,-0.09509z"/>
   <path stroke="null" id="svg_522" fill="#9976B5" d="m10.62659,8.55447c-0.01046,0.02092 -0.02092,0.04184 -0.0317,0.06339c-0.0317,-0.09509 -0.0317,-0.09509 0.0317,-0.06339z"/>
   <path stroke="null" id="svg_523" fill="#9777B9" d="m2.92434,7.28661c-0.03138,-0.01046 -0.06276,-0.02092 -0.09509,-0.0317c0.0317,-0.0317 0.0317,-0.0317 0.09509,0.0317z"/>
   <path stroke="null" id="svg_524" fill="#9C7BB6" d="m19.31144,6.84286c-0.02092,0 -0.04184,0 -0.06339,0c0,-0.09509 0,-0.09509 0.06339,0z"/>
   <path stroke="null" id="svg_525" fill="#9F7EBB" d="m4.31899,6.74777c0.12679,0.0317 0.12679,0.0317 0.12679,0.0317l-0.12679,-0.0317z"/>
   <path stroke="null" id="svg_526" fill="#9D7EB6" d="m19.18465,6.74777c-0.03138,-0.01046 -0.06276,-0.02092 -0.09509,-0.0317c0.06339,-0.0317 0.06339,-0.0317 0.09509,0.0317z"/>
   <path stroke="null" id="svg_527" fill="#A688C0" d="m17.63153,6.74777c-0.03138,0 -0.06276,0 -0.09509,0c0,-0.06339 0,-0.06339 0.09509,0z"/>
   <path stroke="null" id="svg_528" fill="#946FB1" d="m23.43199,16.79556c-0.02092,0 -0.04184,0 -0.06339,0c0,-0.06339 0,-0.06339 0.06339,0z"/>
   <path stroke="null" id="svg_529" fill="#64378A" d="m4.00202,16.4786c-0.01046,0.02092 -0.02092,0.04184 -0.0317,0.06339c-0.0317,-0.06339 -0.0317,-0.06339 0.0317,-0.06339z"/>
   <path stroke="null" id="svg_530" fill="#8963A7" d="m24.09762,15.93976c-0.03138,0.01569 -0.03138,0.01569 -0.06339,0.0317c0,-0.06339 0,-0.06339 0.06339,-0.0317z"/>
   <path stroke="null" id="svg_531" fill="#8D68AD" d="m23.49538,14.79868c-0.01046,0.02092 -0.02092,0.04184 -0.0317,0.06339c-0.0317,-0.06339 -0.0317,-0.06339 0.0317,-0.06339z"/>
   <path stroke="null" id="svg_532" fill="#75469B" d="m11.70427,14.10136c0.09509,0.0317 0.09509,0.0317 0.09509,0.0317l-0.09509,-0.0317z"/>
   <path stroke="null" id="svg_533" fill="#8759AC" d="m1.02255,13.7527c-0.01046,0.02092 -0.02092,0.04184 -0.0317,0.06339c-0.0317,-0.06339 -0.0317,-0.06339 0.0317,-0.06339z"/>
   <path stroke="null" id="svg_534" fill="#885AAB" d="m7.26676,13.08707c-0.02092,-0.01046 -0.04184,-0.02092 -0.06339,-0.0317c0.0317,-0.0317 0.0317,-0.0317 0.06339,0.0317z"/>
   <path stroke="null" id="svg_535" fill="#946FB5" d="m21.5302,11.0268c-0.03138,0.01569 -0.03138,0.01569 -0.06339,0.0317c0,-0.06339 0,-0.06339 0.06339,-0.0317z"/>
   <path stroke="null" id="svg_536" fill="#9573B4" d="m0.86407,9.06161c-0.02092,0 -0.04184,0 -0.06339,0c0,-0.06339 0,-0.06339 0.06339,0z"/>
   <path stroke="null" id="svg_537" fill="#9F7DBC" d="m15.31768,8.77635c-0.02092,0 -0.04184,0 -0.06339,0c0,-0.06339 0,-0.06339 0.06339,0z"/>
   <path stroke="null" id="svg_538" fill="#A483BA" d="m18.83599,6.71607c0.09509,0.0317 0.09509,0.0317 0.09509,0.0317l-0.09509,-0.0317z"/>
   <path stroke="null" id="svg_539" fill="#A685BF" d="m17.28286,6.71607c0.09509,0.0317 0.09509,0.0317 0.09509,0.0317l-0.09509,-0.0317z"/>
   <path stroke="null" id="svg_540" fill="#A284BC" d="m17.02929,6.71607c0.09509,0.0317 0.09509,0.0317 0.09509,0.0317l-0.09509,-0.0317z"/>
   <path stroke="null" id="svg_541" fill="#A082BE" d="m4.66765,6.68438c0.09509,0.0317 0.09509,0.0317 0.09509,0.0317l-0.09509,-0.0317z"/>
   <path stroke="null" id="svg_542" fill="#734D92" d="m12.94044,16.82726c0.06339,0.0317 0.06339,0.0317 0.06339,0.0317l-0.06339,-0.0317z"/>
   <path stroke="null" id="svg_543" fill="#734C90" d="m13.00383,16.79556c0.06339,0.0317 0.06339,0.0317 0.06339,0.0317l-0.06339,-0.0317z"/>
   <path stroke="null" id="svg_544" fill="#79529B" d="m13.06723,16.73217c0.06339,0.0317 0.06339,0.0317 0.06339,0.0317l-0.06339,-0.0317z"/>
   <path stroke="null" id="svg_545" fill="#795099" d="m12.97214,16.73217c0.06339,0.0317 0.06339,0.0317 0.06339,0.0317l-0.06339,-0.0317z"/>
   <path stroke="null" id="svg_546" fill="#78489C" d="m8.15426,16.70047c0.06339,0.0317 0.06339,0.0317 0.06339,0.0317l-0.06339,-0.0317z"/>
   <path stroke="null" id="svg_547" fill="#784A9D" d="m8.09087,16.66878c0.06339,0.0317 0.06339,0.0317 0.06339,0.0317l-0.06339,-0.0317z"/>
   <path stroke="null" id="svg_548" fill="#653986" d="m4.50917,16.63708c0.06339,0.0317 0.06339,0.0317 0.06339,0.0317l-0.06339,-0.0317z"/>
   <path stroke="null" id="svg_549" fill="#613886" d="m3.65336,16.38351c0.06339,0.0317 0.06339,0.0317 0.06339,0.0317l-0.06339,-0.0317z"/>
   <path stroke="null" id="svg_550" fill="#9C78BA" d="m20.48421,15.24243c0.06339,0.0317 0.06339,0.0317 0.06339,0.0317l-0.06339,-0.0317z"/>
   <path stroke="null" id="svg_551" fill="#6A3E90" d="m11.22883,14.25984c0.06339,0.0317 0.06339,0.0317 0.06339,0.0317l-0.06339,-0.0317z"/>
   <path stroke="null" id="svg_552" fill="#9975BB" d="m19.81858,13.97457c0.06339,0.0317 0.06339,0.0317 0.06339,0.0317l-0.06339,-0.0317z"/>
   <path stroke="null" id="svg_553" fill="#8456AA" d="m1.05425,13.84779c0.06339,0.0317 0.06339,0.0317 0.06339,0.0317l-0.06339,-0.0317z"/>
   <path stroke="null" id="svg_554" fill="#7C4EA0" d="m12.68687,13.7844c0.06339,0.0317 0.06339,0.0317 0.06339,0.0317l-0.06339,-0.0317z"/>
   <path stroke="null" id="svg_555" fill="#7A46A6" d="m17.28286,13.721c0.06339,0.0317 0.06339,0.0317 0.06339,0.0317l-0.06339,-0.0317z"/>
   <path stroke="null" id="svg_556" fill="#9D76B9" d="m19.6601,13.53082c0.06339,0.0317 0.06339,0.0317 0.06339,0.0317l-0.06339,-0.0317z"/>
   <path stroke="null" id="svg_557" fill="#8957AC" d="m6.12569,13.49913c0.06339,0.0317 0.06339,0.0317 0.06339,0.0317l-0.06339,-0.0317z"/>
   <path stroke="null" id="svg_558" fill="#8257A6" d="m0.5471,12.96029c0.06339,0.0317 0.06339,0.0317 0.06339,0.0317l-0.06339,-0.0317z"/>
   <path stroke="null" id="svg_559" fill="#835EA7" d="m0.61049,12.92859c0.06339,0.0317 0.06339,0.0317 0.06339,0.0317l-0.06339,-0.0317z"/>
   <path stroke="null" id="svg_560" fill="#9E7CBE" d="m8.21766,12.64332c0.06339,0.0317 0.06339,0.0317 0.06339,0.0317l-0.06339,-0.0317z"/>
   <path stroke="null" id="svg_561" fill="#A380C1" d="m8.47123,12.00939c0.06339,0.0317 0.06339,0.0317 0.06339,0.0317l-0.06339,-0.0317z"/>
   <path stroke="null" id="svg_562" fill="#956FB5" d="m14.04982,11.21698c0.06339,0.0317 0.06339,0.0317 0.06339,0.0317l-0.06339,-0.0317z"/>
   <path stroke="null" id="svg_563" fill="#9C75BA" d="m14.52527,10.20269c0.06339,0.0317 0.06339,0.0317 0.06339,0.0317l-0.06339,-0.0317z"/>
   <path stroke="null" id="svg_564" fill="#9F7FC0" d="m8.15426,9.91742c0.06339,0.0317 0.06339,0.0317 0.06339,0.0317l-0.06339,-0.0317z"/>
   <path stroke="null" id="svg_565" fill="#9A72B8" d="m11.10204,9.1884c0.06339,0.0317 0.06339,0.0317 0.06339,0.0317l-0.06339,-0.0317z"/>
   <path stroke="null" id="svg_566" fill="#9B77B7" d="m20.45251,9.12501c0.06339,0.0317 0.06339,0.0317 0.06339,0.0317l-0.06339,-0.0317z"/>
   <path stroke="null" id="svg_567" fill="#A483BF" d="m7.29846,9.06161c0.06339,0.0317 0.06339,0.0317 0.06339,0.0317l-0.06339,-0.0317z"/>
   <path stroke="null" id="svg_568" fill="#9F7EBA" d="m15.25428,8.99822c0.06339,0.0317 0.06339,0.0317 0.06339,0.0317l-0.06339,-0.0317z"/>
   <path stroke="null" id="svg_569" fill="#A786C4" d="m6.82301,8.87144c0.06339,0.0317 0.06339,0.0317 0.06339,0.0317l-0.06339,-0.0317z"/>
   <path stroke="null" id="svg_570" fill="#9E7CBA" d="m15.31768,8.71295c0.06339,0.0317 0.06339,0.0317 0.06339,0.0317l-0.06339,-0.0317z"/>
   <path stroke="null" id="svg_571" fill="#9C77B6" d="m9.01007,7.28661c0.06339,0.0317 0.06339,0.0317 0.06339,0.0317l-0.06339,-0.0317z"/>
   <path stroke="null" id="svg_572" fill="#9578B4" d="m8.7248,7.15982c0.06339,0.0317 0.06339,0.0317 0.06339,0.0317l-0.06339,-0.0317z"/>
   <path stroke="null" id="svg_573" fill="#9877B6" d="m3.74845,6.90625c0.06339,0.0317 0.06339,0.0317 0.06339,0.0317l-0.06339,-0.0317z"/>
   <path stroke="null" id="svg_574" fill="#9977B7" d="m3.3364,6.90625c0.06339,0.0317 0.06339,0.0317 0.06339,0.0317l-0.06339,-0.0317z"/>
   <path stroke="null" id="svg_575" fill="#A586BD" d="m18.55073,6.71607c0.06339,0.0317 0.06339,0.0317 0.06339,0.0317l-0.06339,-0.0317z"/>
   <path stroke="null" id="svg_576" fill="#A182BE" d="m4.60426,6.71607c0.06339,0.0317 0.06339,0.0317 0.06339,0.0317l-0.06339,-0.0317z"/>
   <path stroke="null" id="svg_577" fill="#997CBA" d="m6.9181,6.65268c0.06339,0.0317 0.06339,0.0317 0.06339,0.0317l-0.06339,-0.0317z"/>
   <path stroke="null" id="svg_578" fill="#A17DBD" d="m4.95292,6.65268c0.06339,0.0317 0.06339,0.0317 0.06339,0.0317l-0.06339,-0.0317z"/>
   <path stroke="null" id="svg_579" fill="#A17FBE" d="m4.79444,6.65268c0.06339,0.0317 0.06339,0.0317 0.06339,0.0317l-0.06339,-0.0317z"/>
  </g>
 </g>
</svg>