<svg xmlns="http://www.w3.org/2000/svg" width="24" height="24" viewBox="0 0 24 24">
  <path d="m12.77831,22.71782l-0.68148,0.31623l-0.26589,-1.55568l-0.51135,-1.23924l-4.05444,-4.24632l-0.89089,-1.64121l-0.31932,-1.31707l0,-1.47914l0.13447,-0.8068l0.67234,-1.47914l1.20282,-1.17622l8.815,-7.22799l0.4034,-0.13447l0.67234,0l0.26893,0.13447l0.33617,0.47064l-0.26893,1.61361l-0.4034,2.01701l-6.92507,7.32847l-0.26893,0l-1.21021,-1.21021l-0.53787,0l-0.26893,0.13447l-0.2017,0.47064l0.26893,0.53787l1.68084,1.68084l0.53787,0l4.57189,-4.57189l0.67234,0l0.47064,0.6051l-0.13447,0.67234l-2.89933,10.23531c-0.311,0.62279 -0.55476,1.24559 -0.86575,1.86839z" fill="#e83aff"/>
</svg>
