<svg xmlns="http://www.w3.org/2000/svg" width="24" height="24" viewBox="0 0 24 24" fill="none">
  <g transform="scale(0.0234375)">
<path fill="rgb(14,6,38)" stroke="rgb(14,6,38)" stroke-width="1" opacity="0.7254901960784313" d="M 616.5 310 L 698.5 310 L 700 311.5 L 738 391.5 L 737 391.5 L 699 311 L 617.5 311 L 615 313.5 L 548 430.5 L 505 510.5 L 506.5 510 L 555.5 493 L 578.5 482 L 577.5 484 L 539 500.5 L 539.5 502 L 530 506.5 L 532 507.5 L 526 509.5 L 530 510.5 L 489.5 522 L 470.5 526 L 465.5 526 Q 458.5 527 455.5 532 L 457 529.5 L 469 507.5 L 473 495.5 L 477 477.5 L 478 448.5 L 477 447.5 L 477 437.5 L 474 422.5 Q 469.7 406.3 462 393.5 Q 449.3 371.7 430.5 356 L 421 348.5 L 423.5 350 L 444 367.5 Q 462.6 387.4 473 415.5 L 478 436.5 L 479 469.5 L 478 470.5 L 478 479.5 L 473 501.5 L 467 515.5 L 461 524.5 L 463.5 525 L 466.5 523 L 473.5 522 L 493.5 515 L 503 509.5 L 568 392.5 L 616.5 310 Z " /><path fill="rgb(14,6,38)" stroke="rgb(14,6,38)" stroke-width="1" opacity="0.7254901960784313" d="M 320.5 314 L 328 314.5 L 320.5 315 L 320.5 314 Z " /><path fill="rgb(14,6,38)" stroke="rgb(14,6,38)" stroke-width="1" opacity="0.7254901960784313" d="M 348.5 317 L 351 317.5 L 348.5 318 L 348.5 317 Z " /><path fill="rgb(14,6,38)" stroke="rgb(14,6,38)" stroke-width="1" opacity="0.7254901960784313" d="M 352.5 318 L 355 318.5 L 352.5 319 L 352.5 318 Z " /><path fill="rgb(14,6,38)" stroke="rgb(14,6,38)" stroke-width="1" opacity="0.7254901960784313" d="M 378.5 325 L 382 326.5 L 380.5 327 L 378.5 325 Z " /><path fill="rgb(14,6,38)" stroke="rgb(14,6,38)" stroke-width="1" opacity="0.7254901960784313" d="M 248.5 326 L 250 326.5 L 246.5 328 L 246.5 327 L 248.5 326 Z " /><path fill="rgb(14,6,38)" stroke="rgb(14,6,38)" stroke-width="1" opacity="0.7254901960784313" d="M 390.5 330 L 401 335.5 L 399.5 335 L 390.5 331 L 390.5 330 Z " /><path fill="rgb(14,6,38)" stroke="rgb(14,6,38)" stroke-width="1" opacity="0.7254901960784313" d="M 229.5 335 L 228.5 337 L 226.5 338 L 227.5 336 L 229.5 335 Z " /><path fill="rgb(14,6,38)" stroke="rgb(14,6,38)" stroke-width="1" opacity="0.7254901960784313" d="M 224.5 338 L 223.5 340 L 221.5 341 L 222.5 339 L 224.5 338 Z " /><path fill="rgb(14,6,38)" stroke="rgb(14,6,38)" stroke-width="1" opacity="0.7254901960784313" d="M 406.5 338 L 413 342.5 L 411.5 342 Q 406.9 340.8 406.5 338 Z " /><path fill="rgb(14,6,38)" stroke="rgb(14,6,38)" stroke-width="1" opacity="0.7254901960784313" d="M 219.5 341 L 218.5 343 L 219.5 341 Z " /><path fill="rgb(14,6,38)" stroke="rgb(14,6,38)" stroke-width="1" opacity="0.7254901960784313" d="M 216.5 343 L 215.5 345 L 216.5 343 Z " /><path fill="rgb(14,6,38)" stroke="rgb(14,6,38)" stroke-width="1" opacity="0.7254901960784313" d="M 414.5 343 L 415.5 345 L 414.5 343 Z " /><path fill="rgb(14,6,38)" stroke="rgb(14,6,38)" stroke-width="1" opacity="0.7254901960784313" d="M 213.5 345 L 211.5 348 L 191 365.5 Q 174.6 382.6 166 407.5 L 161 429.5 L 161 459.5 L 164 474.5 L 171 495.5 L 181 513.5 L 189.5 522 L 212.5 532 L 227.5 535 L 245.5 536 L 246.5 535 L 260.5 535 L 261.5 534 L 276 532.5 L 258 516.5 Q 242.6 500.4 236 475.5 L 233 460.5 L 233 437.5 Q 238.4 408.9 256.5 393 Q 271.2 379.2 293.5 373 L 309.5 370 L 326.5 370 L 342.5 373 L 363.5 382 Q 375.8 389.7 385 400.5 Q 396.6 413.9 402 433.5 L 404 443.5 L 404 466.5 L 399 486.5 L 393 499 L 445 536.5 L 443.5 536 L 442 536.5 Q 443 539 447.5 538 L 453.5 534 L 453 535.5 Q 453.7 538.1 451 537 L 451 539.5 L 455.5 546 Q 456.8 543.8 458 546.5 Q 457.3 548.8 459.5 548 L 463.5 553 L 461.5 552 L 461 553.5 L 462.5 555 L 471.5 555 L 498.5 550 L 529.5 541 L 529.5 542 L 501 550.5 L 504 551.5 L 500.5 552 L 498.5 551 L 487 553.5 L 488 556.5 L 485 558.5 L 487.5 560 L 488 558 L 491.5 559 L 494.5 558 L 497.5 559 Q 498.7 556.8 503.5 558 L 506.5 556 L 516.5 555 L 518 555.5 Q 517.1 552.5 521.5 554 L 521.5 555 Q 517.2 559.2 509.5 560 L 506.5 559 L 504.5 561 Q 498.4 560.2 496 562 Q 497.1 559.3 494.5 560 L 493 559.5 L 491.5 562 L 488.5 561 L 486.5 562 L 486.5 560 L 482.5 561 L 480.5 560 L 477 561.5 L 485.5 571 L 510.5 592 Q 516 590.5 517.5 593 L 538.5 593 L 565 548.5 L 574.5 537 L 575 540 L 588.5 535 L 590.5 536 L 613.5 528 L 629.5 520 L 641.5 512 L 648 510 Q 646.9 507.3 649.5 508 L 677.5 491 Q 686.2 481.1 698.5 475 L 700.5 478 L 702.5 477 L 705 478.5 L 706 461.5 L 707 458 Q 737 447.7 758.5 428 L 754.5 433 Q 741.7 444.2 725 451.5 L 727.5 452 L 734.5 450 L 734.5 451 L 713.5 457 L 708 460.5 L 707 475.5 L 705 480.5 L 707.5 481 Q 718.8 475.8 727 467.5 Q 733.9 460.9 736.5 450 L 737 453.5 Q 732.8 466.3 722.5 473 L 707 482.5 L 709 483.5 L 705 486 L 706 492.5 L 713 507.5 L 754 592.5 L 757.5 597 L 859.5 597 L 861 595.5 L 776 446.5 L 772 436.5 L 773 436.5 Q 776.6 438.4 776 444.5 L 861 591.5 Q 863.8 594.2 863 600.5 L 861.5 602 L 751.5 602 L 746 593.5 L 739 576.5 L 700 496.5 L 692.5 486 L 605.5 538 L 571.5 557 L 563.5 560 L 558 565.5 L 538.5 600 L 507.5 600 L 505 599 L 509 605.5 L 509 608.5 L 505.5 611 L 400.5 611 L 385.5 600 L 381.5 599 L 376.5 601 L 350.5 606 L 316.5 607 L 315.5 606 L 298.5 605 L 272.5 599 L 242.5 588 L 218.5 582 Q 192.5 573 176 554.5 Q 163.5 541 157 521.5 L 155 510.5 L 155 488.5 L 159.5 473 L 160 479.5 L 158 489.5 L 158 499.5 L 159 500.5 L 160 511.5 L 164 524.5 Q 170.3 539.7 181.5 550 Q 192.7 561.2 208.5 568 Q 221.2 573.8 237.5 576 L 248.5 583 L 267.5 590 L 301.5 597 L 310.5 597 L 311.5 598 L 343.5 598 L 344.5 597 L 353.5 597 L 377 592.5 L 349.5 572 Q 348.3 574.3 347 571.5 L 348 570.5 L 344.5 567 L 316.5 543 L 314 542.5 L 323 539 Q 321.9 541.7 324.5 541 L 402.5 602 Q 407.5 606 418.5 604 L 419.5 603 L 503.5 603 L 506 604 L 502.5 599 L 452.5 558 L 379.5 504 L 373.5 500 L 370.5 500 Q 340.7 520.2 302.5 532 L 270.5 539 L 249.5 540 L 248.5 541 L 232.5 541 L 231.5 540 L 215.5 539 L 195.5 533 Q 181.6 527.4 173 516.5 L 166 504.5 L 163 492.5 L 162 473.5 L 159 459.5 L 159 435.5 L 164 409.5 L 171 392.5 Q 182.1 371.1 199.5 356 L 213.5 345 Z M 306 375 L 284 381 L 272 387 L 257 398 L 247 411 L 240 424 L 235 443 L 235 463 L 237 474 Q 243 497 257 513 L 281 534 L 290 534 L 320 525 Q 348 514 372 498 Q 405 519 436 544 L 441 542 L 396 507 L 389 501 L 397 483 Q 396 476 399 474 L 399 464 L 400 463 L 400 449 L 397 433 Q 393 417 384 407 Q 370 389 349 380 L 330 375 L 306 375 Z M 259 392 L 259 394 L 261 393 L 259 392 Z M 716 515 L 716 520 L 717 520 L 716 515 Z M 719 522 L 717 526 L 719 526 L 718 529 L 720 531 L 721 528 L 719 522 Z M 723 530 L 721 532 L 723 532 L 723 530 Z M 724 532 L 721 534 L 722 537 L 724 537 L 723 540 L 726 538 L 724 532 Z M 727 538 L 724 541 L 728 548 L 729 546 L 730 551 L 731 549 L 732 553 L 733 553 L 731 547 L 727 544 L 729 544 L 727 538 Z M 734 553 L 732 556 L 733 559 L 737 562 L 734 553 Z M 483 554 L 483 555 L 486 555 L 483 554 Z M 739 563 L 738 566 L 740 567 L 739 563 Z M 741 567 L 739 569 L 742 574 L 744 575 L 741 567 Z M 741 573 Q 739 576 742 575 L 741 573 Z M 745 575 L 742 577 L 744 577 L 745 580 L 746 580 L 745 575 Z M 754 594 L 753 597 L 754 597 L 754 594 Z M 757 598 L 757 599 L 762 599 L 757 598 Z M 764 598 L 764 599 L 777 599 L 779 599 L 781 600 L 785 599 L 787 600 L 789 600 L 792 599 L 808 600 L 810 600 L 814 599 L 816 599 L 818 600 L 821 599 L 824 600 L 857 600 L 861 599 L 764 598 Z M 473 605 L 473 606 L 503 606 L 473 605 Z " /><path fill="rgb(14,6,38)" stroke="rgb(14,6,38)" stroke-width="1" opacity="0.7254901960784313" d="M 417.5 345 L 419.5 348 L 417.5 345 Z " /><path fill="rgb(14,6,38)" stroke="rgb(14,6,38)" stroke-width="1" opacity="0.7254901960784313" d="M 653.5 365 L 652.5 367 L 653.5 365 Z " /><path fill="rgb(14,6,38)" stroke="rgb(14,6,38)" stroke-width="1" opacity="0.7254901960784313" d="M 650.5 370 L 649.5 372 L 650.5 370 Z " /><path fill="rgb(14,6,38)" stroke="rgb(14,6,38)" stroke-width="1" opacity="0.7254901960784313" d="M 656.5 374 L 673 420 Q 679.9 415.2 690.5 413 L 690.5 414 Q 675.2 418.2 665 427.5 L 665.5 429 L 668.5 428 L 686.5 433 L 697.5 421 L 703.5 416 L 701.5 420 L 706 416.5 Q 703.7 415.3 706.5 414 L 706.5 416 L 717.5 409 L 716.5 411 L 698 424.5 L 689 436.5 L 699 443 L 706 457.5 L 705 457.5 Q 702.4 446.6 694.5 441 L 688 436.5 L 690 432.5 L 688 432 Q 689.4 435.7 683.5 434 Q 676.9 429.6 665.5 430 L 661.5 431 L 655.5 436 L 640.5 445 L 630.5 449 L 620.5 456 Q 618.8 453.3 617 457.5 L 616.5 459 L 616 457.5 L 640 412.5 L 655 381.5 L 656.5 374 Z M 658 399 L 636 444 Q 653 436 667 424 L 660 403 L 658 399 Z M 693 428 L 690 432 L 693 430 L 693 428 Z " /><path fill="rgb(14,6,38)" stroke="rgb(14,6,38)" stroke-width="1" opacity="0.7254901960784313" d="M 638.5 392 L 637.5 394 L 638.5 392 Z " /><path fill="rgb(14,6,38)" stroke="rgb(14,6,38)" stroke-width="1" opacity="0.7254901960784313" d="M 722.5 406 L 721.5 408 L 722.5 406 Z " /><path fill="rgb(14,6,38)" stroke="rgb(14,6,38)" stroke-width="1" opacity="0.7254901960784313" d="M 696.5 411 L 702 411.5 L 696.5 412 L 696.5 411 Z " /><path fill="rgb(14,6,38)" stroke="rgb(14,6,38)" stroke-width="1" opacity="0.7254901960784313" d="M 692.5 412 L 695 412.5 L 692.5 413 L 692.5 412 Z " /><path fill="rgb(14,6,38)" stroke="rgb(14,6,38)" stroke-width="1" opacity="0.7254901960784313" d="M 731.5 414 L 736 414.5 L 732 415.5 L 733 417.5 L 731 419.5 L 730 424.5 L 732 425.5 L 730 426.5 L 737 429.5 L 734.5 430 L 730.5 429 L 727 425.5 Q 725.5 417.5 729.5 415 L 731.5 414 Z " /><path fill="rgb(14,6,38)" stroke="rgb(14,6,38)" stroke-width="1" opacity="0.7254901960784313" d="M 737.5 414 L 740 415.5 L 738.5 415 L 737.5 414 Z " /><path fill="rgb(14,6,38)" stroke="rgb(14,6,38)" stroke-width="1" opacity="0.7254901960784313" d="M 617.5 430 L 616.5 432 L 617.5 430 Z " /><path fill="rgb(14,6,38)" stroke="rgb(14,6,38)" stroke-width="1" opacity="0.7254901960784313" d="M 679 439 Q 683.6 437.8 685 440.5 L 683.5 440 L 679.5 441 L 679 439 Z " /><path fill="rgb(14,6,38)" stroke="rgb(14,6,38)" stroke-width="1" opacity="0.7254901960784313" d="M 686.5 441 L 687.5 443 L 686.5 441 Z " /><path fill="rgb(14,6,38)" stroke="rgb(14,6,38)" stroke-width="1" opacity="0.7254901960784313" d="M 688.5 445 L 687.5 447 L 688.5 445 Z " /><path fill="rgb(14,6,38)" stroke="rgb(14,6,38)" stroke-width="1" opacity="0.7254901960784313" d="M 460.5 448 L 461 450.5 L 460 450.5 L 460.5 448 Z " /><path fill="rgb(14,6,38)" stroke="rgb(14,6,38)" stroke-width="1" opacity="0.7254901960784313" d="M 683.5 449 L 682.5 451 L 683.5 449 Z " /><path fill="rgb(14,6,38)" stroke="rgb(14,6,38)" stroke-width="1" opacity="0.7254901960784313" d="M 696.5 452 L 699 453.5 L 700 460.5 L 699 460.5 Q 699.6 455.1 698 453 L 696.5 452 Z " /><path fill="rgb(14,6,38)" stroke="rgb(14,6,38)" stroke-width="1" opacity="0.7254901960784313" d="M 460.5 469 L 461 475.5 L 460 475.5 L 460.5 469 Z " /><path fill="rgb(14,6,38)" stroke="rgb(14,6,38)" stroke-width="1" opacity="0.7254901960784313" d="M 459.5 477 L 460 481.5 L 458.5 486 L 458 482.5 L 459.5 477 Z " /><path fill="rgb(14,6,38)" stroke="rgb(14,6,38)" stroke-width="1" opacity="0.7254901960784313" d="M 583.5 479 L 582.5 481 L 583.5 479 Z " /><path fill="rgb(14,6,38)" stroke="rgb(14,6,38)" stroke-width="1" opacity="0.7254901960784313" d="M 457.5 487 L 458 489.5 L 454.5 499 L 454 497.5 L 457.5 487 Z " /><path fill="rgb(14,6,38)" stroke="rgb(14,6,38)" stroke-width="1" opacity="0.7254901960784313" d="M 453.5 500 L 454 501.5 L 451.5 506 L 451 504.5 L 453.5 500 Z " /><path fill="rgb(14,6,38)" stroke="rgb(14,6,38)" stroke-width="1" opacity="0.7254901960784313" d="M 450.5 507 L 451 508.5 L 448.5 512 L 449 510.5 L 450.5 507 Z " /><path fill="rgb(14,6,38)" stroke="rgb(14,6,38)" stroke-width="1" opacity="0.7254901960784313" d="M 447.5 513 L 447 514.5 L 445.5 517 L 446 515.5 L 447.5 513 Z " /><path fill="rgb(14,6,38)" stroke="rgb(14,6,38)" stroke-width="1" opacity="0.7254901960784313" d="M 444.5 518 L 443.5 520 L 444.5 518 Z " /><path fill="rgb(14,6,38)" stroke="rgb(14,6,38)" stroke-width="1" opacity="0.7254901960784313" d="M 442.5 521 L 441.5 523 L 442.5 521 Z " /><path fill="rgb(14,6,38)" stroke="rgb(14,6,38)" stroke-width="1" opacity="0.7254901960784313" d="M 440.5 524 L 439.5 526 L 440.5 524 Z " /><path fill="rgb(14,6,38)" stroke="rgb(14,6,38)" stroke-width="1" opacity="0.7254901960784313" d="M 464.5 531 L 467 531.5 L 455.5 535 L 456.5 533 Q 462.2 533.7 464.5 531 Z " /><path fill="rgb(14,6,38)" stroke="rgb(14,6,38)" stroke-width="1" opacity="0.7254901960784313" d="M 491.5 554 L 492.5 556 L 491.5 554 Z " /><path fill="rgb(14,6,38)" stroke="rgb(14,6,38)" stroke-width="1" opacity="0.7254901960784313" d="M 538.5 566 L 526.5 579 L 538.5 566 Z " /><path fill="rgb(14,6,38)" stroke="rgb(14,6,38)" stroke-width="1" opacity="0.7254901960784313" d="M 344.5 570 L 346 570.5 L 337.5 574 L 316.5 578 L 301.5 579 L 300.5 580 L 288.5 580 L 288.5 579 L 299.5 579 L 300.5 578 L 314.5 577 L 335.5 573 L 344.5 570 Z " /><path fill="rgb(14,6,38)" stroke="rgb(14,6,38)" stroke-width="1" opacity="0.7254901960784313" d="M 350.5 581 L 358 581.5 L 351.5 583 L 341.5 583 L 340.5 584 L 327.5 584 L 327.5 583 L 338.5 583 L 339.5 582 L 349.5 582 L 350.5 581 Z " /><path fill="rgb(14,6,38)" stroke="rgb(14,6,38)" stroke-width="1" opacity="0.7254901960784313" d="M 320.5 584 L 323 584.5 L 320.5 585 L 320.5 584 Z " /><path fill="rgb(0,0,0)" stroke="rgb(0,0,0)" stroke-width="1" opacity="0" d="M 0 0 L 1024 0 L 1024 1024 L 0 1024 L 0 0 Z M 697 305 L 697 307 Q 696 309 699 308 L 699 306 L 697 305 Z M 620 306 L 621 308 L 624 307 L 620 306 Z M 625 307 L 625 308 L 627 308 L 625 307 Z M 630 307 L 630 308 L 633 308 L 630 307 Z M 641 307 L 641 308 L 643 308 L 641 307 Z M 649 307 L 649 308 L 651 308 L 649 307 Z M 663 307 L 663 308 L 665 308 L 663 307 Z M 680 307 L 680 308 L 683 308 L 680 307 Z M 688 307 L 688 308 L 691 308 L 688 307 Z M 617 309 L 607 326 L 605 327 L 605 329 L 586 361 Q 587 363 585 362 L 585 364 L 580 372 L 579 370 L 576 376 L 578 376 L 563 401 Q 564 403 560 402 L 560 404 L 562 404 L 523 474 L 520 475 L 522 476 L 503 510 L 493 515 L 462 524 Q 471 513 474 496 L 478 496 L 475 495 L 477 487 L 477 482 Q 481 483 480 481 L 478 481 L 479 462 L 480 461 L 479 456 L 479 442 L 480 441 L 478 440 L 476 425 L 469 405 Q 461 386 448 372 Q 425 346 393 330 L 358 318 L 334 315 L 333 314 L 316 314 L 314 314 L 312 313 L 311 314 L 297 314 L 274 318 L 248 326 Q 217 338 196 359 Q 179 374 169 396 L 161 419 L 160 431 L 159 432 L 159 442 L 158 443 L 158 457 L 160 465 L 160 472 L 157 472 L 157 474 L 159 474 L 156 482 L 155 493 L 154 494 L 155 514 L 157 523 Q 161 537 170 547 Q 169 549 172 548 L 172 551 L 176 553 L 183 561 Q 185 560 184 563 L 195 570 Q 197 569 196 572 L 216 580 L 218 582 L 243 588 L 266 597 L 299 605 L 316 606 L 317 607 L 351 606 L 377 601 L 382 599 L 386 600 L 401 611 L 432 611 L 433 612 Q 434 609 441 611 L 444 612 L 447 611 L 449 611 L 457 612 L 459 612 L 462 611 L 464 611 L 466 612 Q 467 609 474 611 L 479 612 L 482 611 L 484 612 L 487 611 L 495 611 L 496 612 L 497 611 L 506 611 L 509 609 Q 509 603 505 601 L 518 600 L 521 601 L 530 600 L 535 601 L 539 600 L 558 566 L 564 560 L 592 546 L 634 521 Q 637 522 636 519 L 639 519 L 652 510 L 666 503 L 692 486 L 694 487 L 700 497 L 732 564 L 730 564 L 731 566 Q 730 569 734 567 L 740 582 L 740 584 L 742 584 L 744 590 Q 747 591 745 593 L 747 596 L 745 596 Q 744 599 747 598 L 749 598 L 749 600 Q 751 599 750 602 L 753 603 L 854 603 L 855 602 L 858 603 L 864 601 L 862 593 L 798 482 L 800 481 Q 799 478 798 480 L 796 478 L 796 476 L 794 475 L 791 470 L 795 468 Q 794 465 793 467 L 793 466 L 791 465 L 795 462 L 798 463 L 799 464 L 798 462 L 799 460 L 800 462 L 800 461 L 800 459 L 802 459 L 803 457 L 803 455 L 807 456 L 808 453 L 808 451 L 810 451 Q 813 449 809 448 L 811 447 Q 813 446 811 445 L 814 446 Q 817 447 816 445 L 817 442 L 815 441 L 821 440 L 823 436 L 823 438 L 824 438 Q 825 432 822 430 L 824 430 L 826 430 L 825 429 L 824 427 L 826 425 L 824 423 L 828 422 L 824 421 L 827 420 L 824 419 L 827 418 L 825 416 L 828 415 L 828 417 L 831 417 Q 832 414 829 415 L 831 412 L 829 411 L 833 408 L 830 406 L 832 406 L 832 404 L 835 404 L 833 403 L 833 398 L 835 399 L 835 398 L 835 396 L 832 393 L 833 391 L 830 392 L 830 389 L 832 390 L 833 388 L 830 387 L 830 386 L 829 383 L 828 383 Q 829 385 826 384 L 824 385 L 825 383 L 823 383 L 827 381 L 824 379 L 824 378 Q 822 374 821 378 L 817 375 L 817 374 Q 820 373 819 376 L 822 376 L 821 372 L 819 373 L 817 373 L 819 372 L 817 371 L 817 370 L 815 369 L 814 366 Q 811 365 812 368 L 808 367 L 810 366 Q 811 368 812 366 L 808 365 L 809 362 L 808 361 L 808 360 L 807 359 L 805 362 L 804 362 Q 805 359 803 360 Q 800 359 802 358 L 801 357 L 801 354 L 799 351 Q 796 352 797 349 L 792 349 L 795 348 L 793 347 L 790 347 L 791 344 L 787 345 L 784 342 L 787 340 L 784 339 L 783 336 Q 780 337 782 339 L 780 339 L 780 338 Q 779 335 776 336 Q 774 333 772 338 Q 773 340 771 339 L 769 339 L 769 338 L 768 337 L 766 340 L 767 341 L 759 339 L 760 343 Q 758 346 751 345 L 750 348 L 751 351 L 750 351 Q 751 347 749 348 L 749 350 L 747 350 L 748 352 L 741 353 L 743 357 L 741 355 L 740 357 L 737 359 L 737 361 Q 734 362 735 360 L 733 358 L 734 361 Q 731 360 732 363 L 734 364 L 732 365 L 731 363 L 728 366 Q 731 367 729 369 L 731 372 L 731 373 L 721 355 L 722 353 L 721 352 L 700 311 L 699 309 L 617 309 Z M 702 310 L 701 312 L 703 313 L 702 310 Z M 609 314 L 610 318 L 611 315 L 609 314 Z M 595 336 L 595 338 L 597 337 L 595 336 Z M 770 336 L 771 338 Q 772 335 770 336 Z M 717 339 L 716 342 L 717 342 L 717 339 Z M 786 341 L 786 342 L 788 342 L 786 341 Z M 788 342 L 788 344 L 790 343 L 788 342 Z M 719 344 L 719 349 L 720 349 Q 722 343 719 344 Z M 586 355 L 585 358 L 586 358 L 586 355 Z M 728 355 L 726 357 L 728 357 L 728 355 Z M 735 355 L 735 356 Q 738 355 737 358 L 739 357 Q 740 353 735 355 Z M 725 356 Q 723 360 726 363 L 727 363 L 725 356 Z M 804 357 L 805 359 Q 806 356 804 357 Z M 727 363 L 727 365 L 729 364 L 727 363 Z M 577 368 L 576 372 L 577 372 L 577 368 Z M 822 369 L 819 371 L 822 371 L 823 374 L 824 374 Q 825 369 822 369 Z M 574 379 L 572 382 L 574 381 L 574 379 Z M 171 386 L 171 388 L 173 387 L 171 386 Z M 565 392 L 565 394 L 567 393 L 565 392 Z M 561 399 Q 559 402 562 401 L 561 399 Z M 162 410 L 161 413 L 162 413 L 162 410 Z M 546 427 L 547 429 Q 548 426 546 427 Z M 158 433 L 157 436 L 158 436 L 158 433 Z M 530 457 L 528 460 L 530 459 L 530 457 Z M 828 531 L 828 533 L 830 532 L 828 531 Z M 729 560 L 728 563 L 730 563 Q 731 559 729 560 Z M 739 580 L 737 582 L 739 582 L 739 580 Z M 745 598 Q 743 601 746 600 L 745 598 Z " /><path fill="rgb(0,0,0)" stroke="rgb(0,0,0)" stroke-width="1" opacity="0" d="M 310.5 375 L 332.5 376 L 343.5 379 L 345.5 381 L 347.5 381 L 361.5 387 L 373 395 Q 371.9 397.7 374.5 397 L 376 400 L 381 403.5 L 389 414.5 L 396 430.5 L 399 444.5 L 399 469.5 L 397 480.5 L 389 501 L 385 501.5 L 388 502 L 388.5 504 L 389 502 Q 391.7 500.9 391 503.5 L 415 522.5 Q 412.7 523.8 415.5 525 L 416.5 523 L 431.5 535 L 435 536 Q 433.9 538.7 436.5 538 L 438 541 L 441 541.5 Q 439.8 544.3 438.5 542 L 437 542.5 L 437.5 544 L 432 540.5 L 431.5 539 Q 430 541.5 428.5 538 L 397 514.5 Q 399.3 513.3 396.5 512 L 391.5 511 L 375 498.5 L 376 496.5 L 373.5 498 L 323.5 523 L 303.5 530 L 282.5 534 L 264 519.5 Q 264.8 517.3 262.5 518 L 261 515 L 258 513.5 L 243 489.5 L 239 479.5 L 237 468.5 L 237.5 467 L 236 466.5 L 236 456.5 Q 233.2 454.8 235 448.5 L 236 445.5 L 237 434.5 L 243 418.5 Q 250 404.5 261.5 395 L 282.5 382 L 293.5 378 L 310.5 375 Z M 369 393 Q 367 396 370 395 L 369 393 Z M 368 496 L 369 498 L 370 498 L 368 496 Z M 391 504 Q 389 507 392 506 L 391 504 Z M 352 506 L 353 508 L 355 507 L 352 506 Z M 422 531 L 423 533 Q 424 530 422 531 Z M 431 536 L 430 539 L 431 539 L 431 536 Z " /><path fill="rgb(0,0,0)" stroke="rgb(0,0,0)" stroke-width="1" opacity="0" d="M 657.5 399 L 660 402.5 L 667 423.5 L 664 425 Q 665.1 427.7 662.5 427 Q 650.5 437.3 636 444 L 657.5 399 Z " /><path fill="rgb(0,0,0)" stroke="rgb(0,0,0)" stroke-width="1" opacity="0" d="M 784.5 456 L 788 461.5 L 786 460.5 L 784.5 456 Z " /><path fill="rgb(0,0,0)" stroke="rgb(0,0,0)" stroke-width="1" opacity="0" d="M 788.5 463 L 791 467.5 L 790 467.5 L 788.5 463 Z " /><path fill="rgb(166,142,191)" stroke="rgb(166,142,191)" stroke-width="1" opacity="0.13333333333333333" d="M 696.5 305 L 699 305.5 L 698.5 308 Q 696.3 308.8 697 306.5 L 695 306.5 L 696.5 305 Z " /><path fill="rgb(166,142,191)" stroke="rgb(166,142,191)" stroke-width="1" opacity="0.13333333333333333" d="M 620 306 L 627 307.5 L 624.5 308 L 621.5 307 L 620 307.5 L 620 306 Z " /><path fill="rgb(166,142,191)" stroke="rgb(166,142,191)" stroke-width="1" opacity="0.13333333333333333" d="M 629.5 307 L 633 307.5 L 629.5 308 L 629.5 307 Z " /><path fill="rgb(166,142,191)" stroke="rgb(166,142,191)" stroke-width="1" opacity="0.13333333333333333" d="M 640.5 307 L 643 307.5 L 640.5 308 L 640.5 307 Z " /><path fill="rgb(166,142,191)" stroke="rgb(166,142,191)" stroke-width="1" opacity="0.13333333333333333" d="M 648.5 307 L 651 307.5 L 648.5 308 L 648.5 307 Z " /><path fill="rgb(166,142,191)" stroke="rgb(166,142,191)" stroke-width="1" opacity="0.13333333333333333" d="M 662.5 307 L 665 307.5 L 662.5 308 L 662.5 307 Z " /><path fill="rgb(166,142,191)" stroke="rgb(166,142,191)" stroke-width="1" opacity="0.13333333333333333" d="M 679.5 307 L 683 307.5 L 679.5 308 L 679.5 307 Z " /><path fill="rgb(166,142,191)" stroke="rgb(166,142,191)" stroke-width="1" opacity="0.13333333333333333" d="M 687.5 307 L 691 307.5 L 687.5 308 L 687.5 307 Z " /><path fill="rgb(166,142,191)" stroke="rgb(166,142,191)" stroke-width="1" opacity="0.13333333333333333" d="M 616.5 309 L 698.5 309 L 700 310.5 L 698.5 310 L 616.5 310 L 615.5 311 L 616.5 309 Z " /><path fill="rgb(166,142,191)" stroke="rgb(166,142,191)" stroke-width="1" opacity="0.13333333333333333" d="M 701.5 310 L 704 314.5 L 703 314.5 L 701.5 312 L 700 312.5 L 701.5 310 Z " /><path fill="rgb(166,142,191)" stroke="rgb(166,142,191)" stroke-width="1" opacity="0.13333333333333333" d="M 296.5 314 L 302 314.5 L 296.5 315 L 296.5 314 Z " /><path fill="rgb(166,142,191)" stroke="rgb(166,142,191)" stroke-width="1" opacity="0.13333333333333333" d="M 328.5 314 L 333 314.5 L 328.5 315 L 328.5 314 Z " /><path fill="rgb(166,142,191)" stroke="rgb(166,142,191)" stroke-width="1" opacity="0.13333333333333333" d="M 608.5 314 L 610.5 315 L 612 314.5 L 611 316.5 L 611.5 318 L 609 317.5 L 608.5 314 Z " /><path fill="rgb(166,142,191)" stroke="rgb(166,142,191)" stroke-width="1" opacity="0.13333333333333333" d="M 290.5 315 L 294 315.5 L 290.5 316 L 290.5 315 Z " /><path fill="rgb(166,142,191)" stroke="rgb(166,142,191)" stroke-width="1" opacity="0.13333333333333333" d="M 337.5 315 L 340 315.5 L 337.5 316 L 337.5 315 Z " /><path fill="rgb(166,142,191)" stroke="rgb(166,142,191)" stroke-width="1" opacity="0.13333333333333333" d="M 283.5 316 L 286 316.5 L 283.5 317 L 283.5 316 Z " /><path fill="rgb(166,142,191)" stroke="rgb(166,142,191)" stroke-width="1" opacity="0.13333333333333333" d="M 344.5 316 L 347 316.5 L 344.5 317 L 344.5 316 Z " /><path fill="rgb(166,142,191)" stroke="rgb(166,142,191)" stroke-width="1" opacity="0.13333333333333333" d="M 355.5 318 L 358 318.5 L 355.5 319 L 355.5 318 Z " /><path fill="rgb(166,142,191)" stroke="rgb(166,142,191)" stroke-width="1" opacity="0.13333333333333333" d="M 606.5 320 L 605.5 322 L 606.5 320 Z " /><path fill="rgb(166,142,191)" stroke="rgb(166,142,191)" stroke-width="1" opacity="0.13333333333333333" d="M 377.5 322 Q 380.5 323.5 377.5 325 L 377.5 322 Z " /><path fill="rgb(166,142,191)" stroke="rgb(166,142,191)" stroke-width="1" opacity="0.13333333333333333" d="M 710.5 328 L 711 329.5 L 709 330.5 L 710.5 328 Z " /><path fill="rgb(166,142,191)" stroke="rgb(166,142,191)" stroke-width="1" opacity="0.13333333333333333" d="M 711.5 331 L 710.5 333 L 711.5 331 Z " /><path fill="rgb(166,142,191)" stroke="rgb(166,142,191)" stroke-width="1" opacity="0.13333333333333333" d="M 231.5 333 L 233 333.5 L 230.5 335 L 231.5 333 Z " /><path fill="rgb(166,142,191)" stroke="rgb(166,142,191)" stroke-width="1" opacity="0.13333333333333333" d="M 774.5 335 L 780.5 338 Q 782.3 334.3 784 337.5 Q 783.2 340.1 786.5 339 L 786.5 340 L 785 340.5 L 791 343.5 L 790 346.5 L 793 345.5 L 792.5 347 L 795 347.5 L 792 348.5 L 797 349 Q 795.9 351.7 798.5 351 L 801 351.5 L 800.5 357 L 802.5 358 L 805 356.5 L 804.5 355 Q 807.3 356.3 805 357.5 L 804.5 359 Q 803.2 356.8 802 359.5 L 804 360 L 804.5 362 L 806.5 359 L 808 359.5 L 807.5 361 L 809 361.5 L 808 365 Q 813 364.2 815 367.5 Q 814.3 369.8 816.5 369 L 816.5 371 L 819 370.5 L 818.5 369 L 820.5 370 Q 822.2 367.3 824 371.5 L 823.5 374 L 821.5 371 L 819 371.5 L 821 372 L 824 377.5 L 823.5 379 L 827 380.5 L 825 384 Q 828.7 385.5 828 382.5 L 829 382.5 L 830 385.5 L 829.5 387 L 833 387.5 L 832 390 L 830 390.5 L 835 393.5 L 835 397.5 L 834.5 399 L 832.5 398 L 832.5 403 L 835 403.5 L 832 404 L 831 406.5 L 833 407.5 L 831 408.5 L 831.5 410 Q 830.3 407.8 829 410.5 L 832 412.5 L 831.5 414 L 830.5 412 L 829 415 Q 831.7 413.9 831 416.5 L 828 416.5 L 827.5 415 L 826.5 418 L 824 418.5 L 827 419.5 L 824 420.5 L 829 422.5 L 827.5 422 L 824 422.5 L 826 424.5 L 824.5 429 L 826 429.5 L 823 430 L 824 437.5 L 823 437.5 L 822.5 436 L 822 438.5 L 822.5 440 L 820.5 440 L 815 440.5 L 817 441.5 L 816 444.5 L 816 446 Q 812.3 444.5 813 447.5 L 814.5 447 L 816 447.5 L 814 448 L 813.5 450 L 812.5 448 Q 807.6 450.6 807 456 L 803 456 L 803 457.5 L 798.5 464 L 794.5 462 L 791 464.5 L 793.5 466 L 795 465.5 L 794.5 468 L 790.5 469 L 791 467.5 L 790.5 466 L 789 466.5 L 790 464.5 L 786 461.5 L 787 459.5 L 785 459.5 L 786 457.5 L 784 457.5 L 784.5 456 L 782 454.5 L 776 442.5 L 776 438.5 L 778 433 L 780 432.5 L 779 430.5 L 783 424.5 L 781 419.5 L 781.5 418 Q 778.2 419.1 779 416.5 L 778 412.5 Q 779.8 414.1 781.5 411 L 783 410.5 L 782.5 409 L 789.5 415 L 790 413.5 Q 785.3 411.3 784 405.5 L 788 400.5 L 786 399.5 L 800 394.5 L 785 391.5 Q 787.3 390.3 784.5 389 Q 782.3 389.8 783 387.5 L 782 385 L 777 381.5 L 777 374.5 L 774.5 367 L 772 383 L 769.5 382 L 760.5 389 Q 759.3 386.8 758 389.5 L 758.5 391 L 739 393 L 734 382.5 L 734.5 381 Q 732.3 381.8 733 379.5 L 733 377.5 L 732.5 376 L 731 376.5 L 732 374.5 L 730 373.5 L 731 371.5 L 729 371.5 L 730 369.5 L 728 369.5 Q 732.3 367.3 727.5 365 L 726 365.5 L 727 363.5 L 725 363.5 L 726 361.5 L 724 361.5 L 725 359.5 L 723 359.5 L 724 356.5 L 723.5 355 Q 727.6 357.7 727 363 L 729.5 364 L 731 363.5 L 731.5 365 L 734 363.5 L 732 363 Q 730.9 360.3 733.5 361 L 732.5 358 L 735 359.5 Q 734.3 361.8 736.5 361 L 736.5 359 L 738 358.5 L 737 356 L 734 355.5 L 739 355 L 739.5 357 L 741 353.5 L 740.5 352 L 743.5 353 L 743.5 352 L 742 351.5 L 743.5 351 L 747.5 352 L 747 350.5 L 748.5 348 L 751 346.5 Q 750.4 343.8 756.5 345 L 760 342.5 L 759 339 L 764.5 338 L 764.5 339 L 763 339.5 L 766 340 L 767.5 337 L 771 336 L 770 338.5 L 772 339 L 774.5 335 Z M 785 342 L 785 344 Q 787 347 788 344 Q 789 341 785 342 Z M 751 348 L 750 351 L 751 351 L 751 348 Z M 809 366 L 810 368 Q 813 369 812 367 L 811 367 L 809 366 Z M 817 374 L 818 375 L 819 376 Q 820 373 817 374 Z M 820 376 Q 820 380 822 377 L 820 376 Z M 812 446 L 809 448 Q 811 451 812 448 L 812 446 Z " /><path fill="rgb(166,142,191)" stroke="rgb(166,142,191)" stroke-width="1" opacity="0.13333333333333333" d="M 595 336 L 597 336.5 L 595 337.5 L 595 336 Z " /><path fill="rgb(166,142,191)" stroke="rgb(166,142,191)" stroke-width="1" opacity="0.13333333333333333" d="M 597.5 338 L 598.5 340 L 596 339.5 L 597.5 338 Z " /><path fill="rgb(166,142,191)" stroke="rgb(166,142,191)" stroke-width="1" opacity="0.13333333333333333" d="M 221.5 339 L 220.5 341 L 221.5 339 Z " /><path fill="rgb(166,142,191)" stroke="rgb(166,142,191)" stroke-width="1" opacity="0.13333333333333333" d="M 412.5 339 Q 415.5 340.5 412.5 342 L 412.5 339 Z " /><path fill="rgb(166,142,191)" stroke="rgb(166,142,191)" stroke-width="1" opacity="0.13333333333333333" d="M 716.5 339 L 717 341.5 L 716 341.5 L 716.5 339 Z " /><path fill="rgb(166,142,191)" stroke="rgb(166,142,191)" stroke-width="1" opacity="0.13333333333333333" d="M 594.5 340 L 593.5 342 L 594.5 340 Z " /><path fill="rgb(166,142,191)" stroke="rgb(166,142,191)" stroke-width="1" opacity="0.13333333333333333" d="M 415.5 343 L 416.5 345 L 415.5 343 Z " /><path fill="rgb(166,142,191)" stroke="rgb(166,142,191)" stroke-width="1" opacity="0.13333333333333333" d="M 592.5 343 L 593.5 345 L 592.5 343 Z " /><path fill="rgb(166,142,191)" stroke="rgb(166,142,191)" stroke-width="1" opacity="0.13333333333333333" d="M 596.5 343 L 595.5 345 L 596.5 343 Z " /><path fill="rgb(166,142,191)" stroke="rgb(166,142,191)" stroke-width="1" opacity="0.13333333333333333" d="M 208.5 344 L 210 347.5 L 207.5 350 L 209 347.5 L 208.5 344 Z " /><path fill="rgb(166,142,191)" stroke="rgb(166,142,191)" stroke-width="1" opacity="0.13333333333333333" d="M 419.5 344 L 419.5 347 Q 416.5 345.5 419.5 344 Z " /><path fill="rgb(166,142,191)" stroke="rgb(166,142,191)" stroke-width="1" opacity="0.13333333333333333" d="M 718.5 344 Q 721.9 343.1 720 348.5 L 719 348.5 L 718.5 344 Z " /><path fill="rgb(166,142,191)" stroke="rgb(166,142,191)" stroke-width="1" opacity="0.13333333333333333" d="M 212.5 345 L 211.5 347 L 212.5 345 Z " /><path fill="rgb(166,142,191)" stroke="rgb(166,142,191)" stroke-width="1" opacity="0.13333333333333333" d="M 422.5 348 L 423.5 350 L 422.5 348 Z " /><path fill="rgb(166,142,191)" stroke="rgb(166,142,191)" stroke-width="1" opacity="0.13333333333333333" d="M 205.5 350 L 200.5 356 L 205.5 350 Z " /><path fill="rgb(166,142,191)" stroke="rgb(166,142,191)" stroke-width="1" opacity="0.13333333333333333" d="M 427.5 352 L 429.5 355 L 427.5 352 Z " /><path fill="rgb(166,142,191)" stroke="rgb(166,142,191)" stroke-width="1" opacity="0.13333333333333333" d="M 589.5 352 L 590.5 354 L 589.5 352 Z " /><path fill="rgb(166,142,191)" stroke="rgb(166,142,191)" stroke-width="1" opacity="0.13333333333333333" d="M 587.5 353 L 589.5 356 L 587.5 353 Z " /><path fill="rgb(166,142,191)" stroke="rgb(166,142,191)" stroke-width="1" opacity="0.13333333333333333" d="M 584.5 354 L 586 357.5 L 585 357.5 L 584.5 354 Z " /><path fill="rgb(166,142,191)" stroke="rgb(166,142,191)" stroke-width="1" opacity="0.13333333333333333" d="M 727.5 355 L 728 357 L 726 356.5 L 727.5 355 Z " /><path fill="rgb(166,142,191)" stroke="rgb(166,142,191)" stroke-width="1" opacity="0.13333333333333333" d="M 434.5 358 Q 436.7 362.3 439 360.5 L 438 361.5 L 439.5 364 L 434.5 358 Z " /><path fill="rgb(166,142,191)" stroke="rgb(166,142,191)" stroke-width="1" opacity="0.13333333333333333" d="M 195.5 359 L 189.5 366 L 195.5 359 Z " /><path fill="rgb(166,142,191)" stroke="rgb(166,142,191)" stroke-width="1" opacity="0.13333333333333333" d="M 585.5 359 L 586.5 361 L 585.5 359 Z " /><path fill="rgb(166,142,191)" stroke="rgb(166,142,191)" stroke-width="1" opacity="0.13333333333333333" d="M 580.5 367 L 580 368.5 L 579 371.5 L 579.5 373 L 578 373.5 L 578.5 375 L 576.5 376 L 576 374.5 L 577 372.5 L 576 368.5 L 577 368.5 L 577.5 372 L 580.5 367 Z " /><path fill="rgb(166,142,191)" stroke="rgb(166,142,191)" stroke-width="1" opacity="0.13333333333333333" d="M 444.5 368 L 447.5 372 L 444.5 368 Z " /><path fill="rgb(166,142,191)" stroke="rgb(166,142,191)" stroke-width="1" opacity="0.13333333333333333" d="M 186.5 369 L 184.5 372 L 186.5 369 Z " /><path fill="rgb(166,142,191)" stroke="rgb(166,142,191)" stroke-width="1" opacity="0.13333333333333333" d="M 182.5 374 L 181.5 376 L 182.5 374 Z " /><path fill="rgb(166,142,191)" stroke="rgb(166,142,191)" stroke-width="1" opacity="0.13333333333333333" d="M 306.5 375 L 310 375.5 L 306.5 376 L 306.5 375 Z " /><path fill="rgb(166,142,191)" stroke="rgb(166,142,191)" stroke-width="1" opacity="0.13333333333333333" d="M 324.5 375 L 328 375.5 L 324.5 376 L 324.5 375 Z " /><path fill="rgb(166,142,191)" stroke="rgb(166,142,191)" stroke-width="1" opacity="0.13333333333333333" d="M 450.5 375 L 451.5 377 L 450.5 375 Z " /><path fill="rgb(166,142,191)" stroke="rgb(166,142,191)" stroke-width="1" opacity="0.13333333333333333" d="M 337.5 377 L 339 377.5 L 336.5 379 L 337.5 377 Z " /><path fill="rgb(166,142,191)" stroke="rgb(166,142,191)" stroke-width="1" opacity="0.13333333333333333" d="M 344.5 379 Q 346.8 378.3 346 380.5 L 344.5 379 Z " /><path fill="rgb(166,142,191)" stroke="rgb(166,142,191)" stroke-width="1" opacity="0.13333333333333333" d="M 453.5 379 L 454.5 381 L 453.5 379 Z " /><path fill="rgb(166,142,191)" stroke="rgb(166,142,191)" stroke-width="1" opacity="0.13333333333333333" d="M 573.5 379 L 575 381.5 Q 573.5 384.5 572 381.5 L 573.5 379 Z " /><path fill="rgb(166,142,191)" stroke="rgb(166,142,191)" stroke-width="1" opacity="0.13333333333333333" d="M 459.5 384 L 460 385.5 L 458 386.5 L 459.5 384 Z " /><path fill="rgb(166,142,191)" stroke="rgb(166,142,191)" stroke-width="1" opacity="0.13333333333333333" d="M 171 386 L 173 386.5 L 171 387.5 L 171 386 Z " /><path fill="rgb(166,142,191)" stroke="rgb(166,142,191)" stroke-width="1" opacity="0.13333333333333333" d="M 273.5 386 L 272.5 388 L 273.5 386 Z " /><path fill="rgb(166,142,191)" stroke="rgb(166,142,191)" stroke-width="1" opacity="0.13333333333333333" d="M 569.5 386 L 569 387.5 L 568.5 389 L 568 387.5 L 569.5 386 Z " /><path fill="rgb(166,142,191)" stroke="rgb(166,142,191)" stroke-width="1" opacity="0.13333333333333333" d="M 270.5 388 L 269.5 390 L 270.5 388 Z " /><path fill="rgb(166,142,191)" stroke="rgb(166,142,191)" stroke-width="1" opacity="0.13333333333333333" d="M 363.5 388 L 363.5 391 Q 360.5 389.5 363.5 388 Z " /><path fill="rgb(166,142,191)" stroke="rgb(166,142,191)" stroke-width="1" opacity="0.13333333333333333" d="M 172.5 390 L 171.5 392 L 172.5 390 Z " /><path fill="rgb(166,142,191)" stroke="rgb(166,142,191)" stroke-width="1" opacity="0.13333333333333333" d="M 267.5 390 L 268.5 392 L 267.5 390 Z " /><path fill="rgb(166,142,191)" stroke="rgb(166,142,191)" stroke-width="1" opacity="0.13333333333333333" d="M 366.5 390 L 367.5 392 L 365 391.5 L 366.5 390 Z " /><path fill="rgb(166,142,191)" stroke="rgb(166,142,191)" stroke-width="1" opacity="0.13333333333333333" d="M 565 392 L 567 392.5 L 565 393.5 L 565 392 Z " /><path fill="rgb(166,142,191)" stroke="rgb(166,142,191)" stroke-width="1" opacity="0.13333333333333333" d="M 837.5 392 L 838 393.5 L 836 394.5 L 837.5 392 Z " /><path fill="rgb(166,142,191)" stroke="rgb(166,142,191)" stroke-width="1" opacity="0.13333333333333333" d="M 263.5 393 L 262.5 395 L 263.5 393 Z " /><path fill="rgb(166,142,191)" stroke="rgb(166,142,191)" stroke-width="1" opacity="0.13333333333333333" d="M 368.5 393 L 372 394.5 L 369 396.5 L 369.5 395 Q 366.7 395.7 368.5 393 Z " /><path fill="rgb(166,142,191)" stroke="rgb(166,142,191)" stroke-width="1" opacity="0.13333333333333333" d="M 562.5 395 L 563 396.5 Q 561.5 399.5 560 396.5 L 562 396.5 L 562.5 395 Z " /><path fill="rgb(166,142,191)" stroke="rgb(166,142,191)" stroke-width="1" opacity="0.13333333333333333" d="M 838.5 395 L 837.5 397 L 838.5 395 Z " /><path fill="rgb(166,142,191)" stroke="rgb(166,142,191)" stroke-width="1" opacity="0.13333333333333333" d="M 560.5 399 L 561.5 401 Q 558.7 401.7 560.5 399 Z " /><path fill="rgb(166,142,191)" stroke="rgb(166,142,191)" stroke-width="1" opacity="0.13333333333333333" d="M 564.5 399 L 563.5 401 L 564.5 399 Z " /><path fill="rgb(166,142,191)" stroke="rgb(166,142,191)" stroke-width="1" opacity="0.13333333333333333" d="M 560 402 L 563 402.5 L 561 403.5 L 561.5 405 L 560 402 Z " /><path fill="rgb(166,142,191)" stroke="rgb(166,142,191)" stroke-width="1" opacity="0.13333333333333333" d="M 252.5 404 L 252.5 407 L 250 406.5 L 252.5 404 Z " /><path fill="rgb(166,142,191)" stroke="rgb(166,142,191)" stroke-width="1" opacity="0.13333333333333333" d="M 381.5 404 L 383.5 407 L 381.5 404 Z " /><path fill="rgb(166,142,191)" stroke="rgb(166,142,191)" stroke-width="1" opacity="0.13333333333333333" d="M 160.5 408 L 162 412.5 L 161 412.5 L 160.5 408 Z " /><path fill="rgb(166,142,191)" stroke="rgb(166,142,191)" stroke-width="1" opacity="0.13333333333333333" d="M 385.5 409 L 384.5 411 L 385.5 409 Z " /><path fill="rgb(166,142,191)" stroke="rgb(166,142,191)" stroke-width="1" opacity="0.13333333333333333" d="M 552.5 412 L 553.5 414 L 554.5 412 L 555 413.5 L 554 415.5 L 554.5 417 L 552 416.5 L 553 414.5 L 552.5 412 Z " /><path fill="rgb(166,142,191)" stroke="rgb(166,142,191)" stroke-width="1" opacity="0.13333333333333333" d="M 244.5 416 L 247 416.5 L 245.5 418 L 243 417.5 L 244.5 416 Z " /><path fill="rgb(166,142,191)" stroke="rgb(166,142,191)" stroke-width="1" opacity="0.13333333333333333" d="M 474.5 416 L 473.5 418 L 474.5 416 Z " /><path fill="rgb(166,142,191)" stroke="rgb(166,142,191)" stroke-width="1" opacity="0.13333333333333333" d="M 160.5 417 L 162 420.5 L 161 420.5 L 160.5 417 Z " /><path fill="rgb(166,142,191)" stroke="rgb(166,142,191)" stroke-width="1" opacity="0.13333333333333333" d="M 830.5 419 L 829.5 421 L 830.5 419 Z " /><path fill="rgb(166,142,191)" stroke="rgb(166,142,191)" stroke-width="1" opacity="0.13333333333333333" d="M 551.5 422 L 550.5 424 L 551.5 422 Z " /><path fill="rgb(166,142,191)" stroke="rgb(166,142,191)" stroke-width="1" opacity="0.13333333333333333" d="M 160.5 423 L 161 425.5 L 160 425.5 L 160.5 423 Z " /><path fill="rgb(166,142,191)" stroke="rgb(166,142,191)" stroke-width="1" opacity="0.13333333333333333" d="M 547.5 425 L 549 427.5 L 547 427.5 L 546 429.5 L 546.5 431 L 544 430.5 L 544.5 426 L 547 427 L 547.5 425 Z " /><path fill="rgb(166,142,191)" stroke="rgb(166,142,191)" stroke-width="1" opacity="0.13333333333333333" d="M 159.5 431 L 160 433.5 L 159 433.5 L 159.5 431 Z " /><path fill="rgb(166,142,191)" stroke="rgb(166,142,191)" stroke-width="1" opacity="0.13333333333333333" d="M 157.5 433 L 158 435.5 L 157 435.5 L 157.5 433 Z " /><path fill="rgb(166,142,191)" stroke="rgb(166,142,191)" stroke-width="1" opacity="0.13333333333333333" d="M 478 440 L 480 440.5 L 478.5 445 L 478 440 Z " /><path fill="rgb(166,142,191)" stroke="rgb(166,142,191)" stroke-width="1" opacity="0.13333333333333333" d="M 158.5 442 L 159 456.5 L 157 457.5 L 158 456.5 L 158.5 442 Z " /><path fill="rgb(166,142,191)" stroke="rgb(166,142,191)" stroke-width="1" opacity="0.13333333333333333" d="M 235.5 443 L 236 445.5 L 235 445.5 L 235.5 443 Z " /><path fill="rgb(166,142,191)" stroke="rgb(166,142,191)" stroke-width="1" opacity="0.13333333333333333" d="M 534.5 448 L 536 450.5 L 534 449.5 L 534.5 448 Z " /><path fill="rgb(166,142,191)" stroke="rgb(166,142,191)" stroke-width="1" opacity="0.13333333333333333" d="M 399.5 449 L 400 460.5 L 399 460.5 L 399.5 449 Z " /><path fill="rgb(166,142,191)" stroke="rgb(166,142,191)" stroke-width="1" opacity="0.13333333333333333" d="M 235.5 456 L 236 461.5 L 235 461.5 L 235.5 456 Z " /><path fill="rgb(166,142,191)" stroke="rgb(166,142,191)" stroke-width="1" opacity="0.13333333333333333" d="M 479.5 456 L 480 460.5 L 479 460.5 L 479.5 456 Z " /><path fill="rgb(166,142,191)" stroke="rgb(166,142,191)" stroke-width="1" opacity="0.13333333333333333" d="M 529.5 457 L 531 459.5 L 528 459.5 L 529.5 457 Z " /><path fill="rgb(166,142,191)" stroke="rgb(166,142,191)" stroke-width="1" opacity="0.13333333333333333" d="M 805.5 457 L 806.5 459 L 804 458.5 L 805.5 457 Z " /><path fill="rgb(166,142,191)" stroke="rgb(166,142,191)" stroke-width="1" opacity="0.13333333333333333" d="M 159.5 461 L 160 463.5 L 159 463.5 L 159.5 461 Z " /><path fill="rgb(166,142,191)" stroke="rgb(166,142,191)" stroke-width="1" opacity="0.13333333333333333" d="M 521.5 464 L 521 465.5 L 520.5 467 L 520 465.5 L 521.5 464 Z " /><path fill="rgb(166,142,191)" stroke="rgb(166,142,191)" stroke-width="1" opacity="0.13333333333333333" d="M 526.5 464 L 527.5 466 L 526.5 464 Z " /><path fill="rgb(166,142,191)" stroke="rgb(166,142,191)" stroke-width="1" opacity="0.13333333333333333" d="M 160.5 466 L 161 470.5 L 160 470.5 L 160.5 466 Z " /><path fill="rgb(166,142,191)" stroke="rgb(166,142,191)" stroke-width="1" opacity="0.13333333333333333" d="M 236 467 L 238 467.5 L 236 468.5 L 236 467 Z " /><path fill="rgb(166,142,191)" stroke="rgb(166,142,191)" stroke-width="1" opacity="0.13333333333333333" d="M 398.5 470 L 399 472.5 L 398 472.5 L 398.5 470 Z " /><path fill="rgb(166,142,191)" stroke="rgb(166,142,191)" stroke-width="1" opacity="0.13333333333333333" d="M 478.5 470 L 479 474.5 L 478 474.5 L 478.5 470 Z " /><path fill="rgb(166,142,191)" stroke="rgb(166,142,191)" stroke-width="1" opacity="0.13333333333333333" d="M 157 472 L 160 472.5 L 157.5 474 L 157 472 Z " /><path fill="rgb(166,142,191)" stroke="rgb(166,142,191)" stroke-width="1" opacity="0.13333333333333333" d="M 794.5 472 L 796 472.5 L 793.5 474 L 794.5 472 Z " /><path fill="rgb(166,142,191)" stroke="rgb(166,142,191)" stroke-width="1" opacity="0.13333333333333333" d="M 794.5 475 L 797 476.5 L 795 477.5 L 795.5 476 L 794.5 475 Z " /><path fill="rgb(166,142,191)" stroke="rgb(166,142,191)" stroke-width="1" opacity="0.13333333333333333" d="M 797.5 478 L 799.5 481 L 796 479.5 L 797.5 478 Z " /><path fill="rgb(166,142,191)" stroke="rgb(166,142,191)" stroke-width="1" opacity="0.13333333333333333" d="M 479.5 480 L 480 482 L 477 481.5 L 479.5 480 Z " /><path fill="rgb(166,142,191)" stroke="rgb(166,142,191)" stroke-width="1" opacity="0.13333333333333333" d="M 156.5 481 L 157 483.5 L 156 483.5 L 156.5 481 Z " /><path fill="rgb(166,142,191)" stroke="rgb(166,142,191)" stroke-width="1" opacity="0.13333333333333333" d="M 800.5 486 L 801.5 488 L 800.5 486 Z " /><path fill="rgb(166,142,191)" stroke="rgb(166,142,191)" stroke-width="1" opacity="0.13333333333333333" d="M 477.5 491 L 479.5 494 L 477.5 491 Z " /><path fill="rgb(166,142,191)" stroke="rgb(166,142,191)" stroke-width="1" opacity="0.13333333333333333" d="M 154.5 493 L 155 502.5 L 154 502.5 L 154.5 493 Z " /><path fill="rgb(166,142,191)" stroke="rgb(166,142,191)" stroke-width="1" opacity="0.13333333333333333" d="M 474.5 495 L 478 495.5 L 474.5 496 L 474.5 495 Z " /><path fill="rgb(166,142,191)" stroke="rgb(166,142,191)" stroke-width="1" opacity="0.13333333333333333" d="M 367.5 496 L 370 497.5 L 368.5 498 L 367.5 496 Z " /><path fill="rgb(166,142,191)" stroke="rgb(166,142,191)" stroke-width="1" opacity="0.13333333333333333" d="M 373.5 496 L 376 496.5 L 375 498.5 L 376.5 501 L 373 498.5 L 373.5 496 Z " /><path fill="rgb(166,142,191)" stroke="rgb(166,142,191)" stroke-width="1" opacity="0.13333333333333333" d="M 388.5 497 L 389.5 499 L 388.5 497 Z " /><path fill="rgb(166,142,191)" stroke="rgb(166,142,191)" stroke-width="1" opacity="0.13333333333333333" d="M 247.5 498 L 248.5 500 L 247.5 498 Z " /><path fill="rgb(166,142,191)" stroke="rgb(166,142,191)" stroke-width="1" opacity="0.13333333333333333" d="M 380.5 501 L 379.5 503 L 380.5 501 Z " /><path fill="rgb(166,142,191)" stroke="rgb(166,142,191)" stroke-width="1" opacity="0.13333333333333333" d="M 385.5 501 Q 390.3 499.3 389 503.5 L 388 503.5 Q 388.8 500.9 385.5 502 L 385.5 501 Z " /><path fill="rgb(166,142,191)" stroke="rgb(166,142,191)" stroke-width="1" opacity="0.13333333333333333" d="M 391.5 503 Q 394.5 504.5 391.5 506 Q 389.3 506.8 390 504.5 L 391.5 503 Z " /><path fill="rgb(166,142,191)" stroke="rgb(166,142,191)" stroke-width="1" opacity="0.13333333333333333" d="M 352 506 L 356 507.5 L 354.5 507 L 353 507.5 L 353.5 509 L 352 506 Z " /><path fill="rgb(166,142,191)" stroke="rgb(166,142,191)" stroke-width="1" opacity="0.13333333333333333" d="M 390.5 507 L 391.5 509 L 390.5 507 Z " /><path fill="rgb(166,142,191)" stroke="rgb(166,142,191)" stroke-width="1" opacity="0.13333333333333333" d="M 396.5 507 L 397.5 509 L 395 508.5 L 396.5 507 Z " /><path fill="rgb(166,142,191)" stroke="rgb(166,142,191)" stroke-width="1" opacity="0.13333333333333333" d="M 389.5 509 L 390.5 511 L 389.5 509 Z " /><path fill="rgb(166,142,191)" stroke="rgb(166,142,191)" stroke-width="1" opacity="0.13333333333333333" d="M 393.5 509 L 394 510.5 L 393.5 512 L 397.5 513 L 399 512.5 Q 395.9 514.3 397.5 516 L 396 513 L 392 511.5 L 393.5 509 Z " /><path fill="rgb(166,142,191)" stroke="rgb(166,142,191)" stroke-width="1" opacity="0.13333333333333333" d="M 155.5 511 L 156 513.5 L 155 513.5 L 155.5 511 Z " /><path fill="rgb(166,142,191)" stroke="rgb(166,142,191)" stroke-width="1" opacity="0.13333333333333333" d="M 344.5 511 L 346.5 512 L 348 511.5 L 344.5 514 L 344.5 511 Z " /><path fill="rgb(166,142,191)" stroke="rgb(166,142,191)" stroke-width="1" opacity="0.13333333333333333" d="M 404.5 513 L 405.5 515 L 403.5 515 L 402 514.5 L 404.5 513 Z " /><path fill="rgb(166,142,191)" stroke="rgb(166,142,191)" stroke-width="1" opacity="0.13333333333333333" d="M 819.5 513 L 818.5 515 L 819.5 513 Z " /><path fill="rgb(166,142,191)" stroke="rgb(166,142,191)" stroke-width="1" opacity="0.13333333333333333" d="M 339.5 514 L 340.5 516 L 339.5 514 Z " /><path fill="rgb(166,142,191)" stroke="rgb(166,142,191)" stroke-width="1" opacity="0.13333333333333333" d="M 400.5 517 L 401.5 519 L 400.5 517 Z " /><path fill="rgb(166,142,191)" stroke="rgb(166,142,191)" stroke-width="1" opacity="0.13333333333333333" d="M 403.5 519 L 405.5 521 L 408 519.5 Q 404.8 524.8 403.5 519 Z " /><path fill="rgb(166,142,191)" stroke="rgb(166,142,191)" stroke-width="1" opacity="0.13333333333333333" d="M 409.5 520 L 412 521.5 L 408.5 524 L 407.5 522 Q 408.8 524.3 410 521.5 L 409.5 520 Z " /><path fill="rgb(166,142,191)" stroke="rgb(166,142,191)" stroke-width="1" opacity="0.13333333333333333" d="M 414.5 521 L 416 524.5 L 413 522.5 L 414.5 521 Z " /><path fill="rgb(166,142,191)" stroke="rgb(166,142,191)" stroke-width="1" opacity="0.13333333333333333" d="M 267.5 522 L 269.5 525 L 267.5 522 Z " /><path fill="rgb(166,142,191)" stroke="rgb(166,142,191)" stroke-width="1" opacity="0.13333333333333333" d="M 422.5 527 L 423.5 529 L 422.5 527 Z " /><path fill="rgb(166,142,191)" stroke="rgb(166,142,191)" stroke-width="1" opacity="0.13333333333333333" d="M 274.5 528 L 275.5 530 L 274.5 528 Z " /><path fill="rgb(166,142,191)" stroke="rgb(166,142,191)" stroke-width="1" opacity="0.13333333333333333" d="M 415.5 528 L 418 528.5 L 417.5 531 L 415.5 528 Z " /><path fill="rgb(166,142,191)" stroke="rgb(166,142,191)" stroke-width="1" opacity="0.13333333333333333" d="M 426.5 530 L 425.5 532 L 424 531.5 L 426.5 530 Z " /><path fill="rgb(166,142,191)" stroke="rgb(166,142,191)" stroke-width="1" opacity="0.13333333333333333" d="M 295.5 531 L 298 531.5 L 295.5 532 L 295.5 531 Z " /><path fill="rgb(166,142,191)" stroke="rgb(166,142,191)" stroke-width="1" opacity="0.13333333333333333" d="M 421.5 531 Q 423.8 530.3 423 532.5 L 423.5 534 L 421 533.5 L 421.5 531 Z " /><path fill="rgb(166,142,191)" stroke="rgb(166,142,191)" stroke-width="1" opacity="0.13333333333333333" d="M 828 531 L 830 531.5 L 830 533.5 L 832 536.5 L 828 535.5 L 829 533.5 L 827 533.5 L 828 531 Z " /><path fill="rgb(166,142,191)" stroke="rgb(166,142,191)" stroke-width="1" opacity="0.13333333333333333" d="M 430.5 536 L 433 541.5 L 431 540.5 L 430.5 536 Z " /><path fill="rgb(166,142,191)" stroke="rgb(166,142,191)" stroke-width="1" opacity="0.13333333333333333" d="M 172.5 550 Q 177 552 173.5 554 L 172.5 550 Z " /><path fill="rgb(166,142,191)" stroke="rgb(166,142,191)" stroke-width="1" opacity="0.13333333333333333" d="M 728.5 560 Q 731.1 559.2 730 562.5 L 732 562.5 L 731.5 564 L 733 564.5 L 732.5 566 L 734 566.5 L 731 567 L 730 563 L 728 562.5 L 728.5 560 Z " /><path fill="rgb(166,142,191)" stroke="rgb(166,142,191)" stroke-width="1" opacity="0.13333333333333333" d="M 184.5 562 L 185.5 564 L 184.5 562 Z " /><path fill="rgb(166,142,191)" stroke="rgb(166,142,191)" stroke-width="1" opacity="0.13333333333333333" d="M 734.5 568 L 733.5 570 L 734.5 568 Z " /><path fill="rgb(166,142,191)" stroke="rgb(166,142,191)" stroke-width="1" opacity="0.13333333333333333" d="M 847.5 568 L 848.5 570 L 847.5 568 Z " /><path fill="rgb(166,142,191)" stroke="rgb(166,142,191)" stroke-width="1" opacity="0.13333333333333333" d="M 739.5 579 L 739 580.5 Q 739.8 582.8 737.5 582 L 739.5 579 Z " /><path fill="rgb(166,142,191)" stroke="rgb(166,142,191)" stroke-width="1" opacity="0.13333333333333333" d="M 745.5 592 L 745 593.5 L 745.5 595 L 747 594.5 L 746.5 596 Q 749.1 595.2 748 598.5 L 748.5 600 L 745.5 598 L 745.5 600 Q 743.3 600.8 744 598.5 L 745 595.5 L 744 593.5 L 745.5 592 Z " /><path fill="rgb(166,142,191)" stroke="rgb(166,142,191)" stroke-width="1" opacity="0.13333333333333333" d="M 863.5 597 L 864 600.5 L 862.5 604 L 863 600.5 L 863.5 597 Z " /><path fill="rgb(166,142,191)" stroke="rgb(166,142,191)" stroke-width="1" opacity="0.13333333333333333" d="M 520.5 600 L 526 600.5 L 520.5 601 L 520.5 600 Z " /><path fill="rgb(166,142,191)" stroke="rgb(166,142,191)" stroke-width="1" opacity="0.13333333333333333" d="M 752.5 602 L 854 602.5 L 752.5 603 L 752.5 602 Z " /><path fill="rgb(166,142,191)" stroke="rgb(166,142,191)" stroke-width="1" opacity="0.13333333333333333" d="M 478.5 611 L 481 611.5 L 478.5 612 L 478.5 611 Z " /><path fill="rgb(166,142,191)" stroke="rgb(166,142,191)" stroke-width="1" opacity="0.13333333333333333" d="M 483.5 611 L 486 611.5 L 483.5 612 L 483.5 611 Z " /><path fill="rgb(225,194,245)" stroke="rgb(225,194,245)" stroke-width="1" opacity="0.9921568627450981" d="M 617.5 311 L 698.5 311 L 699 313.5 L 738.5 394 L 739.5 393 L 754.5 392 L 759 390.5 Q 756.7 389.3 759.5 388 L 760.5 389 L 764.5 385 L 769.5 382 L 772 383 L 774.5 367 L 777 374.5 L 777 381.5 L 780.5 385 Q 782.8 384.3 782 386.5 L 783 389 L 786 390.5 L 785.5 392 L 796.5 393 L 800 394.5 L 786 399.5 L 788 400.5 L 784 406.5 L 790 414.5 L 785.5 411 L 783.5 410 L 779.5 413 L 777.5 410 L 774.5 436 L 773 432.5 L 773 420.5 L 771.5 412 L 752.5 433 L 736.5 444 L 707.5 458 Q 704 447.5 696.5 441 L 690 436.5 Q 694.7 426.2 703.5 420 L 724.5 406 Q 736.3 399.8 751 396.5 L 747.5 396 L 740.5 398 L 720.5 399 L 719.5 397 L 733 393.5 L 728 393 Q 729.5 389.3 726.5 390 L 722 389 L 721.5 391 L 690 325.5 L 690 323 L 688.5 323 L 673 338.5 L 655 360.5 L 619.5 424 L 619 422.5 L 635 393.5 Q 631.4 392.1 631.5 387 L 630 387.5 L 630.5 386 L 628.5 387 L 629 385.5 Q 629.8 383.3 627.5 384 L 626 384.5 L 624.5 381 L 623 381.5 L 621.5 379 L 620 379 L 620 376 Q 617.3 377.1 618 374.5 L 615 373.5 Q 615.7 370.9 613 372 L 613 369.5 L 608 366.5 L 608 364.5 L 607.5 354 L 605.5 357 L 606 355.5 L 609 348.5 L 607 349.5 L 542.5 465 L 543 463.5 L 551 447.5 L 549.5 445 L 547.5 445 Q 543.3 446.3 545 441.5 L 544 441.5 L 533.5 460 L 534 458.5 Q 573.5 382.5 617.5 311 Z M 627 321 L 627 322 L 633 322 L 627 321 Z M 613 341 L 609 347 L 610 348 L 613 343 L 613 341 Z M 733 413 L 731 414 L 726 421 L 727 426 Q 729 431 739 430 Q 745 428 743 418 Q 741 412 733 413 Z " /><path fill="rgb(225,194,245)" stroke="rgb(225,194,245)" stroke-width="1" opacity="0.9921568627450981" d="M 298.5 315 L 329.5 315 L 330.5 316 L 338.5 316 L 360.5 320 L 379.5 326 Q 420.6 341.9 447 372.5 Q 463.2 390.8 472 416.5 L 477 438.5 L 477 474.5 Q 474.3 476.3 476 482.5 L 469 506.5 L 458.5 525 L 459 523.5 L 467 508.5 L 471 495.5 L 471 489.5 L 473 481.5 L 473 451.5 L 472 451.5 L 472 476.5 L 470.5 481 L 469 480.5 Q 469.8 482.8 467.5 482 L 464 484 L 461.5 488 L 460 487.5 L 460 490.5 L 455.5 501 L 455 499.5 L 461 480.5 Q 459.5 475 462 473.5 L 462 450.5 L 458 429.5 L 447 401.5 Q 434 377 414.5 359 Q 403.5 349 389.5 342 L 390.5 344 L 396 347.5 L 394.5 347 L 392 347.5 L 393 349.5 Q 390.8 350.8 393.5 352 L 397 353.5 L 395 361 L 393 361.5 L 395 362.5 L 392 368 L 389 369.5 Q 391.3 370.8 388.5 372 L 385.5 374 Q 381.8 376 383.5 378 L 381.5 378 L 375 381.5 L 375.5 383 L 369.5 380 L 370.5 382 Q 384.6 389.4 394 401.5 L 402 412.5 L 397 408.5 L 396.5 407 L 396 409.5 L 396 413.5 L 397.5 417 L 400 416 L 399.5 418 L 398 417.5 L 403 431.5 L 404 438.5 L 403 438.5 Q 395.6 404.4 371.5 387 Q 358.5 377 340.5 372 L 329.5 370 L 306.5 370 L 292.5 373 L 272.5 381 Q 259.4 388.4 250 399.5 Q 242 408.5 237 420.5 L 233 435.5 L 232 453.5 L 233 454.5 L 233 463.5 L 235 473.5 L 243 494.5 L 241 493.5 L 236.5 483 L 234.5 484 L 229.5 482 L 227.5 483 L 226 482.5 Q 226.8 484.8 224.5 484 L 221.5 485 L 215.5 488 L 213.5 488 L 200.5 492 L 198.5 492 L 185.5 493 L 184 492.5 L 183.5 496 L 182 488.5 L 183 487.5 L 183 476.5 L 186 466.5 L 185 466.5 L 181.5 474 L 180.5 473 Q 178.7 476.1 177 474.5 L 175.5 480 L 171.5 464 L 171 469.5 L 181 501.5 L 188 515.5 L 194 522.5 L 192.5 523 L 184 516.5 Q 172.1 501.4 166 480.5 L 161 456.5 L 161 431.5 L 165 411.5 L 174 389.5 Q 186.1 368.1 204.5 353 Q 220.7 339.2 241.5 330 L 262.5 322 L 283.5 317 L 297.5 316 L 298.5 315 Z M 385 339 L 388 342 L 389 342 L 385 339 Z M 171 456 L 170 463 L 171 463 L 171 456 Z M 187 463 L 186 466 L 187 466 L 187 463 Z M 462 483 L 461 486 L 462 486 L 462 483 Z " /><path fill="rgb(225,194,245)" stroke="rgb(225,194,245)" stroke-width="1" opacity="0.9921568627450981" d="M 697.5 412 L 708 412.5 L 684.5 433 L 678.5 430 L 665 427.5 L 686.5 415 L 697.5 412 Z " /><path fill="rgb(225,194,245)" stroke="rgb(225,194,245)" stroke-width="1" opacity="0.9921568627450981" d="M 618.5 425 L 618 426.5 L 616.5 429 L 617 427.5 L 618.5 425 Z " /><path fill="rgb(225,194,245)" stroke="rgb(225,194,245)" stroke-width="1" opacity="0.9921568627450981" d="M 770.5 437 L 861 596 L 756.5 596 L 756 594.5 L 711 502.5 L 707 493.5 L 707 490.5 L 708 490.5 L 708.5 492 L 712 490 L 712.5 487 L 728.5 517 L 729 514.5 L 724 504.5 L 725.5 505 L 732.5 498 Q 734.8 498.8 734 496.5 L 740 491.5 Q 739.3 489.3 741.5 490 L 746 483 L 749 481.5 Q 748.5 477.5 751.5 477 L 754 475.5 L 753 473.5 L 755 474.5 L 757.5 479 L 758 477.5 L 749 459.5 L 766 449.5 L 764 448.5 L 767.5 444 L 769 444.5 L 768 441.5 L 770.5 437 Z " /><path fill="rgb(225,194,245)" stroke="rgb(225,194,245)" stroke-width="1" opacity="0.9921568627450981" d="M 680.5 440 L 688 443 L 683.5 449 L 678 453.5 L 677 456.5 Q 677.8 458.8 681.5 458 L 691.5 453 L 696.5 453 Q 700.3 454.3 699 460.5 Q 662.9 490.9 618.5 513 L 621.5 509 L 626 506.5 L 622.5 506 L 600.5 514 L 597.5 513 L 576.5 523 L 545.5 535 L 500.5 548 L 500.5 547 L 527.5 539 L 542.5 532 L 545 529.5 Q 539.5 528 541 519.5 L 542.5 516 L 544 515.5 L 541.5 515 L 520.5 520 L 520.5 519 L 528 516.5 L 521.5 515 L 509.5 518 L 509.5 517 L 525.5 513 L 560.5 501 L 617 476.5 L 615 475.5 L 622.5 472 L 624.5 473 L 624.5 471 L 626.5 472 L 626.5 470 L 628.5 469 L 630.5 470 L 630.5 468 L 632.5 469 L 632.5 467 L 634.5 468 L 634.5 466 L 636.5 467 L 636.5 465 L 638.5 466 L 638.5 464 L 640 464.5 L 641.5 462 L 661.5 451 L 663.5 452 L 663.5 450 L 665.5 451 L 680.5 440 Z M 635 499 L 634 501 L 636 500 L 635 499 Z M 630 502 L 628 505 L 631 503 L 630 502 Z M 545 514 L 545 515 L 547 515 L 545 514 Z " /><path fill="rgb(225,194,245)" stroke="rgb(225,194,245)" stroke-width="1" opacity="0.9921568627450981" d="M 733.5 451 L 736 451.5 Q 731.7 464.7 721.5 472 L 706.5 481 L 706 478.5 L 708 470.5 L 708 460.5 L 709.5 459 L 733.5 451 Z " /><path fill="rgb(225,194,245)" stroke="rgb(225,194,245)" stroke-width="1" opacity="0.9921568627450981" d="M 532.5 461 L 532 462.5 L 530.5 465 L 531 463.5 L 532.5 461 Z " /><path fill="rgb(225,194,245)" stroke="rgb(225,194,245)" stroke-width="1" opacity="0.9921568627450981" d="M 161.5 474 L 162 488.5 L 166 505.5 Q 171.6 518.4 182.5 526 L 199.5 535 L 213.5 539 L 226.5 540 L 227.5 541 L 256.5 541 L 257.5 540 L 266.5 540 L 293.5 535 L 321.5 526 L 373.5 500 L 463.5 567 L 505 602.5 L 474.5 603 L 472.5 603 L 430 602.5 L 473 602 L 473 600.5 L 446.5 574 Q 410.8 542.2 369.5 516 L 357.5 524 L 340.5 532 L 305.5 545 L 270.5 552 L 238.5 553 L 237.5 552 L 228.5 552 L 214.5 549 L 191.5 540 L 186 535.5 L 186.5 534 L 172 523.5 L 162.5 508 L 162 511.5 L 167.5 527 Q 168.8 524.8 170 527.5 L 168 527.5 L 171.5 534 L 173 533.5 L 170 529.5 L 172 530.5 L 183 543.5 L 176.5 538 L 175 539.5 L 179.5 545 L 181.5 545 L 183.5 546 L 184.5 545 L 191.5 552 L 200 557.5 L 198.5 557 L 195.5 556 L 194.5 558 Q 206.9 567.1 224 571.5 L 221.5 572 Q 192 563.5 175 542.5 Q 166.4 532.1 162 517.5 L 159 503.5 L 159 482.5 Q 161.5 481 160 475.5 L 161.5 474 Z M 292 536 L 289 537 L 289 538 L 294 537 L 292 536 Z M 192 537 Q 191 540 194 539 Q 195 536 192 537 Z M 196 538 L 194 540 L 196 540 L 196 538 Z M 283 538 L 283 539 L 287 539 L 283 538 Z M 198 539 L 196 541 L 200 542 Q 202 543 201 540 L 198 539 Z M 278 539 L 270 541 L 250 542 L 249 543 L 232 543 L 231 542 L 221 543 L 227 544 L 220 544 L 216 544 Q 210 545 208 542 L 206 543 Q 204 539 202 543 L 216 548 L 230 551 L 239 551 L 240 552 L 270 551 L 296 546 L 297 543 L 297 545 L 303 544 L 303 543 L 299 544 L 297 541 L 298 539 Q 295 538 296 542 L 295 542 L 292 539 L 290 539 Q 287 538 288 541 L 278 539 Z M 213 540 L 213 541 L 215 541 L 213 540 Z M 217 541 L 217 542 L 221 542 L 217 541 Z M 185 546 L 183 549 Q 184 551 186 549 Q 184 551 188 553 L 190 552 Q 189 549 188 551 Q 189 549 185 546 Z M 193 555 L 193 557 L 195 556 L 193 555 Z M 448 558 L 449 560 L 450 560 L 448 558 Z " /><path fill="rgb(225,194,245)" stroke="rgb(225,194,245)" stroke-width="1" opacity="0.9921568627450981" d="M 454.5 502 L 455 503.5 L 453.5 506 L 453 504.5 L 454.5 502 Z " /><path fill="rgb(225,194,245)" stroke="rgb(225,194,245)" stroke-width="1" opacity="0.9921568627450981" d="M 505.5 518 L 508 518.5 L 505.5 519 L 505.5 518 Z " /><path fill="rgb(225,194,245)" stroke="rgb(225,194,245)" stroke-width="1" opacity="0.9921568627450981" d="M 501.5 519 L 504 519.5 L 501.5 520 L 501.5 519 Z " /><path fill="rgb(225,194,245)" stroke="rgb(225,194,245)" stroke-width="1" opacity="0.9921568627450981" d="M 515.5 520 L 518 520.5 L 515.5 521 L 515.5 520 Z " /><path fill="rgb(225,194,245)" stroke="rgb(225,194,245)" stroke-width="1" opacity="0.9921568627450981" d="M 457.5 526 L 457 527.5 L 456.5 529 L 456 527.5 L 457.5 526 Z " /><path fill="rgb(225,194,245)" stroke="rgb(225,194,245)" stroke-width="1" opacity="0.9921568627450981" d="M 334.5 547 L 335.5 549 L 334.5 547 Z " /><path fill="rgb(225,194,245)" stroke="rgb(225,194,245)" stroke-width="1" opacity="0.9921568627450981" d="M 228.5 573 L 232 573.5 L 228.5 574 L 228.5 573 Z " /><path fill="rgb(84,18,153)" stroke="rgb(84,18,153)" stroke-width="1" opacity="0.9882352941176471" d="M 306.5 314 L 320 314.5 L 306.5 315 L 306.5 314 Z " /><path fill="rgb(84,18,153)" stroke="rgb(84,18,153)" stroke-width="1" opacity="0.9882352941176471" d="M 295.5 315 L 298 315.5 L 295.5 316 L 295.5 315 Z " /><path fill="rgb(84,18,153)" stroke="rgb(84,18,153)" stroke-width="1" opacity="0.9882352941176471" d="M 330.5 315 L 335 315.5 L 330.5 316 L 330.5 315 Z " /><path fill="rgb(84,18,153)" stroke="rgb(84,18,153)" stroke-width="1" opacity="0.9882352941176471" d="M 286.5 316 L 290 316.5 L 286.5 317 L 286.5 316 Z " /><path fill="rgb(84,18,153)" stroke="rgb(84,18,153)" stroke-width="1" opacity="0.9882352941176471" d="M 339.5 316 L 342 316.5 L 339.5 317 L 339.5 316 Z " /><path fill="rgb(84,18,153)" stroke="rgb(84,18,153)" stroke-width="1" opacity="0.9882352941176471" d="M 280.5 317 L 283 317.5 L 280.5 318 L 280.5 317 Z " /><path fill="rgb(84,18,153)" stroke="rgb(84,18,153)" stroke-width="1" opacity="0.9882352941176471" d="M 345.5 317 L 348 317.5 L 345.5 318 L 345.5 317 Z " /><path fill="rgb(84,18,153)" stroke="rgb(84,18,153)" stroke-width="1" opacity="0.9882352941176471" d="M 275.5 318 L 278 318.5 L 275.5 319 L 275.5 318 Z " /><path fill="rgb(84,18,153)" stroke="rgb(84,18,153)" stroke-width="1" opacity="0.9882352941176471" d="M 271.5 319 L 274 319.5 L 271.5 320 L 271.5 319 Z " /><path fill="rgb(84,18,153)" stroke="rgb(84,18,153)" stroke-width="1" opacity="0.9882352941176471" d="M 356.5 319 L 359 319.5 L 356.5 320 L 356.5 319 Z " /><path fill="rgb(84,18,153)" stroke="rgb(84,18,153)" stroke-width="1" opacity="0.9882352941176471" d="M 361.5 320 L 364 320.5 L 361.5 321 L 361.5 320 Z " /><path fill="rgb(84,18,153)" stroke="rgb(84,18,153)" stroke-width="1" opacity="0.9882352941176471" d="M 626.5 321 L 633 321.5 L 626.5 322 L 626.5 321 Z " /><path fill="rgb(84,18,153)" stroke="rgb(84,18,153)" stroke-width="1" opacity="0.9882352941176471" d="M 257.5 323 L 259 323.5 L 255.5 325 L 255.5 324 L 257.5 323 Z " /><path fill="rgb(84,18,153)" stroke="rgb(84,18,153)" stroke-width="1" opacity="0.9882352941176471" d="M 688.5 323 Q 691.1 322.2 690 325.5 L 721.5 391 L 722 389 L 728 390 Q 726.2 394.9 732.5 393 L 732.5 394 Q 724 394 719 397.5 Q 720.8 400.8 727.5 399 L 728.5 398 L 740.5 398 L 750.5 396 L 750.5 397 Q 733.9 399.9 722.5 408 L 721 407.5 L 720.5 409 L 719 408.5 L 717.5 411 L 715.5 410 L 715.5 412 L 713.5 411 L 712.5 414 L 710.5 414 L 709 414.5 L 709.5 416 L 707.5 416 L 705 417.5 Q 707.3 418.8 704.5 420 L 702.5 420 L 699 422.5 Q 701.3 423.7 698.5 425 L 697.5 424 L 693 428.5 L 694 430.5 L 689 433.5 L 689.5 435 L 691 434.5 L 690 436.5 L 691.5 440 L 693 439.5 L 692.5 438 L 693.5 441 L 695.5 442 Q 696.8 439.8 698 442.5 Q 695.8 443.8 698.5 445 Q 699.8 442.8 701 445.5 L 700 447.5 L 703 448.5 L 702 450.5 L 704 450.5 L 703 452.5 L 705 452.5 L 704 455.5 L 705.5 458 L 707 457.5 L 705 478.5 L 703.5 480 L 702.5 477 L 700.5 478 L 698.5 475 Q 686.2 481.1 677.5 491 L 648 508 Q 649.3 511 645.5 510 L 613.5 528 Q 603 533.5 589.5 536 L 587.5 536 L 575 540 L 574.5 537 L 565 548.5 L 538.5 593 L 517.5 593 Q 516 590.5 510.5 592 L 480 565.5 L 476 560.5 L 477.5 561 L 481.5 560 L 483.5 561 L 487 559.5 L 484 557.5 L 486.5 556 L 488 556.5 L 487 553.5 L 499.5 551 L 503.5 552 L 503.5 551 L 501 550.5 L 514 546.5 L 510.5 546 L 507.5 547 L 503.5 546 L 503.5 547 L 506 547.5 L 503.5 548 L 500.5 547 L 500.5 548 L 502 548.5 L 471.5 555 L 462.5 555 L 461 552.5 L 462.5 553 L 464 552.5 L 458 548 L 456.5 545 L 455 545.5 L 451 539.5 L 451 537 Q 453.7 538.1 453 535.5 L 453.5 534 L 447.5 538 L 443.5 538 L 441.5 535 L 443.5 536 L 442.5 534 L 393 499 L 402 477.5 L 404 466.5 L 404 443.5 L 403 439.5 L 404 435.5 L 403 435.5 L 402.5 438 L 402 435.5 L 403 431.5 L 402 431.5 L 401.5 433 L 401 431.5 L 402 428.5 L 401 428.5 L 400.5 430 L 400 428.5 L 401 425.5 L 400 425.5 L 399.5 427 L 399 425.5 L 400 422.5 L 395 412.5 Q 398.5 411 396 409.5 L 395 406.5 L 397 407.5 L 399.5 411 L 400 409.5 L 381.5 389 L 369 380.5 L 370.5 380 L 375.5 383 L 376.5 380 L 387 374 Q 385.9 371.3 388.5 372 L 390.5 368 Q 392.8 368.8 392 366.5 L 395 362.5 L 393 361.5 L 395 361 L 397 353.5 L 392 350.5 L 393 348.5 L 392.5 347 L 395 346.5 L 374 334.5 L 375.5 334 Q 404.7 347.3 425 369.5 Q 437.6 383.9 447 401.5 Q 454.7 416.3 459 434.5 L 458 437 Q 461.3 435.7 460 440.5 Q 457.5 442 461 443.5 L 460 450.5 L 462 450.5 Q 463.5 458 461 461.5 L 462 462.5 L 462 473.5 L 461 473.5 L 460.5 469 L 460 475.5 L 461 480.5 L 460 480.5 L 459.5 477 L 459 481.5 L 460 484.5 L 459 484.5 L 458.5 482 L 458 485.5 L 459 489.5 L 457.5 493 L 456.5 490 L 456 493.5 L 457 495.5 L 456 495.5 L 455.5 494 L 455 496.5 L 456.5 499 L 460.5 487 Q 462.2 489.8 464 485.5 Q 463.3 483.3 465.5 484 L 469 482 L 469.5 480 L 471 480.5 L 472 476.5 L 472.5 451 L 473 481.5 L 472 482.5 L 471 495.5 L 467 508.5 L 467.5 510 L 466 509.5 L 467 511.5 L 465 511.5 L 466 513.5 L 464 513.5 L 465 515.5 L 463 515.5 L 464 517.5 L 462 517.5 L 463 519.5 L 460 520.5 L 461 522.5 L 459 522.5 L 460 524.5 L 457 526.5 L 457.5 528 L 456 527.5 L 457.5 530 L 465.5 526 L 480.5 524 L 511.5 516 L 515.5 517 L 525.5 514 L 525.5 515 L 524 515.5 L 528 516.5 L 523 518.5 L 527.5 519 L 546.5 514 L 546.5 515 L 541 517.5 L 541 519.5 Q 539.5 528 545 529.5 L 532.5 537 L 510 544.5 L 513.5 545 L 516.5 544 L 520.5 545 L 524 543.5 L 521 542.5 L 526.5 541 L 529.5 542 L 529.5 541 L 528 540.5 L 571.5 525 L 605.5 510 L 605.5 511 L 600 513.5 L 602.5 514 L 607.5 511 L 625.5 506 L 636.5 498 L 634.5 501 L 619 511.5 L 620.5 512 Q 663.8 489.6 700 461 Q 701.1 455.5 698.5 453 L 697 453.5 L 697.5 452 L 692.5 453 L 691 452.5 Q 691.8 454.8 689.5 454 Q 685.7 457.7 678.5 458 L 677 455.5 L 682.5 449 L 684 449.5 L 688 444.5 L 688 442.5 L 685 441.5 L 684.5 440 L 683 440.5 L 683.5 439 Q 677.6 436.9 679 441.5 L 661.5 453 L 659.5 452 L 641 462.5 L 641.5 464 L 640 463.5 L 638.5 466 L 628.5 471 L 626.5 470 L 626.5 472 Q 585.8 492.8 539.5 508 L 537.5 507 L 537.5 509 L 534.5 508 L 534.5 510 L 531.5 509 L 531.5 511 L 526.5 510 L 526.5 511 L 529 511.5 L 523.5 513 L 523.5 512 L 526 511.5 L 524 510.5 L 532 507.5 L 530 506.5 L 540 501.5 L 539.5 500 L 553 494.5 L 550.5 494 L 505.5 511 L 505 509.5 L 523 476 L 525 475.5 L 525 473.5 Q 524.3 471.3 526.5 472 L 527.5 469 L 529 468.5 L 528.5 467 L 530 466.5 L 529.5 465 L 531 464.5 L 530.5 463 L 532 463.5 L 531 461.5 L 534 459.5 L 533.5 458 L 535 458.5 L 534 456.5 L 536 456.5 L 535 454.5 L 537 454.5 L 536 452.5 L 539 451.5 L 540 448.5 L 539.5 447 L 541 447.5 L 540 445.5 L 543 444.5 L 545.5 439 L 546 440.5 L 545 445 L 548.5 446 L 550 445.5 L 551 447.5 L 547 456.5 L 548 456.5 L 621.5 325 L 621 326.5 L 607 353.5 L 608 354.5 L 608 364.5 L 609 365.5 L 608.5 367 L 610.5 366 L 610.5 368 L 613 369.5 L 613 372 Q 615.7 370.9 615 373.5 L 618 374.5 Q 617.3 377.1 620 376 L 620 379 L 621.5 379 L 623.5 382 Q 624.8 379.8 626 382.5 L 626.5 385 L 629 384 Q 627.9 386.7 630.5 386 L 634.5 393 L 636.5 390 L 636 391.5 L 629 405.5 L 631 404.5 L 636.5 394 L 638 393.5 L 638 391.5 L 640.5 387 L 642 386.5 L 642 384.5 L 648.5 372 L 650 371.5 L 650 369.5 L 651.5 367 L 653 366.5 Q 650.8 365.3 653.5 364 L 655 363.5 L 655 361.5 Q 669.4 339.9 688.5 323 Z M 657 374 L 655 382 L 617 457 L 620 455 L 621 456 L 631 449 L 641 445 L 656 436 L 662 431 L 666 430 Q 671 429 673 431 L 678 430 L 679 431 L 677 432 L 684 434 Q 689 436 688 433 L 687 433 L 689 430 L 689 432 Q 691 433 690 431 L 699 422 L 698 421 L 703 416 L 704 417 L 704 416 L 708 413 L 697 411 L 697 413 L 693 412 L 693 414 L 689 413 L 689 415 L 686 414 L 686 416 L 684 415 L 684 417 L 683 416 L 679 417 L 678 420 L 676 419 L 676 421 L 673 420 L 657 374 Z M 627 410 L 625 413 L 627 412 L 627 410 Z M 399 416 L 400 418 Q 401 415 399 416 Z M 622 419 L 620 422 L 622 421 L 622 419 Z M 458 487 L 457 490 L 458 490 L 458 487 Z M 568 487 L 566 488 L 566 489 L 570 488 L 568 487 Z M 563 489 L 561 490 L 561 491 L 565 490 L 563 489 Z M 554 493 L 554 494 L 556 494 L 554 493 Z M 510 517 L 510 518 L 512 518 L 510 517 Z M 506 518 L 506 519 L 508 519 L 506 518 Z M 502 519 L 502 520 L 504 520 L 502 519 Z M 521 519 L 521 520 L 523 520 L 521 519 Z M 516 520 L 516 521 L 518 521 L 516 520 Z M 465 531 L 465 532 L 467 532 L 465 531 Z M 462 532 L 457 533 L 456 535 L 464 533 L 462 532 Z M 525 542 L 525 543 L 527 543 L 525 542 Z M 508 545 L 508 546 L 510 546 L 508 545 Z M 515 545 L 515 546 L 517 546 L 515 545 Z M 518 554 L 518 556 L 517 555 L 507 556 L 504 558 Q 499 557 498 559 L 495 558 L 492 559 L 488 558 L 487 561 L 489 561 L 492 562 L 493 560 L 495 560 Q 497 559 496 562 Q 498 560 505 561 L 507 559 L 510 560 Q 518 559 522 555 L 518 554 Z " /><path fill="rgb(84,18,153)" stroke="rgb(84,18,153)" stroke-width="1" opacity="0.9882352941176471" d="M 367.5 331 L 371 332.5 L 369.5 333 L 367.5 331 Z " /><path fill="rgb(84,18,153)" stroke="rgb(84,18,153)" stroke-width="1" opacity="0.9882352941176471" d="M 714.5 341 L 713.5 343 L 714.5 341 Z " /><path fill="rgb(84,18,153)" stroke="rgb(84,18,153)" stroke-width="1" opacity="0.9882352941176471" d="M 716.5 345 L 715.5 347 L 716.5 345 Z " /><path fill="rgb(84,18,153)" stroke="rgb(84,18,153)" stroke-width="1" opacity="0.9882352941176471" d="M 718.5 349 L 717.5 351 L 718.5 349 Z " /><path fill="rgb(84,18,153)" stroke="rgb(84,18,153)" stroke-width="1" opacity="0.9882352941176471" d="M 720.5 353 L 719.5 355 L 720.5 353 Z " /><path fill="rgb(84,18,153)" stroke="rgb(84,18,153)" stroke-width="1" opacity="0.9882352941176471" d="M 430.5 356 L 431.5 358 L 430.5 356 Z " /><path fill="rgb(84,18,153)" stroke="rgb(84,18,153)" stroke-width="1" opacity="0.9882352941176471" d="M 722.5 357 L 721.5 359 L 722.5 357 Z " /><path fill="rgb(84,18,153)" stroke="rgb(84,18,153)" stroke-width="1" opacity="0.9882352941176471" d="M 197.5 359 L 191.5 366 L 197.5 359 Z " /><path fill="rgb(84,18,153)" stroke="rgb(84,18,153)" stroke-width="1" opacity="0.9882352941176471" d="M 584.5 364 L 585.5 366 L 584.5 364 Z " /><path fill="rgb(84,18,153)" stroke="rgb(84,18,153)" stroke-width="1" opacity="0.9882352941176471" d="M 306.5 370 L 309 370.5 L 306.5 371 L 306.5 370 Z " /><path fill="rgb(84,18,153)" stroke="rgb(84,18,153)" stroke-width="1" opacity="0.9882352941176471" d="M 327.5 370 L 330 370.5 L 327.5 371 L 327.5 370 Z " /><path fill="rgb(84,18,153)" stroke="rgb(84,18,153)" stroke-width="1" opacity="0.9882352941176471" d="M 186.5 371 L 185.5 373 L 186.5 371 Z " /><path fill="rgb(84,18,153)" stroke="rgb(84,18,153)" stroke-width="1" opacity="0.9882352941176471" d="M 580.5 371 L 581.5 373 L 580.5 371 Z " /><path fill="rgb(84,18,153)" stroke="rgb(84,18,153)" stroke-width="1" opacity="0.9882352941176471" d="M 730.5 374 L 729.5 376 L 730.5 374 Z " /><path fill="rgb(84,18,153)" stroke="rgb(84,18,153)" stroke-width="1" opacity="0.9882352941176471" d="M 577.5 376 L 578.5 378 L 577.5 376 Z " /><path fill="rgb(84,18,153)" stroke="rgb(84,18,153)" stroke-width="1" opacity="0.9882352941176471" d="M 573.5 383 L 574.5 385 L 573.5 383 Z " /><path fill="rgb(84,18,153)" stroke="rgb(84,18,153)" stroke-width="1" opacity="0.9882352941176471" d="M 734.5 383 L 733.5 385 L 734.5 383 Z " /><path fill="rgb(84,18,153)" stroke="rgb(84,18,153)" stroke-width="1" opacity="0.9882352941176471" d="M 371.5 387 L 373.5 390 L 371.5 387 Z " /><path fill="rgb(84,18,153)" stroke="rgb(84,18,153)" stroke-width="1" opacity="0.9882352941176471" d="M 736.5 387 L 735.5 389 L 736.5 387 Z " /><path fill="rgb(84,18,153)" stroke="rgb(84,18,153)" stroke-width="1" opacity="0.9882352941176471" d="M 263.5 389 L 262.5 391 L 263.5 389 Z " /><path fill="rgb(84,18,153)" stroke="rgb(84,18,153)" stroke-width="1" opacity="0.9882352941176471" d="M 737.5 389 L 736.5 391 L 737.5 389 Z " /><path fill="rgb(84,18,153)" stroke="rgb(84,18,153)" stroke-width="1" opacity="0.9882352941176471" d="M 259.5 390 L 259.5 392 L 261 392.5 L 257 395.5 L 259 392.5 L 257 392.5 L 259.5 390 Z " /><path fill="rgb(84,18,153)" stroke="rgb(84,18,153)" stroke-width="1" opacity="0.9882352941176471" d="M 738.5 391 L 739 393.5 L 737 392.5 L 738.5 391 Z " /><path fill="rgb(84,18,153)" stroke="rgb(84,18,153)" stroke-width="1" opacity="0.9882352941176471" d="M 252.5 397 L 250.5 400 L 252.5 397 Z " /><path fill="rgb(84,18,153)" stroke="rgb(84,18,153)" stroke-width="1" opacity="0.9882352941176471" d="M 251.5 401 L 250.5 403 L 251.5 401 Z " /><path fill="rgb(84,18,153)" stroke="rgb(84,18,153)" stroke-width="1" opacity="0.9882352941176471" d="M 385.5 401 L 386.5 403 L 385.5 401 Z " /><path fill="rgb(84,18,153)" stroke="rgb(84,18,153)" stroke-width="1" opacity="0.9882352941176471" d="M 247.5 403 L 246.5 405 L 247.5 403 Z " /><path fill="rgb(84,18,153)" stroke="rgb(84,18,153)" stroke-width="1" opacity="0.9882352941176471" d="M 388.5 405 L 389.5 407 L 388.5 405 Z " /><path fill="rgb(84,18,153)" stroke="rgb(84,18,153)" stroke-width="1" opacity="0.9882352941176471" d="M 560.5 406 L 561.5 408 L 560.5 406 Z " /><path fill="rgb(84,18,153)" stroke="rgb(84,18,153)" stroke-width="1" opacity="0.9882352941176471" d="M 390.5 408 L 391.5 410 L 390.5 408 Z " /><path fill="rgb(84,18,153)" stroke="rgb(84,18,153)" stroke-width="1" opacity="0.9882352941176471" d="M 393.5 409 L 394.5 411 L 393.5 409 Z " /><path fill="rgb(84,18,153)" stroke="rgb(84,18,153)" stroke-width="1" opacity="0.9882352941176471" d="M 777.5 410 L 779 418 L 782.5 417 L 781 419.5 L 782 420.5 L 783 425.5 L 779 431.5 L 779.5 433 Q 777.3 432.3 778 434.5 L 775.5 441 L 772.5 436 L 771.5 438 L 770 437.5 L 768 442.5 L 769 444.5 L 766 445.5 L 764 448.5 L 766 449.5 L 749 459.5 L 762 485.5 L 760 484.5 L 754.5 474 L 752.5 477 L 749 479.5 L 747.5 483 Q 745.3 482.3 746 484.5 L 741.5 490 Q 739.3 489.3 740 491.5 L 734 496.5 Q 734.8 498.8 732.5 498 L 726 504.5 L 726.5 506 L 725 505.5 L 731 519.5 L 729 518.5 L 717 493.5 L 712.5 487 L 712 490 L 708.5 492 L 707.5 490 L 706.5 493 L 705 486 L 709 483.5 L 707 482.5 L 720 474.5 Q 717.8 473.3 720.5 472 L 722.5 473 L 726 469.5 Q 723.8 468.3 726.5 467 L 727.5 468 L 731 464.5 L 730 462.5 Q 732 464.2 734 460.5 L 737 450.5 L 734.5 450 L 725 452.5 L 727 453.5 L 725.5 454 L 723 452.5 L 728 449.5 L 727.5 448 L 729.5 449 L 729.5 447 L 732.5 448 L 736 445.5 L 735.5 444 L 737.5 445 L 741 442.5 L 740.5 441 L 742.5 442 L 743.5 439 L 745.5 440 L 746.5 437 L 748.5 437 L 751 435.5 Q 748.8 434.3 751.5 433 L 753.5 433 L 756 431.5 L 755 430.5 L 766 419.5 L 771.5 412 L 773 420.5 L 773 432.5 L 774.5 436 L 777.5 410 Z " /><path fill="rgb(84,18,153)" stroke="rgb(84,18,153)" stroke-width="1" opacity="0.9882352941176471" d="M 732.5 413 L 738 413.5 L 737.5 415 L 739.5 414 Q 745 416 743 425.5 L 737.5 430 L 734.5 429 L 732.5 430 L 732.5 429 L 734 428.5 L 729 425.5 L 731 423.5 Q 730.2 418.2 733 416.5 L 732.5 415 L 736 414.5 Q 731.6 414.9 732.5 413 Z " /><path fill="rgb(84,18,153)" stroke="rgb(84,18,153)" stroke-width="1" opacity="0.9882352941176471" d="M 555.5 415 L 556.5 417 L 555.5 415 Z " /><path fill="rgb(84,18,153)" stroke="rgb(84,18,153)" stroke-width="1" opacity="0.9882352941176471" d="M 726.5 420 L 727 423.5 L 726 423.5 L 726.5 420 Z " /><path fill="rgb(84,18,153)" stroke="rgb(84,18,153)" stroke-width="1" opacity="0.9882352941176471" d="M 668.5 425 L 667.5 427 L 666 426.5 L 668.5 425 Z " /><path fill="rgb(84,18,153)" stroke="rgb(84,18,153)" stroke-width="1" opacity="0.9882352941176471" d="M 776.5 443 L 778 445.5 L 776 444.5 L 776.5 443 Z " /><path fill="rgb(84,18,153)" stroke="rgb(84,18,153)" stroke-width="1" opacity="0.9882352941176471" d="M 232.5 444 L 233 453.5 L 232 453.5 L 232.5 444 Z " /><path fill="rgb(84,18,153)" stroke="rgb(84,18,153)" stroke-width="1" opacity="0.9882352941176471" d="M 477.5 448 L 478 464.5 L 477 464.5 L 477.5 448 Z " /><path fill="rgb(84,18,153)" stroke="rgb(84,18,153)" stroke-width="1" opacity="0.9882352941176471" d="M 536.5 449 L 537.5 451 L 536.5 449 Z " /><path fill="rgb(84,18,153)" stroke="rgb(84,18,153)" stroke-width="1" opacity="0.9882352941176471" d="M 779.5 449 L 778.5 451 L 779.5 449 Z " /><path fill="rgb(84,18,153)" stroke="rgb(84,18,153)" stroke-width="1" opacity="0.9882352941176471" d="M 719.5 452 L 722 453.5 L 720.5 454 L 719.5 452 Z " /><path fill="rgb(84,18,153)" stroke="rgb(84,18,153)" stroke-width="1" opacity="0.9882352941176471" d="M 170.5 456 L 171 462.5 L 170 462.5 L 170.5 456 Z " /><path fill="rgb(84,18,153)" stroke="rgb(84,18,153)" stroke-width="1" opacity="0.9882352941176471" d="M 161.5 457 L 162 459.5 L 161 459.5 L 161.5 457 Z " /><path fill="rgb(84,18,153)" stroke="rgb(84,18,153)" stroke-width="1" opacity="0.9882352941176471" d="M 652.5 457 L 651.5 459 L 652.5 457 Z " /><path fill="rgb(84,18,153)" stroke="rgb(84,18,153)" stroke-width="1" opacity="0.9882352941176471" d="M 188.5 459 L 189 460.5 L 183 476.5 Q 184.4 485.4 182 490.5 L 183.5 496 L 184.5 492 L 185.5 493 L 193.5 493 L 199.5 491 L 201.5 492 Q 203.8 489.3 209.5 490 L 214.5 487 L 216.5 487 L 222.5 484 L 224.5 484 Q 226.8 484.8 226 482.5 L 227.5 483 L 231.5 482 L 235.5 484 L 237 483.5 L 240.5 492 L 242 491.5 L 241 493.5 L 243 493.5 L 242.5 495 L 244 495.5 L 243.5 497 L 245 497.5 L 244.5 499 L 247 500.5 Q 253.3 513.2 263.5 522 L 276 532.5 L 261.5 534 L 260.5 535 L 240.5 536 L 239.5 535 L 227.5 535 L 212.5 532 L 196.5 526 L 191 522.5 L 192.5 523 L 194 522.5 Q 175.8 500.2 171 464.5 L 172 464.5 L 172 468.5 L 175.5 480 L 177.5 474 L 178.5 475 Q 180.8 470.8 183 472.5 L 188.5 459 Z " /><path fill="rgb(84,18,153)" stroke="rgb(84,18,153)" stroke-width="1" opacity="0.9882352941176471" d="M 233.5 461 L 234 463.5 L 233 463.5 L 233.5 461 Z " /><path fill="rgb(84,18,153)" stroke="rgb(84,18,153)" stroke-width="1" opacity="0.9882352941176471" d="M 707.5 468 L 708 470.5 L 707 470.5 L 707.5 468 Z " /><path fill="rgb(84,18,153)" stroke="rgb(84,18,153)" stroke-width="1" opacity="0.9882352941176471" d="M 160.5 471 L 162 473.5 L 160 474.5 L 160.5 471 Z " /><path fill="rgb(84,18,153)" stroke="rgb(84,18,153)" stroke-width="1" opacity="0.9882352941176471" d="M 476.5 475 L 477 477.5 L 476 477.5 L 476.5 475 Z " /><path fill="rgb(84,18,153)" stroke="rgb(84,18,153)" stroke-width="1" opacity="0.9882352941176471" d="M 461.5 483 L 462 485.5 L 461 485.5 L 461.5 483 Z " /><path fill="rgb(84,18,153)" stroke="rgb(84,18,153)" stroke-width="1" opacity="0.9882352941176471" d="M 162.5 485 L 163 488.5 L 162 488.5 L 162.5 485 Z " /><path fill="rgb(84,18,153)" stroke="rgb(84,18,153)" stroke-width="1" opacity="0.9882352941176471" d="M 158.5 489 L 159 499.5 L 158 499.5 L 158.5 489 Z " /><path fill="rgb(84,18,153)" stroke="rgb(84,18,153)" stroke-width="1" opacity="0.9882352941176471" d="M 647.5 490 L 646.5 492 L 647.5 490 Z " /><path fill="rgb(84,18,153)" stroke="rgb(84,18,153)" stroke-width="1" opacity="0.9882352941176471" d="M 644.5 492 L 642.5 495 L 644.5 492 Z " /><path fill="rgb(84,18,153)" stroke="rgb(84,18,153)" stroke-width="1" opacity="0.9882352941176471" d="M 639.5 496 L 638.5 498 L 639.5 496 Z " /><path fill="rgb(84,18,153)" stroke="rgb(84,18,153)" stroke-width="1" opacity="0.9882352941176471" d="M 380.5 503 L 380.5 506 Q 377.5 504.5 380.5 503 Z " /><path fill="rgb(84,18,153)" stroke="rgb(84,18,153)" stroke-width="1" opacity="0.9882352941176471" d="M 176.5 505 L 177.5 507 L 176.5 505 Z " /><path fill="rgb(84,18,153)" stroke="rgb(84,18,153)" stroke-width="1" opacity="0.9882352941176471" d="M 162.5 508 L 175.5 527 L 188 535.5 Q 185.8 536.8 188.5 538 L 193.5 540 L 193.5 539 Q 191.3 539.8 192 537.5 L 191.5 536 L 194 537 L 194.5 539 L 196 538.5 L 196.5 540 L 198.5 540 Q 202.3 539 201 542 L 196.5 541 L 196.5 542 L 214.5 549 L 228.5 552 L 261.5 553 L 262.5 552 L 270.5 552 L 271.5 551 L 289.5 549 L 305.5 545 L 314.5 541 L 314.5 543 L 316.5 543 L 350.5 573 L 377 592.5 L 353.5 597 L 344.5 597 L 343.5 598 L 311.5 598 L 310.5 597 L 301.5 597 L 300.5 596 L 288.5 595 L 267.5 590 L 248.5 583 L 237.5 576 L 234 575.5 L 234.5 574 L 230.5 575 L 230.5 574 L 232 573.5 L 228.5 573 L 226.5 574 L 226.5 572 L 222.5 573 L 222.5 572 L 224 571.5 L 221.5 571 L 219.5 572 L 219.5 571 L 221 570.5 L 218.5 570 L 216.5 571 L 216.5 570 L 218 569.5 L 215.5 569 L 213.5 570 L 213.5 569 L 215 568.5 L 210.5 567 L 208.5 568 L 208.5 567 L 210 566.5 L 200.5 562 L 200.5 564 L 198.5 560 L 193 556.5 Q 192.3 554.3 194.5 555 L 196.5 556 L 195.5 554 L 190.5 551 L 189 552.5 L 191.5 556 L 182 547.5 L 184 547.5 L 182.5 545 L 180.5 544 L 179.5 545 L 176 541.5 L 174 538.5 L 177 537.5 L 173.5 533 L 171.5 534 Q 163.4 523.7 162.5 508 Z M 345 570 L 336 573 L 315 577 L 301 578 L 300 579 L 289 579 L 289 580 L 301 580 L 302 579 L 317 578 L 338 574 L 346 571 L 345 570 Z M 351 581 L 350 582 L 340 582 L 339 583 L 328 583 L 328 584 L 341 584 L 342 583 L 352 583 L 358 582 L 351 581 Z M 321 584 L 321 585 L 323 585 L 321 584 Z " /><path fill="rgb(84,18,153)" stroke="rgb(84,18,153)" stroke-width="1" opacity="0.9882352941176471" d="M 387.5 508 L 386.5 510 L 387.5 508 Z " /><path fill="rgb(84,18,153)" stroke="rgb(84,18,153)" stroke-width="1" opacity="0.9882352941176471" d="M 160.5 509 L 161 511.5 L 160 511.5 L 160.5 509 Z " /><path fill="rgb(84,18,153)" stroke="rgb(84,18,153)" stroke-width="1" opacity="0.9882352941176471" d="M 179.5 510 L 180.5 512 L 179.5 510 Z " /><path fill="rgb(84,18,153)" stroke="rgb(84,18,153)" stroke-width="1" opacity="0.9882352941176471" d="M 713.5 512 L 729 543.5 L 728.5 545 L 731 546.5 L 746 579.5 L 745 579.5 L 744.5 578 L 743.5 581 L 742 579.5 L 743.5 577 L 742 576.5 L 744 575.5 Q 742.8 572.7 741.5 575 Q 739.3 575.8 740 573.5 L 742 573.5 L 739 568.5 Q 741.5 567 738 565.5 L 738 563.5 Q 733.3 561.2 732 555.5 L 733 553.5 L 730.5 549 L 729.5 551 L 728.5 546 L 727.5 548 L 721 533.5 L 723 532.5 L 721 531.5 L 721 529.5 L 720.5 528 L 719.5 531 L 718 528.5 L 719 526 L 717 525.5 L 717 521.5 L 713.5 512 Z " /><path fill="rgb(84,18,153)" stroke="rgb(84,18,153)" stroke-width="1" opacity="0.9882352941176471" d="M 181.5 513 L 183.5 516 L 181.5 513 Z " /><path fill="rgb(84,18,153)" stroke="rgb(84,18,153)" stroke-width="1" opacity="0.9882352941176471" d="M 171.5 514 L 172.5 516 L 171.5 514 Z " /><path fill="rgb(84,18,153)" stroke="rgb(84,18,153)" stroke-width="1" opacity="0.9882352941176471" d="M 516.5 514 L 519 514.5 L 516.5 515 L 516.5 514 Z " /><path fill="rgb(84,18,153)" stroke="rgb(84,18,153)" stroke-width="1" opacity="0.9882352941176471" d="M 369.5 516 L 389.5 529 L 430.5 560 L 473 600.5 L 474 602.5 L 472.5 602 L 430.5 602 L 426.5 603 L 424.5 602 Q 418 605.5 406.5 604 L 336 549.5 L 335.5 548 L 334.5 549 L 331.5 546 L 323 541 Q 321.5 537.3 324.5 538 Q 350 530 369.5 516 Z " /><path fill="rgb(84,18,153)" stroke="rgb(84,18,153)" stroke-width="1" opacity="0.9882352941176471" d="M 412.5 519 L 413.5 521 L 412.5 519 Z " /><path fill="rgb(84,18,153)" stroke="rgb(84,18,153)" stroke-width="1" opacity="0.9882352941176471" d="M 188.5 520 L 189.5 522 L 188.5 520 Z " /><path fill="rgb(84,18,153)" stroke="rgb(84,18,153)" stroke-width="1" opacity="0.9882352941176471" d="M 404.5 522 L 405.5 524 L 404.5 522 Z " /><path fill="rgb(84,18,153)" stroke="rgb(84,18,153)" stroke-width="1" opacity="0.9882352941176471" d="M 413.5 527 L 412.5 529 L 413.5 527 Z " /><path fill="rgb(84,18,153)" stroke="rgb(84,18,153)" stroke-width="1" opacity="0.9882352941176471" d="M 825.5 530 L 824.5 532 L 825.5 530 Z " /><path fill="rgb(84,18,153)" stroke="rgb(84,18,153)" stroke-width="1" opacity="0.9882352941176471" d="M 420.5 534 L 421.5 536 L 420.5 534 Z " /><path fill="rgb(84,18,153)" stroke="rgb(84,18,153)" stroke-width="1" opacity="0.9882352941176471" d="M 291.5 536 L 294 536.5 L 288.5 538 L 288.5 537 L 291.5 536 Z " /><path fill="rgb(84,18,153)" stroke="rgb(84,18,153)" stroke-width="1" opacity="0.9882352941176471" d="M 271.5 538 L 274 538.5 L 271.5 539 L 271.5 538 Z " /><path fill="rgb(84,18,153)" stroke="rgb(84,18,153)" stroke-width="1" opacity="0.9882352941176471" d="M 282.5 538 L 287 538.5 L 282 539.5 L 288 541 Q 286.9 538.3 289.5 539 L 294 539.5 Q 291.8 540.8 294.5 542 L 296 542 Q 294.5 538.3 297.5 539 L 297 540.5 L 298.5 544 L 302.5 543 L 302.5 544 L 297 545 L 296.5 543 L 296 546 L 269.5 551 L 239.5 552 L 238.5 551 L 229.5 551 L 215.5 548 L 202 542.5 Q 203.8 539.3 205.5 543 L 208.5 541 L 208.5 543 L 215.5 544 L 219.5 544 L 227 543.5 L 216 541.5 L 220.5 541 L 231.5 543 L 248.5 543 L 249.5 542 L 260.5 542 L 261.5 541 L 276.5 540 L 282.5 538 Z " /><path fill="rgb(84,18,153)" stroke="rgb(84,18,153)" stroke-width="1" opacity="0.9882352941176471" d="M 218.5 539 L 221 539.5 L 218.5 540 L 218.5 539 Z " /><path fill="rgb(84,18,153)" stroke="rgb(84,18,153)" stroke-width="1" opacity="0.9882352941176471" d="M 262.5 539 L 267 539.5 L 262.5 540 L 262.5 539 Z " /><path fill="rgb(84,18,153)" stroke="rgb(84,18,153)" stroke-width="1" opacity="0.9882352941176471" d="M 173.5 540 L 174.5 542 L 173.5 540 Z " /><path fill="rgb(84,18,153)" stroke="rgb(84,18,153)" stroke-width="1" opacity="0.9882352941176471" d="M 212.5 540 L 215 540.5 L 212.5 541 L 212.5 540 Z " /><path fill="rgb(84,18,153)" stroke="rgb(84,18,153)" stroke-width="1" opacity="0.9882352941176471" d="M 227.5 540 L 232 540.5 L 227.5 541 L 227.5 540 Z " /><path fill="rgb(84,18,153)" stroke="rgb(84,18,153)" stroke-width="1" opacity="0.9882352941176471" d="M 249.5 540 L 257 540.5 L 249.5 541 L 249.5 540 Z " /><path fill="rgb(84,18,153)" stroke="rgb(84,18,153)" stroke-width="1" opacity="0.9882352941176471" d="M 179.5 547 L 181.5 550 L 179.5 547 Z " /><path fill="rgb(84,18,153)" stroke="rgb(84,18,153)" stroke-width="1" opacity="0.9882352941176471" d="M 436.5 549 L 440 551.5 L 438.5 552 L 436.5 549 Z " /><path fill="rgb(84,18,153)" stroke="rgb(84,18,153)" stroke-width="1" opacity="0.9882352941176471" d="M 440.5 549 L 441.5 551 L 440.5 549 Z " /><path fill="rgb(84,18,153)" stroke="rgb(84,18,153)" stroke-width="1" opacity="0.9882352941176471" d="M 444.5 552 L 445.5 554 L 444.5 552 Z " /><path fill="rgb(84,18,153)" stroke="rgb(84,18,153)" stroke-width="1" opacity="0.9882352941176471" d="M 441.5 553 L 457 565.5 L 453.5 563 Q 444.6 559 441.5 553 Z " /><path fill="rgb(84,18,153)" stroke="rgb(84,18,153)" stroke-width="1" opacity="0.9882352941176471" d="M 187.5 554 L 189.5 557 L 187.5 554 Z " /><path fill="rgb(84,18,153)" stroke="rgb(84,18,153)" stroke-width="1" opacity="0.9882352941176471" d="M 482.5 554 L 486 554.5 L 482.5 555 L 482.5 554 Z " /><path fill="rgb(84,18,153)" stroke="rgb(84,18,153)" stroke-width="1" opacity="0.9882352941176471" d="M 448.5 555 L 449.5 557 L 448.5 555 Z " /><path fill="rgb(84,18,153)" stroke="rgb(84,18,153)" stroke-width="1" opacity="0.9882352941176471" d="M 452.5 558 L 453.5 560 L 452.5 558 Z " /><path fill="rgb(84,18,153)" stroke="rgb(84,18,153)" stroke-width="1" opacity="0.9882352941176471" d="M 457.5 562 L 458.5 564 L 457.5 562 Z " /><path fill="rgb(84,18,153)" stroke="rgb(84,18,153)" stroke-width="1" opacity="0.9882352941176471" d="M 461.5 565 L 462.5 567 L 461.5 565 Z " /><path fill="rgb(84,18,153)" stroke="rgb(84,18,153)" stroke-width="1" opacity="0.9882352941176471" d="M 461.5 568 L 463.5 571 L 461.5 568 Z " /><path fill="rgb(84,18,153)" stroke="rgb(84,18,153)" stroke-width="1" opacity="0.9882352941176471" d="M 466.5 569 L 467.5 571 L 466.5 569 Z " /><path fill="rgb(84,18,153)" stroke="rgb(84,18,153)" stroke-width="1" opacity="0.9882352941176471" d="M 848.5 570 L 847.5 572 L 848.5 570 Z " /><path fill="rgb(84,18,153)" stroke="rgb(84,18,153)" stroke-width="1" opacity="0.9882352941176471" d="M 472.5 574 L 473.5 576 L 472.5 574 Z " /><path fill="rgb(84,18,153)" stroke="rgb(84,18,153)" stroke-width="1" opacity="0.9882352941176471" d="M 852.5 577 L 851.5 579 L 852.5 577 Z " /><path fill="rgb(84,18,153)" stroke="rgb(84,18,153)" stroke-width="1" opacity="0.9882352941176471" d="M 477.5 578 L 479.5 581 L 477.5 578 Z " /><path fill="rgb(84,18,153)" stroke="rgb(84,18,153)" stroke-width="1" opacity="0.9882352941176471" d="M 482.5 582 L 484.5 585 L 482.5 582 Z " /><path fill="rgb(84,18,153)" stroke="rgb(84,18,153)" stroke-width="1" opacity="0.9882352941176471" d="M 488.5 587 L 490.5 590 L 488.5 587 Z " /><path fill="rgb(84,18,153)" stroke="rgb(84,18,153)" stroke-width="1" opacity="0.9882352941176471" d="M 494.5 592 L 496.5 595 L 494.5 592 Z " /><path fill="rgb(84,18,153)" stroke="rgb(84,18,153)" stroke-width="1" opacity="0.9882352941176471" d="M 753.5 594 L 754 596.5 L 753 596.5 L 753.5 594 Z " /><path fill="rgb(84,18,153)" stroke="rgb(84,18,153)" stroke-width="1" opacity="0.9882352941176471" d="M 757.5 596 L 860 596.5 L 757.5 597 L 757.5 596 Z " /><path fill="rgb(84,18,153)" stroke="rgb(84,18,153)" stroke-width="1" opacity="0.9882352941176471" d="M 756.5 598 L 762 598.5 L 756.5 599 L 756.5 598 Z " /><path fill="rgb(84,18,153)" stroke="rgb(84,18,153)" stroke-width="1" opacity="0.9882352941176471" d="M 763.5 598 L 861 598.5 L 856.5 600 L 823.5 600 L 820.5 599 L 817.5 600 L 815.5 599 L 813.5 599 L 809.5 600 L 807.5 600 L 791.5 599 L 788.5 600 L 786.5 600 L 784.5 599 L 780.5 600 L 778.5 599 L 776.5 599 L 763.5 599 L 763.5 598 Z " /><path fill="rgb(84,18,153)" stroke="rgb(84,18,153)" stroke-width="1" opacity="0.9882352941176471" d="M 502.5 599 L 506 604 L 504 603.5 L 505 602.5 L 502.5 599 Z " /><path fill="rgb(84,18,153)" stroke="rgb(84,18,153)" stroke-width="1" opacity="0.9882352941176471" d="M 472.5 605 L 503 605.5 L 472.5 606 L 472.5 605 Z " />
  </g>
</svg>
